<svg id="Capa_1" data-name="Capa 1" xmlns="http://www.w3.org/2000/svg" viewBox="0 0 1000 1000"><defs><style>.cls-1{fill:#fff;}</style></defs><path class="cls-1" d="M260.57,589.68c1.71,31.05,14,54,27.18,76.21,46.15,78,115.29,124,204.22,135.32,118.36,15.06,221.51-33.83,282.91-138.1,9.14-15.52,16.39-32.38,22.57-49.33,5.77-15.83,16-15.35,28.61-11.48,13.82,4.24,22.54,12,17,27.65A327.08,327.08,0,0,1,784.2,732.8c-59.35,70.13-135.42,110.89-226.63,119-79.11,7-152.16-14.34-217.24-60.57-57.39-40.76-96.62-95.5-122.18-160.61-1.23-3.14-4.7-8.16-6.33-7.86-4.42.8-9.91,3-12.27,6.43-6,8.89-11,18.59-15.68,28.31-7.11,14.77-17.52,9.07-27.34,4.63-10.25-4.64-19.54-10.57-14-24.45,1.67-4.19,3.85-8.18,5.86-12.24,16.39-33,32.6-66.13,49.25-99,9.08-17.95,14.74-19.45,32.28-10.66,34,17,68.23,33.67,102.05,51.07,20.15,10.35,21.75,17.57,10.73,36.32-7.36,12.5-16.89,16.18-29.92,8.58-9.33-5.44-18.48-11.32-28.26-15.79C278.16,593,270.78,592.22,260.57,589.68Z"/><path class="cls-1" d="M780.85,445.53c-5.27-16.16-8.31-29.33-13.72-41.44C723.76,307.05,648.79,249.6,544,235.85c-84-11-160.39,11.16-224.65,68.8a269.77,269.77,0,0,0-72.52,105.67c-10.74,28-19.3,32.73-40,22.71-10.23-5-15.41-11.62-10.81-24.63,27.06-76.59,75.19-136.08,145.05-177,56.56-33.11,118-50.38,184.13-46.56C597.89,189.07,662,215.16,718,261.8c48.36,40.34,82.6,90.23,103.24,149.65.85,2.47,4.48,5.79,6.55,5.61,3.25-.29,7.43-2.47,9.16-5.16a270.3,270.3,0,0,0,15.85-28.23c7.3-15.11,17.39-14.59,30.59-7.84,12.66,6.48,18.74,14.91,11.9,28.4-19.24,38-38.9,75.75-58.52,113.54-5.12,9.85-12.37,11.73-22.6,6.51-36.38-18.57-73.17-36.32-109.48-55-16.78-8.65-18.79-16.27-10.72-31.06,10-18.35,16.25-20.49,33.82-11.45,12.08,6.22,24,12.85,36.28,18.57C767.23,446.79,771.7,445.53,780.85,445.53Z"/><path class="cls-1" d="M545.43,389.63l63.75,26.16L584.1,456.07c-23.64-15-47.84-20.93-74.12-15.64-11.41,2.3-22.9,4.74-25.12,18.7-2.29,14.38,4.39,24.61,17.53,29.7,17.44,6.77,35.33,12.4,53,18.7,27.93,10,49,27.57,55.26,57.48,6.49,31-13.5,61.63-47.86,73-14,4.64-19.52,10.87-17.42,25.18,1.91,13-4,19.29-17.57,17.63a36.06,36.06,0,0,0-10.27,0c-17.89,3-24.22-5.1-21.36-22,1.9-11.28-2.42-16.38-13.43-21.4-19.67-9-37.68-21.57-53.16-30.75l28.69-37.34c25.51,24.75,53.12,34.61,84.6,27,8.22-2,17.86-10.2,21.09-18,5.11-12.26-5.16-20-15.75-24.36-23.53-9.68-48.08-17.16-70.84-28.34-38.74-19-52.14-65-28.45-97.77,7.95-11,20.38-20.33,32.78-26.06,11.84-5.46,16.08-11.18,15.31-23.81-.42-6.95,2.72-19.86,5.67-20.29,12.7-1.84,26-.52,38.87,1,1.76.2,3.35,7.86,3.75,12.18C545.89,377.68,545.43,384.5,545.43,389.63Z"/></svg>