<svg width="170" height="170" viewBox="0 0 170 170" fill="none" xmlns="http://www.w3.org/2000/svg">
<circle cx="85.5" cy="87.5" r="75.5" fill="#E6F9F3"/>
<path d="M109.868 71.4823C102.559 79.9183 95.4708 87.9104 88.8258 96.3464C85.7248 100.12 82.4023 102.118 77.5293 101.452C74.6498 101.008 73.5422 102.118 72.8777 105.004C69.9982 117.436 57.5942 124.985 44.7472 122.543C33.0077 120.322 24.8122 108.556 26.1412 95.6804C27.2487 84.1363 38.7667 74.5903 50.7277 75.0343C51.1707 75.0343 51.3922 75.0343 51.8352 75.0343C54.2717 74.5903 56.9297 77.9203 58.7017 75.0343C61.5812 70.3723 64.9037 65.7103 60.6952 59.9382C59.5877 58.6062 58.9232 57.7182 56.9297 58.1622C55.6007 58.6062 53.3857 58.3842 52.7212 57.4962C51.8352 56.6082 51.8352 54.3882 52.2782 53.2782C52.9427 52.1682 54.7147 51.5022 56.0437 51.2802C60.9167 51.0582 65.7897 51.0582 70.6627 51.2802C71.5487 51.2802 72.4348 52.1682 73.3208 52.6122C72.6563 53.5002 72.2132 54.6102 71.5487 55.0542C69.3337 55.9422 67.1187 56.3862 64.9037 56.8302C65.7897 60.3822 67.7832 63.0462 71.5487 63.0462C83.7313 63.2682 95.6923 63.0462 108.318 63.0462C108.096 60.8262 107.875 59.0502 107.653 57.2742C107.21 53.9442 105.217 53.5002 102.116 53.2782C99.2363 53.2782 96.3568 52.1682 93.6988 51.0582C93.0343 50.8362 93.0343 48.6162 92.8128 47.2842C94.1418 47.2842 95.2493 46.8402 96.5783 47.0622C99.9008 47.5062 103.002 48.3942 106.103 48.3942C109.425 48.6162 111.419 49.5042 112.083 53.2782C112.969 59.2722 114.52 65.2662 115.627 71.2603C116.07 73.9243 117.178 74.8123 120.057 74.8123C132.461 74.1463 143.536 83.6923 144.865 95.6804C146.194 108.778 137.556 120.322 124.709 122.543C113.634 124.319 102.78 118.102 98.5718 107.446C94.5848 96.7904 98.1288 85.2463 107.653 79.0303C110.533 77.4763 112.305 75.4783 109.868 71.4823ZM112.969 82.3603C104.995 85.4683 100.565 95.0144 102.559 103.228C105.217 113.218 113.855 118.99 124.266 117.436C133.126 116.104 139.992 107.446 139.549 97.9004C139.328 88.7984 131.354 80.8063 121.829 80.1403C118.507 79.9183 117.842 80.5843 118.95 83.6923C120.279 88.3544 122.051 93.0164 123.158 97.6784C123.38 98.7884 122.272 100.12 121.829 101.23C120.722 100.564 119.393 100.12 118.507 99.2324C118.064 98.7884 117.842 97.6784 117.621 96.7904C116.07 92.1284 114.52 87.4663 112.969 82.3603ZM55.6007 81.4723C48.0697 78.5863 41.2032 80.5843 35.6657 86.5783C30.5712 92.3504 29.4637 100.12 33.0077 107.002C36.5517 114.328 42.7537 117.88 51.1707 117.436C58.4802 116.992 65.1252 111.886 67.5618 105.226C68.6693 101.896 68.2262 101.23 64.6822 101.23C60.4737 101.23 56.2652 101.452 52.2782 101.23C47.1837 101.23 46.5192 100.12 48.7342 95.6804C50.7277 91.2404 53.1642 86.3563 55.6007 81.4723ZM83.5098 94.3484C91.0408 85.6903 98.1288 77.2543 105.66 68.3743C93.4773 68.3743 82.4023 68.3743 70.6627 68.3743C74.8712 77.0323 79.0798 85.2463 83.5098 94.3484ZM54.0502 96.1244C59.1447 96.1244 63.3532 96.1244 68.0047 96.1244C67.3402 90.7964 64.6822 87.0223 60.2522 83.6923C58.2587 87.9103 56.2652 91.6844 54.0502 96.1244ZM78.4153 95.9024C74.4282 87.9103 70.4413 80.1403 66.4542 71.7043C65.7897 73.0363 65.3467 73.7023 64.9037 74.3683C62.6887 77.4763 63.1317 79.6963 66.2327 81.9163C69.9982 84.5803 71.7702 88.5764 72.6562 93.0164C73.3207 96.1244 75.0927 96.7904 78.4153 95.9024Z" fill="#76FF03"/>
</svg>
