<svg width="170" height="170" viewBox="0 0 170 170" fill="none" xmlns="http://www.w3.org/2000/svg">
<circle cx="85.5" cy="87.5" r="75.5" fill="#E6F9F3"/>
<path d="M71.7613 86.5542C68.9046 89.5886 66.3839 92.2858 64.0314 94.9831C62.687 96.6688 61.1747 98.5232 60.5025 100.546C59.9984 102.232 59.8303 104.761 60.8386 105.941C62.0149 107.289 64.8716 108.301 66.3839 107.795C70.2489 106.446 73.9458 104.423 77.4747 102.232C79.8272 100.883 81.8437 99.1975 84.1963 97.3431C86.5489 99.3661 88.9015 101.558 91.2541 103.581C92.4304 104.592 92.0943 105.772 91.086 106.615C85.7087 111.166 80.6675 116.224 74.954 120.27C72.0973 122.293 67.8963 123.135 64.1994 123.641C58.486 124.484 52.7726 123.81 47.2272 121.955C45.7149 121.45 44.0344 120.101 43.5303 118.752C42.354 114.707 41.1777 110.324 41.0097 106.109C40.8417 101.052 42.8582 96.5003 46.8912 93.1287C51.4283 89.2514 55.7973 85.3742 60.3345 81.3283C62.1829 79.6425 63.6953 79.4739 65.5437 81.3283C67.5602 83.1826 69.7448 84.6998 71.7613 86.5542Z" fill="#76FF03"/>
<path d="M65.8972 105C63.3404 105 62.1472 103.315 63.6813 101.124C65.8972 97.5855 68.4541 94.0467 71.5224 91.3505C81.2385 82.5879 91.2955 73.9938 101.523 65.3997C104.762 62.7036 106.978 59.8389 107.66 55.7946C108 53.941 108.682 52.0873 109.194 50.2337C110.216 46.8635 112.603 46.0209 115.33 48.2116C119.932 51.9188 124.364 55.7946 128.626 59.8389C130.842 61.6925 130.33 64.0517 127.433 64.8942C124.364 65.9053 120.955 66.2423 117.887 67.2534C115.501 68.0959 112.944 69.107 111.069 70.6236C100.5 79.5547 90.1023 88.6544 79.3634 97.417C76.1247 100.113 72.2042 101.967 68.6246 104.157C67.6018 104.663 66.5791 104.831 65.8972 105ZM114.819 56.6371C114.478 56.8057 114.137 56.8057 113.966 56.9742C113.966 58.3223 114.137 59.5018 114.137 60.8499C115.501 60.6814 117.035 60.6814 118.398 60.5129C118.398 60.1759 118.398 60.0074 118.398 59.6703C117.205 58.6593 116.012 57.6482 114.819 56.6371Z" fill="#76FF03"/>
</svg>
