<svg width="170" height="170" viewBox="0 0 170 170" fill="none" xmlns="http://www.w3.org/2000/svg">
<circle cx="85.5" cy="87.5" r="75.5" fill="#E6F9F3"/>
<path d="M58.5592 81.2507C59.2256 81.5853 59.2256 81.7525 59.3922 81.7525C62.391 86.7714 64.057 87.4406 69.5548 82.7563C70.7209 81.7526 71.7205 80.4142 72.5535 79.2431C73.8863 77.5701 74.0529 75.7299 72.3869 74.0569C71.2207 72.8858 71.5539 72.0494 72.8867 71.2129C74.8859 69.8746 77.0517 68.3689 79.0508 67.0305C85.5482 62.6808 91.0459 62.8481 97.3767 67.6997C98.0431 68.2016 98.5429 68.5362 99.3759 69.2053C101.708 67.0305 104.041 65.023 106.04 63.1827C105.54 61.1752 104.207 58.833 104.707 58.1638C106.706 55.8217 107.706 59.3349 109.705 59.3349C109.205 58.6657 108.539 58.1638 108.206 57.4946C107.872 56.6582 107.872 55.6544 107.872 54.6506C108.872 54.8179 109.872 54.6506 110.705 55.1525C111.371 55.4871 111.871 56.4909 112.371 57.16C112.704 56.9928 112.87 56.8255 113.204 56.6582C113.037 56.1563 112.87 55.4871 112.704 54.9852C111.538 51.8066 113.037 49.2971 116.202 48.4607C118.035 47.9588 119.867 47.4569 121.533 46.4531C123.199 45.4493 124.033 46.2858 125.032 47.2896C126.032 48.4607 127.864 49.1299 126.531 51.472C125.698 52.9777 125.032 54.6506 124.699 56.3236C123.866 60.3387 121.867 61.3424 115.869 60.0041C116.702 61.0078 117.202 61.5097 117.535 62.1789C117.868 63.1827 118.035 64.1865 118.201 65.1903C117.035 65.023 116.036 64.8557 114.87 64.5211C114.37 64.3538 113.87 63.8519 112.87 63.8519C113.37 64.5211 114.203 65.1903 114.536 66.0267C114.87 66.8632 114.703 67.867 114.87 68.7035C114.037 68.7035 112.704 68.8708 112.371 68.3689C110.705 66.6959 109.538 67.0305 108.372 68.7035C106.873 70.5437 105.373 72.2167 104.041 73.5551C105.54 76.5664 107.206 79.2431 108.206 82.0872C109.372 85.2658 109.039 88.4444 107.539 91.4557C106.873 92.7941 105.873 94.1325 105.04 95.4708C103.541 97.6457 102.208 99.6532 100.709 101.661C100.375 101.661 100.042 101.661 99.8757 101.661C98.0431 100.824 96.5437 98.8167 94.2113 100.322C90.8793 102.497 87.8806 104.839 86.881 108.854C86.7144 109.858 87.714 111.364 88.547 112.368C89.0468 113.204 90.0464 113.539 91.2126 114.375C86.048 120.231 81.883 127.257 73.2199 127.926C69.8879 128.261 66.2228 127.424 63.224 126.086C56.0602 122.907 50.7291 117.387 47.2306 110.36C43.732 103.166 44.2318 96.3073 49.5629 90.2846C52.3951 86.7714 55.7271 84.0947 58.5592 81.2507ZM98.8761 69.54C95.7107 72.5513 92.2121 75.7299 88.547 78.9085C83.0492 83.9274 83.0492 83.7601 88.7136 88.6117C88.8802 88.779 89.0468 88.6117 89.5466 88.779C94.0447 83.7601 98.5429 78.7412 103.208 73.5551C101.708 72.0494 100.375 70.8783 98.8761 69.54ZM58.0595 118.223C62.7242 114.208 67.0558 110.527 71.3873 106.68C72.5535 105.676 72.7201 104.505 71.3873 103.501C70.3878 102.665 69.5547 101.661 68.5552 100.992C68.0554 100.657 66.7226 100.657 66.3894 100.992C62.391 105.341 58.5593 109.858 54.7275 114.208C55.7271 115.714 56.7267 116.885 58.0595 118.223Z" fill="#76FF03"/>
</svg>
