<svg width="170" height="170" viewBox="0 0 170 170" fill="none" xmlns="http://www.w3.org/2000/svg">
<circle cx="85.5" cy="87.5" r="75.5" fill="#DAFFF5"/>
<g clip-path="url(#clip0)">
<path d="M39.9 105.465C37.875 95.1459 40.8 85.9487 44.85 76.7514C47.1 71.3676 49.125 65.9838 50.925 60.3757C53.625 52.7487 58.575 47.8135 66.675 46.2432C82.2 43.1027 97.95 42.6541 113.475 47.1405C119.325 48.9351 123.15 52.5243 125.175 58.1324C128.325 66.6568 131.475 74.9568 134.85 83.2568C138.675 92.6784 137.775 102.773 137.55 112.643C137.55 115.335 137.325 117.803 137.1 120.495C136.875 124.308 134.85 126.776 130.8 126.776C126.975 127 123.375 127 119.55 126.776C115.95 126.551 113.475 124.532 113.025 120.719C112.8 118.027 111.45 117.13 108.525 117.13C95.025 117.354 81.75 117.354 68.25 117.13C65.55 117.13 64.2 118.027 63.75 120.719C63.075 124.981 60.825 126.776 56.55 126.776C53.175 126.776 49.8 127 46.425 126.776C42.6 126.551 39.9 124.532 39.675 120.719C39.675 115.784 39.9 110.4 39.9 105.465ZM88.05 80.5649C88.05 80.3405 88.05 80.3405 88.05 80.1162C99.075 80.1162 110.1 80.1162 121.125 80.1162C125.4 80.1162 126.525 77.873 125.175 74.0595C123.825 70.2459 121.8 66.6568 120.9 62.6189C119.1 55.4405 114.15 52.3 107.4 50.9541C95.7 48.7108 84 48.9351 72.3 50.2811C63.975 51.4027 57.225 54.7676 55.425 63.9649C54.975 66.2081 53.625 68.227 52.725 70.4703C49.575 78.0973 50.925 80.3405 59.25 80.5649C59.925 80.5649 60.825 80.5649 61.5 80.5649C70.5 80.5649 79.275 80.5649 88.05 80.5649ZM63.525 105.689C63.75 105.465 63.975 105.016 63.975 104.792C67.8 104.792 70.95 102.1 71.4 98.5108C71.85 94.9216 68.7 91.3324 64.65 91.1081C61.275 90.8838 57.9 90.6595 54.75 91.1081C53.175 91.3324 50.925 92.6784 50.25 94.2487C49.575 95.5946 50.25 98.2865 51.375 99.1838C55.425 101.427 59.475 103.446 63.525 105.689ZM117.75 90.8838C117.75 90.6595 117.75 90.6595 117.75 90.8838C115.725 90.8838 113.7 90.6595 111.9 91.1081C108.075 91.7811 105.6 94.9216 105.825 98.5108C106.275 102.1 109.2 104.792 113.25 104.792C118.65 104.792 122.925 101.876 126.525 98.0622C129 95.5946 126.975 91.3324 123.375 90.8838C121.575 90.6595 119.55 90.8838 117.75 90.8838Z" fill="#76FF03"/>
<path d="M41.925 71.5919C40.35 75.8541 39 80.3405 36.975 84.3784C36.3 85.9486 32.925 85.5 31.35 83.4811C28.65 80.3405 29.775 74.9568 33.825 72.7135C35.85 71.5919 38.55 71.1432 41.025 70.4703C41.25 70.9189 41.7 71.1432 41.925 71.5919Z" fill="#76FF03"/>
<path d="M135.075 71.3676C143.175 70.4703 148.125 74.5081 146.775 80.7892C146.325 82.5838 144.075 83.9297 142.725 85.5C141.6 84.3784 139.8 83.4811 139.125 81.9108C137.55 78.5459 136.65 75.1811 135.075 71.3676Z" fill="#76FF03"/>
</g>
<defs>
<clipPath id="clip0">
<rect width="117" height="83" fill="white" transform="translate(30 44)"/>
</clipPath>
</defs>
</svg>
