<svg width="170" height="170" viewBox="0 0 170 170" fill="none" xmlns="http://www.w3.org/2000/svg">
<circle cx="85.5" cy="87.5" r="75.5" fill="#E6F9F3"/>
<g clip-path="url(#clip0)">
<path d="M128.895 97.9231C128.895 104.434 129.028 110.811 128.763 117.322C128.763 118.65 127.701 120.643 126.507 121.308C111.511 130.476 95.1877 134.462 77.5375 132.601C66.2574 131.406 55.7735 127.818 45.8204 122.238C43.1662 120.643 41.9719 118.65 41.9719 115.462C42.1046 103.902 41.9719 92.3427 42.1046 80.7832C42.37 58.8601 59.2239 40.3916 81.1207 38.2657C106.866 35.7413 128.63 55.2727 128.895 81.3147C128.895 86.7622 128.895 92.3427 128.895 97.9231ZM114.032 105.231C113.501 104.566 113.501 104.434 113.369 104.434C109.786 104.434 106.202 104.301 102.752 104.434C101.16 104.566 99.4343 104.965 98.1073 105.629C95.9839 106.692 93.8606 106.559 92.7989 104.699C92.0027 103.371 91.87 100.979 92.5335 99.6504C93.5952 97.5245 95.7185 97.2587 97.9745 98.3217C99.1689 98.8532 100.363 99.5175 101.558 99.6504C104.875 99.7832 108.193 99.7832 111.511 99.6504C115.89 99.5175 118.146 97.1259 118.146 92.6084C118.146 88.8881 118.146 85.3007 118.146 81.5804C118.146 73.6084 114.563 67.6294 107.53 64.042C92.9317 56.6014 78.0684 56.7343 63.3378 63.7762C57.7641 66.4336 53.7829 71.0839 53.252 77.3287C52.7212 83.7063 52.8539 90.2168 53.252 96.5944C53.6501 102.839 57.6314 106.958 63.0724 109.483C77.803 116.126 92.7989 115.993 107.53 109.615C110.051 108.685 111.909 106.692 114.032 105.231Z" fill="#76FF03"/>
<path d="M131.019 79.4545C133.673 79.7203 134.867 80.9161 135 83.3077C135 87.5594 135.133 91.6783 135 95.9301C134.867 98.1888 134.204 100.182 131.151 99.7832C131.019 92.8741 131.019 86.2308 131.019 79.4545Z" fill="#76FF03"/>
<path d="M40.114 79.986C40.114 86.4965 40.114 93.1399 40.114 99.7832C37.3271 99.6504 36.2654 98.1888 36.1327 96.0629C36 91.8112 36 87.6923 36.1327 83.4406C36.2654 80.3846 37.1944 79.8531 40.114 79.986Z" fill="#76FF03"/>
</g>
<defs>
<clipPath id="clip0">
<rect width="99" height="95" fill="white" transform="translate(36 38)"/>
</clipPath>
</defs>
</svg>
