<svg width="170" height="170" viewBox="0 0 170 170" fill="none" xmlns="http://www.w3.org/2000/svg">
<circle cx="85.5" cy="87.5" r="75.5" fill="#E6F9F3"/>
<g clip-path="url(#clip0)">
<path d="M111.946 78.2166C111.946 85.4599 111.946 92.5882 111.946 99.8315C111.946 107.995 111.832 116.158 111.946 124.321C111.946 127.195 110.917 128 108.17 128C92.7235 127.885 77.3909 127.885 61.944 128C58.7401 128 57.8248 126.735 57.8248 123.861C57.8248 117.422 57.8248 110.984 57.8248 104.66C57.8248 96.7273 57.8248 88.7941 57.8248 80.861C57.8248 80.0561 57.7103 79.3663 57.5959 77.6417C56.1084 80.0561 55.0786 81.6658 54.0488 83.3904C52.9046 85.4599 51.4171 85.5749 49.472 84.4251C45.9249 82.2406 42.3778 80.0561 38.8307 77.9866C36.8856 76.8369 36.4279 75.4572 37.5721 73.5027C41.6913 66.6043 45.696 59.7059 50.0441 52.9225C53.019 48.4385 57.8248 46.5989 62.6305 45.3342C79.7938 40.8503 96.8426 40.1604 113.319 47.7487C116.294 49.1283 119.041 51.6578 120.871 54.4171C124.876 60.3957 128.309 66.8342 132.085 72.9278C133.572 75.2273 133.343 76.7219 130.94 78.1016C127.508 80.0561 124.189 82.1257 120.757 84.3102C118.583 85.6898 116.981 85.3449 115.722 83.0455C114.807 81.3209 113.548 79.5963 112.518 77.8717C112.404 77.9866 112.175 78.1016 111.946 78.2166ZM74.7592 46.8289C76.3611 52.0027 80.5947 54.5321 86.3158 54.0722C90.8927 53.7273 94.5542 50.738 95.2407 46.8289C88.4899 46.8289 81.739 46.8289 74.7592 46.8289Z" fill="#76FF03"/>
</g>
<defs>
<clipPath id="clip0">
<rect width="96" height="86" fill="white" transform="translate(37 42)"/>
</clipPath>
</defs>
</svg>
