<svg width="170" height="170" viewBox="0 0 170 170" fill="none" xmlns="http://www.w3.org/2000/svg">
<circle cx="85.5" cy="87.5" r="75.5" fill="#E6F9F3"/>
<g clip-path="url(#clip0)">
<path d="M79.2 56.5C76 53.4 72.9 50.3 69.7 47.1C69.1 46.5 68.2 46 67.9 45.2C67.6 44.2 67.8 42.9 67.8 41.8C68.9 41.9 70.3 41.7 70.9 42.3C74.9 46 78.8 49.8 82.5 53.8C84.5 56 85.8 55.7 87.8 53.7C94.4 46.8 101.2 40.1 108 33.3C108.3 33 108.6 32.5 108.9 32.4C110 32.2 111.2 32.1 112.4 32C112.2 33.2 112.5 34.7 111.9 35.4C108.5 39.1 104.9 42.6 101.3 46.1C97.9 49.5 94.4 52.9 90.9 56.4C91 56.7 91.1 57 91.3 57.3C92.3 57.3 93.4 57.3 94.4 57.3C103.9 57.4 113.4 57.4 122.8 57.5C130.1 57.6 134.9 62.2 135 69.5C135.1 84.5 135 99.6 135 114.6C135 122.3 129.9 127.3 122 127.4C110 127.5 98 127.4 86 127.4C73.9 127.4 61.8 127.4 49.7 127.4C39.7 127.3 35 122.7 35 112.8C35 99.1 35 85.4 35 71.6C35 61.7 39.4 57.3 49.4 57.2C59.2 57.1 69 57.2 78.8 57.2C78.9 57 79 56.7 79.2 56.5ZM76.1 119.2C82.3 118.9 88.6 118.7 94.9 118.2C102.8 117.7 106.3 114.3 107.7 106.5C109.3 97.7 109.2 89 108.2 80.2C107 70.5 104.5 67 94.9 66.4C82 65.6 69 65.8 56.2 66.5C48.4 66.9 45.6 70.3 44.3 78C42.7 87.5 42.8 97.1 44.3 106.6C45.5 114.1 49.4 117.6 57 118.2C63.4 118.7 69.7 118.9 76.1 119.2ZM125.1 102C125.1 101.5 125.1 101 125.1 100.5C123.7 99.5 122.4 97.8 120.9 97.6C118.9 97.3 117.2 98.7 117.2 101.1C117.1 103.6 118.5 105.3 120.9 104.9C122.4 104.5 123.7 102.9 125.1 102ZM121.6 79C121.1 79 120.6 79 120.1 79C119.1 80.4 117.4 81.7 117.2 83.2C116.9 85.4 118.6 87 121 86.9C123.2 86.8 124.9 85.4 124.4 83.2C124.1 81.6 122.6 80.4 121.6 79Z" fill="#76FF03"/>
</g>
<defs>
<clipPath id="clip0">
<rect width="100" height="95.3" fill="white" transform="translate(35 32)"/>
</clipPath>
</defs>
</svg>
