<?xml version="1.0" encoding="utf-8"?>
<!-- Generator: Adobe Illustrator 25.2.3, SVG Export Plug-In . SVG Version: 6.00 Build 0)  -->
<svg version="1.1" id="Capa_1" xmlns="http://www.w3.org/2000/svg" xmlns:xlink="http://www.w3.org/1999/xlink" x="0px" y="0px"
	 viewBox="0 0 56 56" style="enable-background:new 0 0 56 56;" xml:space="preserve">
<style type="text/css">
	.st0{fill:none;stroke:#000000;stroke-width:0.5;stroke-miterlimit:10;}
	.st1{stroke:#000000;stroke-width:0.5;stroke-miterlimit:10;}
</style>
<g>
	<path class="st0" d="M24.6,42.2c0.6,0,0.8-0.2,0.8-0.8c0-5.4,0-10.8,0-16.4c0-0.6-0.2-0.8-0.8-0.8c-1.4,0-2.7,0-4,0
		c-0.7,0-0.9,0.3-0.9,0.9c0,2.8,0,5.4,0,8c0,2.7,0,5.4,0,8.1c0,0.7,0.2,0.9,0.9,0.9C21.9,42.1,23.2,42.2,24.6,42.2z"/>
	<path class="st0" d="M16.2,42.3c1.7,0.1,1.7,0.1,1.7-1.6c0-5.1,0-10.2,0-15.2c0-0.8-0.3-1.1-1-0.9c-0.2,0-0.4,0-0.7,0
		c-1-0.3-1.3,0.1-1.3,1.1c0.1,5.2,0.1,10.3,0,15.5C14.9,42.2,15.3,42.5,16.2,42.3z"/>
	<path class="st0" d="M36.5,42.2c0.7,0,0.9-0.2,0.9-0.9c0-2.7,0-5.3,0-8s0-5.3,0-8c0-0.7-0.1-0.9-0.9-0.9c-1.4,0.1-2.7,0-4,0
		c-0.6,0-0.8,0.2-0.8,0.8c0,5.4,0,10.8,0,16.3c0,0.7,0.3,0.8,0.9,0.8C33.8,42.2,35.2,42.1,36.5,42.2z"/>
	<path class="st0" d="M28.2,42.2c1.9,0.2,1.9,0.2,1.9-1.8c0-4.8,0-9.6,0-14.5c0-1.7,0-1.7-1.7-1.5c-0.1,0-0.2,0-0.2,0.1
		c-0.8-0.3-1.1,0-1.1,0.9c0,5.2,0,10.6,0,15.8C27.1,42.1,27.3,42.4,28.2,42.2z"/>
	<path class="st0" d="M15.9,44c-1.1,0-2.8-0.5-3.4,0.3c-0.6,0.7-0.2,2.2-0.2,3.4v0.1c-0.1,0.5,0.2,0.7,0.7,0.7c1,0,2.1,0,3,0l0-0.3
		h14.7l0,0.3c4.4,0,8.8,0,13.2,0c0.8,0,1.1-0.2,1-0.9c-0.1-0.8-0.1-1.5,0-2.2c0.1-1-0.3-1.2-1.2-1.2C34.5,44,25.2,44,15.9,44z"/>
	<path class="st0" d="M29.3,8.5c-0.6-0.3-1-0.2-1.5,0.1c-5.2,3-10.3,6.1-15.5,9.1c-0.3,0.2-0.6,0.3-0.8,0.6
		c11.5,0.1,22.8,0.1,34.4,0.1c-0.3-0.3-0.5-0.3-0.6-0.4C40,14.7,34.6,11.6,29.3,8.5z M28.7,16.7c-1.7,0-3-1.3-3-3c0-1.7,1.3-3,3-3
		s3,1.3,3,3C31.7,15.4,30.3,16.7,28.7,16.7z"/>
	<path class="st0" d="M43.7,20.1c-10.1,0-20.1,0-30.1,0c-1,0-1.5,0.3-1.2,1.3c0,0.3,0,0.8,0,1.1c0,0.2,0.1,0.2,0.3,0.2
		c10.4,0,20.7,0,31.2,0.1c1.1,0,1.4-0.3,1.1-1.4C45.2,20.3,44.8,20.1,43.7,20.1z M12.4,22.5c0.1,0.1,0.2,0.1,0.3,0.2
		C12.4,22.7,12.3,22.7,12.4,22.5z"/>
	<path class="st1" d="M49.7,18.4c-0.2-0.2-0.4-0.3-0.6-0.3c-6.5-3.8-13-7.6-19.4-11.4c-0.8-0.4-1.4-0.3-2.1,0.1
		c-6.2,3.7-12.5,7.3-18.7,11c-0.3,0.3-0.8,0.4-1.1,0.7c-0.4,0.3-0.7,0.5-0.5,1c0.2,0.4,0.5,0.5,0.9,0.6c0.9,0.1,1.9-0.4,2.3,0.3
		c0.3,0.6,0.1,1.5,0.1,2.4c0,1.5,0.2,1.7,1.7,1.8c0.9-0.1,1,0.3,1,1.1c-0.1,5.2-0.1,10.2,0,15.4c0,1-0.3,1.5-1.4,1.3
		c-0.9-0.2-1.4,0.3-1.4,1.3c0,1.7,0,3.5,0,5.2c0,0.9,0.3,1.2,1.2,1.2c1.5,0,3,0,4.5,0L31,50.2c4.8,0,9.6,0,14.4,0
		c1.3,0,1.5-0.2,1.5-1.5c0-1.5,0-3.1,0-4.6c0-1.7-0.1-1.8-1.7-1.7c-0.9,0.1-1.1-0.3-1.1-1.1c0-3.1,0-6.2,0-9.4l-0.1-5.5
		c0-0.4,0.2-1.9,0.8-1.9c2,0,2,0,2-2c0-2.2,0-2.2,2.2-2.4c0.2,0,0.3,0,0.4,0c0.4-0.1,0.7-0.3,0.8-0.6S50,18.7,49.7,18.4z M45,45.2
		c-0.1,0.7-0.1,1.5,0,2.2c0.1,0.8-0.3,0.9-1,0.9c-4.4,0-27.9,0-27.9,0c-1,0-2,0-3,0c-0.5,0-0.8-0.2-0.7-0.7v-0.1
		c0-1.1-0.4-2.7,0.2-3.4c0.6-0.8,2.2-0.3,3.4-0.3c9.3,0,18.6,0,27.9,0C44.8,44,45.1,44.2,45,45.2z M14.9,25.6c0-1,0.3-1.5,1.3-1.1
		c0.3,0,0.5,0,0.7,0c0.8-0.2,1,0.2,1,0.9c0,5.1,0,10.2,0,15.2c0,1.7,0,1.7-1.7,1.6c-0.9,0.3-1.3-0.1-1.3-1.2
		C15,35.9,15,30.7,14.9,25.6z M19.7,41.3c0-2.7,0-5.4,0-8.1c0-2.6,0-5.2,0-8c0-0.7,0.2-0.9,0.9-0.9c1.4,0,2.7,0,4,0
		c0.6,0,0.8,0.2,0.8,0.8c0,5.5,0,10.9,0,16.4c0,0.6-0.2,0.8-0.8,0.8c-1.4,0-2.7-0.1-4,0C19.8,42.3,19.7,42,19.7,41.3z M27.1,41.2
		c0-5.2,0-10.6,0-15.8c0-0.9,0.3-1.1,1.1-0.9c0-0.1,0.1-0.1,0.2-0.1c1.7-0.2,1.7-0.2,1.7,1.5c0,4.8,0,9.6,0,14.5c0,2,0,2-1.9,1.8
		C27.3,42.4,27.1,42.1,27.1,41.2z M31.7,41.4c0-5.4,0-10.8,0-16.3c0-0.6,0.2-0.8,0.8-0.8c1.4,0,2.7,0.1,4,0c0.8,0,0.9,0.3,0.9,0.9
		c0,2.7,0,5.3,0,8s0,5.3,0,8c0,0.7-0.2,0.9-0.9,0.9c-1.3-0.1-2.7,0-4,0C32,42.2,31.7,42.1,31.7,41.4z M39.3,25.5
		c0-0.9,0.3-1.2,1.1-0.9h0.1c1.7-0.2,1.6-0.2,1.7,1.5l0.1,5.7c0,2.9,0,5.9,0,8.8c0,1.7,0,1.7-1.8,1.6c-0.9,0.2-1.2,0.1-1.2-0.9
		C39.4,36.1,39.3,30.7,39.3,25.5z M43.7,22.7c-10.4-0.1-20.7-0.1-31.2-0.1c-0.2,0-0.3,0-0.3-0.2c0-0.3,0-0.8,0-1.1
		c-0.3-1,0.2-1.3,1.2-1.3c10,0,20.1,0,30.1,0c1.1,0,1.5,0.3,1.2,1.3C45.1,22.4,44.9,22.7,43.7,22.7z M11.5,18.3
		c0.2-0.3,0.5-0.4,0.8-0.6c5.2-3,10.3-6.1,15.5-9.1c0.5-0.3,0.9-0.4,1.5-0.1c5.3,3.2,10.7,6.3,16,9.5c0.1,0.1,0.3,0.2,0.6,0.4
		C34.3,18.4,23,18.4,11.5,18.3z"/>
	<path class="st1" d="M12.7,22.7c-0.1-0.1-0.2-0.1-0.3-0.2C12.3,22.7,12.4,22.7,12.7,22.7z"/>
	<path class="st1" d="M28.7,10.8c-1.7,0-3,1.3-3,3c0,1.7,1.3,3,3,3s3-1.3,3-3C31.7,12.1,30.3,10.8,28.7,10.8z"/>
</g>
</svg>
