<?xml version="1.0" encoding="utf-8"?>
<!-- Generator: Adobe Illustrator 25.2.3, SVG Export Plug-In . SVG Version: 6.00 Build 0)  -->
<svg version="1.1" id="Capa_1" xmlns="http://www.w3.org/2000/svg" xmlns:xlink="http://www.w3.org/1999/xlink" x="0px" y="0px"
	 viewBox="0 0 56 56" style="enable-background:new 0 0 56 56;" xml:space="preserve">
<path d="M23.4,32.2c-0.6-1.1-1.3-2.1-2.1-3c-4.6-5-4.1-10.9-2.8-16.7c1.3-4.6,5.8-7.5,10.5-6.9c4.7,0.6,8.4,4.4,8.9,9.2
	c0.6,6.4,0,12.4-6.1,17.1c2.1,1.2,3.3,2,4.7,2.6L49,40.5c2.8,1.3,4.4,3.7,3.1,6.5c-1.2,1.9-3.2,3.1-5.4,3.4c-12.5,0.3-25,0-37.5,0
	c-2.8,0-5.1-0.7-5.7-3.7c-0.6-2.8,1-5.6,3.7-6.4l12.3-5.9C20.8,33.8,22,33.1,23.4,32.2z M27.6,48.4c6,0,12.1,0,18.1,0
	c1.6-0.4,3.1-1,4.5-1.9c-1-1.5-1.7-3.5-3.2-4.3c-4.4-2.5-9.1-4.5-13.6-6.8c-3.5-1.7-4.1-3.7-1.3-6.6c4.2-4.1,4.1-9,3.7-14.1
	c-0.5-4.3-4.4-7.4-8.8-6.9c-3.6,0.4-6.5,3.3-6.9,6.9c-0.6,5.1-0.7,10,3.4,14.2c3,3,2.4,4.9-1.4,6.8c-4.7,2.1-9.6,4.1-14,6.7
	c-1.3,0.7-1.7,2.8-2.6,4.2c1.3,0.6,2.5,1.7,3.7,1.7C15.5,48.5,21.6,48.4,27.6,48.4z"/>
</svg>
