<?xml version="1.0" encoding="utf-8"?>
<!-- Generator: Adobe Illustrator 25.2.3, SVG Export Plug-In . SVG Version: 6.00 Build 0)  -->
<svg version="1.1" id="Capa_1" xmlns="http://www.w3.org/2000/svg" xmlns:xlink="http://www.w3.org/1999/xlink" x="0px" y="0px"
	 viewBox="0 0 56 56" style="enable-background:new 0 0 56 56;" xml:space="preserve">
<style type="text/css">
	.st0{fill:none;}
	.st1{fill:#E02F2F;}
	.st2{fill:#FFFFFF;}
	.st3{font-family:'MyriadPro-Regular';}
	.st4{font-size:13.1707px;}
</style>
<path d="M24.8,16.4h14.6c4.5,0,6.4,2,6.5,6.4c0,6.7,0,13.4,0,20.1c0,4.2-1.8,6.2-5.9,6.3c-10,0-20,0-30,0c-4.5,0-6.1-2.1-6.2-6.4
	c0-6.7,0-13.4,0-20.1c-0.4-3,1.7-5.8,4.7-6.3c0.5-0.1,1.1-0.1,1.6,0C15.2,16.3,20.3,16.4,24.8,16.4z M20.3,32.9L20.3,32.9
	c0,1.7,0,3.4,0,5.1c0,1.7,1.1,2.7,2.9,1.7c2.8-1.7,5.6-3.4,8.3-5.2c1.5-1,1.7-2.3,0-3.3c-2.8-1.9-5.7-3.7-8.6-5.4
	c-1.5-0.8-2.7-0.3-2.8,1.7S20.3,31.1,20.3,32.9z"/>
<line class="st0" x1="22.2" y1="20.9" x2="13" y2="9.6"/>
<path d="M24.1,18.9L16.2,9l-1.1-1.4c-0.5-0.5-1.3-0.8-2-0.8c-0.7,0-1.4,0.3-2,0.8c-0.5,0.5-0.8,1.2-0.8,2c0,0.7,0.3,1.4,0.8,2
	l7.9,10l1.3,1.4c0.5,0.5,1.2,0.8,2,0.8c0.7,0,1.4-0.3,2-0.8c0.4-0.6,0.6-1.3,0.5-2c0-0.7-0.3-1.4-0.8-2H24.1z"/>
<circle class="st1" cx="41.3" cy="17.7" r="10.9"/>
<text transform="matrix(1 0 0 1 38.0047 21.2608)" class="st2 st3 st4">2</text>
</svg>
