<svg id="Capa_1" data-name="Capa 1" xmlns="http://www.w3.org/2000/svg" viewBox="0 0 15 15"><defs><style>.cls-1{fill:#030303;}</style></defs><path class="cls-1" d="M13.05,3.61A7.16,7.16,0,0,0,7.86,1.3a8.31,8.31,0,0,0-4.2,1c-3.24,1.9-4,5.76-1.59,8.38a2.11,2.11,0,0,1,.76,2.17c-.23.91.29,1,1,.6a4.44,4.44,0,0,1,3-.48,7,7,0,0,0,6.38-2.47A5.13,5.13,0,0,0,13.05,3.61ZM11.54,11a6.57,6.57,0,0,1-4.35,1.23c-1.13-.09-2.27-.61-3.4.31.29-1-.21-1.5-.8-2.06C.71,8.3,1.09,5,3.78,3.23a7,7,0,0,1,7.75.14A4.5,4.5,0,0,1,11.54,11Z"/></svg>