<svg id="Capa_1" data-name="Capa 1" xmlns="http://www.w3.org/2000/svg" viewBox="0 0 15 15"><defs><style>.cls-1{fill:#e02f2f;}.cls-2{fill:#fff;}</style></defs><path class="cls-1" d="M14.36,4.91a2.74,2.74,0,0,1-2.75,2.74A2.69,2.69,0,0,1,8.88,4.91,2.72,2.72,0,0,1,11.6,2.19,2.77,2.77,0,0,1,14.36,4.91Zm-2.92,1,.2-.28a10.78,10.78,0,0,0,.72-.95.7.7,0,0,0-.34-1,.92.92,0,0,0-1.22.46c0,.09,0,.2.06.3a1.77,1.77,0,0,0,.33-.08c.05,0,.05-.14.09-.16a1.33,1.33,0,0,1,.5-.13c.07,0,.18.23.18.35a.89.89,0,0,1-.19.46c-.26.33-.56.64-.83,1-.06.08-.13.24-.1.29a.44.44,0,0,0,.31.15c.37,0,.74,0,1.12,0,.09,0,.18-.11.27-.17-.09-.06-.17-.15-.26-.15A7.53,7.53,0,0,0,11.44,5.88Z"/><path d="M9.19,8.79a4.2,4.2,0,0,1-3.14,3.85,4.39,4.39,0,0,1-2.82-.18.91.91,0,0,0-.85,0,6.86,6.86,0,0,1-.69.3c-.11,0-.3.06-.36,0a.45.45,0,0,1-.08-.37c0-.29.14-.58.18-.88A1.3,1.3,0,0,0,1.34,11c-.18-.48-.44-.92-.58-1.41A4,4,0,0,1,3.35,5.05,4.26,4.26,0,0,1,8.83,7.36,8.31,8.31,0,0,1,9.19,8.79ZM1.71,12.32a3.59,3.59,0,0,0,.51-.19,1.21,1.21,0,0,1,1.14,0,3.76,3.76,0,0,0,3.18,0,3.57,3.57,0,0,0,2-4.4A4,4,0,0,0,4,5.25a3.57,3.57,0,0,0-2.29,5.52.81.81,0,0,1,.13.83A3.77,3.77,0,0,0,1.71,12.32Z"/><path class="cls-2" d="M11.44,5.88a7.53,7.53,0,0,1,.84,0c.09,0,.17.09.26.15-.09.06-.18.16-.27.17-.38,0-.75,0-1.12,0a.44.44,0,0,1-.31-.15c0-.05,0-.21.1-.29.27-.32.57-.63.83-1A.89.89,0,0,0,12,4.36c0-.12-.11-.34-.18-.35a1.33,1.33,0,0,0-.5.13s0,.14-.09.16a1.77,1.77,0,0,1-.33.08c0-.1-.08-.21-.06-.3A.92.92,0,0,1,12,3.62a.7.7,0,0,1,.34,1,10.78,10.78,0,0,1-.72.95Z"/><path d="M6.9,8.81c-.12.09-.25.25-.36.24s-.24-.18-.36-.28c.11-.11.2-.28.33-.3s.25.12.38.19Z"/><path d="M3.81,8.74c-.24.16-.37.32-.5.31S3.1,8.85,3,8.74c.1-.1.2-.28.31-.28S3.57,8.6,3.81,8.74Z"/><path d="M4.93,8.3c.13.22.29.36.26.45a.46.46,0,0,1-.31.3c-.09,0-.29-.19-.29-.3S4.76,8.51,4.93,8.3Z"/></svg>