<svg xmlns="http://www.w3.org/2000/svg" xmlns:xlink="http://www.w3.org/1999/xlink" viewBox="0 0 621.97 627.79"><defs><style>.cls-1{fill:url(#Degradado_sin_nombre_28);}.cls-2,.cls-3,.cls-4,.cls-5,.cls-6,.cls-7{fill:#fff;}.cls-2{opacity:0.4;}.cls-3{opacity:0.16;}.cls-4{opacity:0.3;}.cls-6{opacity:0.2;}.cls-7{opacity:0.1;}.cls-8{fill:url(#未命名的渐变_96);}.cls-9{fill:url(#未命名的渐变_200);}</style><linearGradient id="Degradado_sin_nombre_28" x1="69.9" y1="303.32" x2="581.9" y2="303.32" gradientUnits="userSpaceOnUse"><stop offset="0" stop-color="#ffeb4a"/><stop offset="0.19" stop-color="#ffc34b"/><stop offset="1" stop-color="#ff554c"/></linearGradient><linearGradient id="未命名的渐变_96" x1="231.7" y1="511.74" x2="422.64" y2="511.74" gradientUnits="userSpaceOnUse"><stop offset="0" stop-color="#ffcf3f"/><stop offset="1" stop-color="#ff558d"/></linearGradient><linearGradient id="未命名的渐变_200" x1="168.3" y1="302.29" x2="480.85" y2="302.29" gradientUnits="userSpaceOnUse"><stop offset="0.4" stop-color="#fff"/><stop offset="1" stop-color="#ffa68d"/></linearGradient></defs><g id="图标"><circle class="cls-1" cx="325.9" cy="303.32" r="256"/><path class="cls-2" d="M425,103.09c0,13.5-43.79-9.78-97.81-9.78s-97.82,23.28-97.82,9.78,42.28-44,96.3-44S425,89.58,425,103.09Z"/><path class="cls-3" d="M107,228.71s-14.12,66.37,34.73,161.2c24.73,48,62,64.16,45.58,83.12-13,15-45.95-16.63-70.68-64.65C71.52,320.84,107,228.71,107,228.71Z"/><path class="cls-4" d="M203.86,127.78a8.62,8.62,0,1,1-8.62-8.62A8.61,8.61,0,0,1,203.86,127.78Z"/><circle class="cls-5" cx="147.44" cy="188.09" r="18.46"/><path class="cls-6" d="M288.83,463.52C382,506.78,472.2,485.28,542.46,439.88,497.12,511.63,417.18,559.32,326,559.32c-94.73,0-177.35-51.5-221.62-128C157.67,426.28,219.14,431.13,288.83,463.52Z"/><path class="cls-7" d="M348.47,410.37c-90.41-58.66-188.3-42.83-264.1-21,35.35,99,129.86,169.91,241,169.91,94.1,0,176.29-50.82,220.76-126.48C481.5,451.26,410.21,450.43,348.47,410.37Z"/><path class="cls-7" d="M303.64,375.24c-71.4,35.34-143.19,43.52-209.91,34.09,40.31,88.46,129.44,150,233,150,130,0,237.22-96.86,253.73-222.31C500,323.13,405.32,324.91,303.64,375.24Z"/><path class="cls-8" d="M422.64,511.74c0,6.48-42.75,11.74-95.47,11.74s-95.47-5.26-95.47-11.74S274.44,500,327.17,500,422.64,505.26,422.64,511.74Z"/><path class="cls-9" d="M324.57,148.63A156.27,156.27,0,0,0,168.3,304.9h0a154.13,154.13,0,0,0,4.38,35.84,104.11,104.11,0,0,1,27.5-47.3,125,125,0,0,1,248.89,0,104.11,104.11,0,0,1,27.5,47.3,154,154,0,0,0,4.28-35.84A156.27,156.27,0,0,0,324.57,148.63ZM252.79,299.69h-5.52c-29.69,0-53.65,35-53.65,78.13S217.68,456,247.27,456h5.52a20.84,20.84,0,0,0,19.72-21.9l0-.4V322.09a20.84,20.84,0,0,0-19.18-22.37Zm149.09,0h-5.53a20.83,20.83,0,0,0-19.72,21.89l0,.51V433.66A20.84,20.84,0,0,0,396,455.93l.39,0h5.53c29.69,0,53.65-35,53.65-78.14S431.46,299.69,401.88,299.69Z"/></g></svg>