<svg xmlns="http://www.w3.org/2000/svg" xmlns:xlink="http://www.w3.org/1999/xlink" viewBox="0 0 512 512"><defs><style>.cls-1,.cls-3,.cls-4,.cls-5,.cls-6,.cls-7{fill:#fff;}.cls-2{fill:url(#未命名的渐变_63);}.cls-3{opacity:0.4;}.cls-4{opacity:0.16;}.cls-5{opacity:0.3;}.cls-6{opacity:0.2;}.cls-7{opacity:0.1;}.cls-8{fill:url(#未命名的渐变_63-2);}</style><linearGradient id="未命名的渐变_63" y1="256" x2="512" y2="256" gradientUnits="userSpaceOnUse"><stop offset="0" stop-color="#4eb2e9"/><stop offset="1" stop-color="#3b44ff"/></linearGradient><linearGradient id="未命名的渐变_63-2" x1="161.8" y1="464.42" x2="352.74" y2="464.42" xlink:href="#未命名的渐变_63"/></defs><g id="背景"><rect class="cls-1" x="-945" y="-8803.59" width="3704" height="16186.59"/></g><g id="图标"><circle class="cls-2" cx="256" cy="256" r="256"/><path class="cls-3" d="M355.09,55.77c0,13.51-43.8-9.78-97.82-9.78s-97.81,23.29-97.81,9.78,42.27-44,96.3-44S355.09,42.27,355.09,55.77Z"/><path class="cls-4" d="M37.09,181.39S23,247.77,71.81,342.59c24.74,48,62,64.16,45.59,83.13-13,15-45.95-16.63-70.69-64.66C1.62,273.53,37.09,181.39,37.09,181.39Z"/><circle class="cls-5" cx="125.35" cy="80.46" r="8.62"/><circle class="cls-1" cx="77.55" cy="140.77" r="18.46"/><path class="cls-6" d="M218.94,416.2c93.12,43.27,183.37,21.76,253.62-23.64C427.23,464.31,347.29,512,256.13,512c-94.72,0-177.35-51.5-221.62-128C87.78,379,149.25,383.82,218.94,416.2Z"/><path class="cls-7" d="M278.58,363.06c-90.41-58.67-188.3-42.84-264.11-21,35.36,99,129.86,169.9,241,169.9,94.11,0,176.29-50.82,220.76-126.48C411.6,404,340.31,403.12,278.58,363.06Z"/><path class="cls-7" d="M233.75,327.92C162.34,363.26,90.55,371.45,23.83,362c40.32,88.46,129.45,150,233,150,130,0,237.21-96.85,253.72-222.3C430.11,275.82,335.43,277.59,233.75,327.92Z"/><ellipse class="cls-8" cx="257.27" cy="464.42" rx="95.47" ry="11.74"/><path class="cls-1" d="M282.75,309.65c-19.85,0-39.71.13-59.56-.1-4-.05-4.91,1.15-4.73,4.91.31,6.65.16,13.33.07,20-.11,7.59-4.37,12.44-11.95,12.63q-18.6.46-37.22,0c-7.44-.2-11.75-4.83-11.77-12.26q-.17-44.2,0-88.4c0-4.78,3.26-8.59,4.86-12.91.32-.87.84-1.66,1.13-2.54.85-2.63,3.73-5.37,2.7-7.58s-4.74-.53-7.24-.92c-7.64-1.21-15.91-13.85-14-21.19.59-2.21,2.15-1.38,3.33-1.37,8.07.1,16.14.17,24.19.54,3.2.15,4.87-.67,6.21-3.86,5.63-13.39,11.65-26.61,17.52-39.89A34.5,34.5,0,0,1,228.59,136c36.6.49,73.21.68,109.81-.11,15-.32,24.18,8.25,30.42,19.91,7,13.05,12.36,27,18.11,40.62,1.41,3.34,3.13,4.23,6.54,4.05,7.9-.42,15.82-.28,23.72-.65,2.95-.14,3.64.76,3.57,3.6-.24,10.78-7.83,18.89-18.48,19-3.56,0-3.66,1.25-2.14,3.73,7.76,12.69,8.66,26.59,8.28,41.06-.57,21.85-.14,43.73-.16,65.6,0,10.06-4.33,14.35-14.48,14.39-10.85,0-21.71.06-32.57,0-9.57-.06-13.91-4.46-13.94-13.95,0-6.52-.19-13,.07-19.54.13-3.26-.82-4.14-4.09-4.11C323.08,309.73,302.92,309.65,282.75,309.65Zm-90.49-99c59.94,0,119,0,178.12.06,4.34,0,2.65-2,1.76-3.84-6.59-13.8-13-27.7-19.92-41.34-3.14-6.2-8.22-10.16-15.87-10.14q-53.5.16-107,0a15.5,15.5,0,0,0-10.61,3.85,23,23,0,0,0-6.09,8C206.07,181.59,199.29,195.78,192.26,210.69Zm90.66,70.41c9.76,0,19.52,0,29.27,0,6.44,0,10.66-3.68,10.62-9.1s-4.13-9.14-10.56-9.16q-29.28-.07-58.55,0c-6.67,0-10.18,3.37-10,9.35s3.44,8.89,10,8.91C263.4,281.12,273.16,281.1,282.92,281.1Zm107.27-15.89c.1-10.36-7.64-18.16-18.08-18.22-9.95-.06-18.06,7.6-18.2,17.18-.16,10.39,7.65,18.47,17.87,18.49S390.1,275.1,390.19,265.21ZM194,247c-10.36-.08-18.47,7.53-18.47,17.32,0,10.59,7.49,18.23,17.95,18.35,10.1.11,18.4-7.84,18.34-17.57A17.81,17.81,0,0,0,194,247Z"/></g></svg>