<svg xmlns="http://www.w3.org/2000/svg" xmlns:xlink="http://www.w3.org/1999/xlink" viewBox="0 0 512 512"><defs><style>.cls-1,.cls-3,.cls-4,.cls-5,.cls-6,.cls-7{fill:#fff;}.cls-2{fill:url(#Degradado_sin_nombre_58);}.cls-3{opacity:0.4;}.cls-4{opacity:0.16;}.cls-5{opacity:0.3;}.cls-6{opacity:0.2;}.cls-7{opacity:0.1;}.cls-8{fill:url(#Degradado_sin_nombre_60);}</style><linearGradient id="Degradado_sin_nombre_58" y1="256" x2="512" y2="256" gradientUnits="userSpaceOnUse"><stop offset="0" stop-color="#ff7d87"/><stop offset="1" stop-color="#ff8391"/></linearGradient><linearGradient id="Degradado_sin_nombre_60" x1="161.8" y1="464.42" x2="352.74" y2="464.42" xlink:href="#Degradado_sin_nombre_58"/></defs><g id="背景"><rect class="cls-1" x="-283" y="-859.59" width="3704" height="16186.59"/></g><g id="图标"><circle class="cls-2" cx="256" cy="256" r="256"/><path class="cls-3" d="M355.09,55.77c0,13.51-43.8-9.78-97.82-9.78s-97.81,23.29-97.81,9.78,42.27-44,96.3-44S355.09,42.27,355.09,55.77Z"/><path class="cls-4" d="M37.09,181.39S23,247.77,71.81,342.59c24.74,48,62,64.16,45.59,83.13-13,15-45.95-16.63-70.69-64.66C1.62,273.53,37.09,181.39,37.09,181.39Z"/><path class="cls-5" d="M134,80.46a8.62,8.62,0,1,1-8.61-8.61A8.62,8.62,0,0,1,134,80.46Z"/><path class="cls-1" d="M96,140.77a18.46,18.46,0,1,1-18.46-18.46A18.46,18.46,0,0,1,96,140.77Z"/><path class="cls-6" d="M218.94,416.2c93.12,43.27,183.37,21.76,253.62-23.64C427.23,464.31,347.29,512,256.13,512c-94.72,0-177.35-51.5-221.62-128C87.78,379,149.25,383.82,218.94,416.2Z"/><path class="cls-7" d="M278.58,363.06c-90.41-58.67-188.3-42.84-264.11-21,35.36,99,129.86,169.9,241,169.9,94.11,0,176.29-50.82,220.76-126.48C411.6,404,340.31,403.12,278.58,363.06Z"/><path class="cls-7" d="M233.74,327.92C162.34,363.26,90.55,371.45,23.83,362c40.32,88.46,129.45,150,233,150,130,0,237.21-96.85,253.72-222.3C430.11,275.82,335.43,277.59,233.74,327.92Z"/><path class="cls-8" d="M352.74,464.42c0,6.49-42.74,11.74-95.47,11.74s-95.47-5.25-95.47-11.74,42.75-11.73,95.47-11.73S352.74,457.94,352.74,464.42Z"/><path class="cls-1" d="M243.58,223.71c0-7,0-13.3,0-19.64,0-11.64.47-12.06,12.13-12.25,1.53,0,3.06-.15,4.55-.22,4.46-18.49-3.94-38.41-20-47.57-3.56-2-7.11-4.1-10.73-6-20.18-10.82-25-29.4-24.91-50.16,0-2.08,3.39-4.16,5.2-6.23,1.8,2.05,4.47,3.84,5.2,6.22,1.12,3.6.88,7.61,1.22,11.45,1.25,14.26,8.14,25,21.25,30.67,24.25,10.47,34.52,29.34,34.72,54.83,0,2,.27,4,.49,7.06,3.08,0,5.8,0,8.52,0,9.95.08,10.8,1,10.86,11.19,0,6.16.09,12.33.19,18.49,0,.45.37.89,1,2.19,12.39,0,25.17-.2,37.95,0,17.43.35,35.21-.95,52.22,2,39.7,6.91,67,41.17,68.32,82.73,1.21,37.41-26,73.44-63.1,83.44-38.72,10.43-78.93-6.52-97.69-41.71-2.65-5-5.49-6.85-10.67-6.18a29.06,29.06,0,0,1-3.85,0c-8.48,0-18.13-2.5-25.1.75-6.57,3.05-10.05,12.41-15.38,18.57-22.82,26.4-51.7,37.08-85.65,29.08-35.18-8.29-57.76-31.31-64.63-66.82-10.5-54.23,29.16-101.29,84.44-101.9,21.33-.24,42.66,0,64,0Zm24.13,10.93v0c-33.66,0-67.33-.59-101,.15-47.09,1-81.05,46.33-69.8,92.08,7.8,31.71,33.48,53.53,67,56.88,30.26,3,60.32-14.41,73.43-43.23,2.56-5.63,5.65-7.62,11.62-7.43,12.32.38,24.67.45,37,0,6.62-.26,9.85,2,12.68,8.17,23,50,92.12,57.92,125.86,14.29,18.38-23.77,21.76-50.31,9.12-77.55-12.76-27.49-35.12-42.6-65.7-43.21C334.52,234.13,301.11,234.64,267.71,234.64ZM255,223.06h25.54V203.2H255Z"/><path class="cls-1" d="M161,319.52v-19c0-5.1,2.15-8.71,7.58-8.6s7.44,3.73,7.37,8.85c-.07,5.85,0,11.7,0,18.73,6.56,0,12.36,0,18.16,0,5.23,0,9.54,1.53,9.39,7.56s-4.39,7.49-9.63,7.42c-5.6-.08-11.2,0-17.91,0,0,6.46,0,12.27,0,18.07,0,5.26-1.63,9.44-7.58,9.43S161,357.53,161,352.4c0-5.61,0-11.22,0-17.93-6.58,0-12.39,0-18.2,0-5.31.05-9.42-1.76-9.35-7.67s4.44-7.4,9.64-7.32C148.71,319.59,154.3,319.52,161,319.52Z"/><path class="cls-1" d="M369.27,298.08c-.12,12.87-11.12,23.62-23.77,23.24a23.58,23.58,0,0,1-23-24c.28-12.46,11-23,23.4-22.95A23.73,23.73,0,0,1,369.27,298.08Zm-10.12.13a13.36,13.36,0,0,0-13-13.37,13.1,13.1,0,0,0-.61,26.2A13.49,13.49,0,0,0,359.15,298.21Z"/><path class="cls-1" d="M378.13,374.11c-12.76-.05-23.56-11-23.4-23.7a23.65,23.65,0,0,1,23.94-23.09,23.4,23.4,0,0,1-.54,46.79Zm.15-36.67a13.09,13.09,0,0,0-13.06,13.19,12.7,12.7,0,0,0,13,13.1,13.14,13.14,0,0,0,13.28-13C391.48,343.69,385.25,337.41,378.28,337.44Z"/></g></svg>