<svg xmlns="http://www.w3.org/2000/svg" viewBox="0 0 512 512"><defs><style>.cls-1{fill:#fff;}</style></defs><g id="背景"><rect class="cls-1" x="-283" y="-4169.59" width="3704" height="16186.59"/></g><g id="图标"><path d="M436.47,186l-9.67,12Zm-356,12L251.31,62,232.09,37.89l-170.82,136ZM257.73,62.05,426.8,198l19.33-24.05L277.06,38ZM430,188.84H77.29v30.85H430ZM426.8,198a5.14,5.14,0,0,1,3.22-9.15v30.85c24.28,0,35-30.54,16.11-45.75ZM251.31,62a5.13,5.13,0,0,1,6.42,0l19.33-24a36,36,0,0,0-45-.11Zm-190,111.83c-19,15.16-8.32,45.83,16,45.83V188.84a5.14,5.14,0,0,1,3.2,9.16Z"/><circle cx="253.54" cy="132.27" r="30.85"/><path d="M150.7,266H109.56c-5.68,0-10.29,3.22-10.29,7.2V402.75c0,4,4.61,7.2,10.29,7.2H150.7c5.68,0,10.28-3.22,10.28-7.2V273.17C161,269.19,156.38,266,150.7,266Z"/><path d="M397.52,266H356.38c-5.68,0-10.28,2-10.28,4.5v135c0,2.49,4.6,4.5,10.28,4.5h41.14c5.68,0,10.28-2,10.28-4.5v-135C407.8,268,403.2,266,397.52,266Z"/><path d="M274.11,266H233c-5.68,0-10.28,1.15-10.28,2.57V407.38c0,1.42,4.6,2.57,10.28,2.57h41.14c5.68,0,10.28-1.15,10.28-2.57V268.54C284.39,267.12,279.79,266,274.11,266Z"/><path d="M47.85,451.09H459.23a30.86,30.86,0,0,1-30.86,30.85H78.71A30.86,30.86,0,0,1,47.85,451.09Z"/></g></svg>