<svg width="170" height="170" viewBox="0 0 170 170" fill="none" xmlns="http://www.w3.org/2000/svg">
<circle cx="85.5" cy="87.5" r="75.5" fill="#DAFFF5"/>
<line x1="88" y1="109" x2="88" y2="129" stroke="#76FF03" stroke-width="6"/>
<path d="M41 56H129V44H41V56ZM131 58V105H143V58H131ZM129 107H41V119H129V107ZM39 105V58H27V105H39ZM41 107C39.8954 107 39 106.105 39 105H27C27 112.732 33.268 119 41 119V107ZM131 105C131 106.105 130.105 107 129 107V119C136.732 119 143 112.732 143 105H131ZM129 56C130.105 56 131 56.8954 131 58H143C143 50.268 136.732 44 129 44V56ZM41 44C33.268 44 27 50.268 27 58H39C39 56.8954 39.8954 56 41 56V44Z" fill="#76FF03"/>
<line x1="66" y1="128" x2="107" y2="128" stroke="#76FF03" stroke-width="6"/>
</svg>
