<svg width="170" height="170" viewBox="0 0 170 170" fill="none" xmlns="http://www.w3.org/2000/svg">
<circle cx="85.5" cy="87.5" r="75.5" fill="#E6F9F3"/>
<path d="M84.5 73C80.2171 73 75.9342 73 71.6513 73C69.8158 73 69 72.4 69 70.4C69 64.8 69 59.4 69 53.8C69 51.8 69.8158 51 71.8553 51C80.2171 51 88.7829 51 97.1447 51C99.1842 51 100 52 100 53.8C100 59.4 100 64.8 100 70.4C100 72.2 99.1842 72.8 97.3487 72.8C93.0658 73 88.7829 73 84.5 73Z" fill="#76FF03"/>
<path d="M67.8039 76.211C71.8562 76.211 76.1111 76.211 80.1634 76.211C82.1895 76.211 83 76.844 83 78.9541C83 84.6514 83 90.3486 83 96.0459C83 98.156 82.3921 99 80.366 99C71.8562 99 63.3464 99 54.8366 98.789C53.8235 98.789 52.4052 97.1009 52.2026 96.2569C52 90.5596 52.2026 84.6514 52 78.7431C52 76.633 53.0131 76 54.8366 76C59.2941 76.211 63.549 76.211 67.8039 76.211Z" fill="#76FF03"/>
<path d="M102.296 76.211C106.375 76.211 110.658 76.211 114.737 76.211C116.98 76.211 118 77.055 118 79.3761C118 84.8624 118 90.3486 118 95.6239C118 97.945 117.388 99 114.941 99C106.579 99 98.2171 99 90.0592 99C87.6118 99 87 97.945 87 95.6239C87.2039 90.1376 87 84.6514 87 79.1651C87 77.055 87.6118 76 89.8553 76C93.9342 76.422 98.2171 76.211 102.296 76.211Z" fill="#76FF03"/>
<path d="M50.4468 72.9711C46.617 72.9711 42.5957 72.9711 38.766 72.9711C36.8511 72.9711 36.0851 72.3926 36.0851 70.4642C36.0851 65.0648 35.8936 59.8581 36.0851 54.4587C36.0851 53.6873 37.617 52.1446 38.5745 52.1446C46.617 51.9518 54.6596 51.9518 62.7021 52.1446C63.4681 52.1446 64.8085 53.4945 64.8085 54.4587C65 59.8581 64.8085 65.2576 65 70.657C65 72.3926 64.4255 73.1639 62.5106 72.9711C58.4894 72.9711 54.4681 72.9711 50.4468 72.9711Z" fill="#76FF03"/>
<path d="M118.485 72.9715C114.355 72.9715 110.02 72.9715 105.89 72.9715C103.826 72.9715 103 72.3943 103 70.4703C103 65.0832 103 59.8884 103 54.5012C103 52.5772 104.032 52 105.89 52C114.355 52 122.82 52 131.285 52C133.35 52 134.176 52.7696 133.969 54.6936C133.763 59.8884 133.763 65.0832 133.969 70.2779C133.969 72.3943 133.35 73.1639 131.079 72.9715C126.95 72.9715 122.614 72.9715 118.485 72.9715Z" fill="#76FF03"/>
<path d="M84.5 102.2C88.5789 102.2 92.6579 102.2 96.5329 102.2C98.9803 102.2 100 102.8 100 105.4C99.7961 110.6 99.7961 115.8 100 121C100 123 99.3882 124 97.1447 124C88.7829 124 80.2171 124 71.8553 124C69.8158 124 69 123.2 69 121.2C69 115.6 69 110.2 69 104.6C69 102.6 69.8158 102 71.6513 102C75.9342 102.2 80.2171 102.2 84.5 102.2Z" fill="#76FF03"/>
<path d="M118.603 123.604C114.497 123.604 110.391 123.405 106.285 123.604C103.616 123.604 103 122.811 103 120.432C103.205 115.279 103.205 110.126 103 104.973C103 102.595 103.821 102 106.285 102C114.291 102 122.298 102 130.305 102C132.768 102 134 102.396 134 105.369C133.795 110.523 133.795 115.874 134 121.225C134 123.207 133.179 124 131.126 124C127.02 123.604 122.914 123.604 118.603 123.604Z" fill="#76FF03"/>
<path d="M51.596 102.09C55.4371 102.09 59.4702 102.09 63.3113 102.09C65.0397 102.09 66 102.493 66 104.306C66 110.149 66 115.79 65.8079 121.633C65.8079 122.439 64.4636 123.849 63.6954 123.849C55.6291 124.05 47.3709 124.05 39.3046 123.849C38.5364 123.849 37.1921 122.237 37.1921 121.431C37 115.79 37.1921 110.149 37 104.507C37 102.694 37.7682 101.888 39.4967 102.09C43.5298 102.09 47.5629 101.888 51.596 102.09Z" fill="#76FF03"/>
<path d="M134.886 87.7792C134.886 90.7432 134.886 93.7072 134.886 96.4594C134.886 98.3649 134.255 99 132.361 99C129.416 99 126.47 99 123.735 99C121.842 99 121 97.9414 121 96.2477C121 90.3198 121 84.6035 121 78.6756C121 76.7701 121.842 75.9233 123.735 76.135C124.156 76.135 124.577 76.135 125.208 76.135C128.364 76.3467 132.571 75.2882 134.044 76.9819C135.727 78.6756 134.675 82.9098 134.675 86.0855C134.886 86.7207 134.886 87.3558 134.886 87.7792Z" fill="#76FF03"/>
<path d="M49 87.342C49 90.067 49 92.792 49 95.7267C49 97.8228 48.4462 98.6613 46.4154 98.8709C37 99.2901 37 99.2902 37 89.0189C37 85.6651 37 82.3112 37 78.9573C37 76.8612 37.5538 76.0227 39.4 76.0227C41.8 76.2323 44.0154 76.2323 46.4154 76.0227C48.4462 75.8131 49 77.0708 49 79.1669C49 81.892 49 84.617 49 87.342Z" fill="#76FF03"/>
</svg>
