<svg width="170" height="170" viewBox="0 0 170 170" fill="none" xmlns="http://www.w3.org/2000/svg">
<circle cx="85.5" cy="87.5" r="75.5" fill="#E6F9F3"/>
<path d="M95.4293 89.7L95.6403 89.4899C96.6957 81.2955 99.8616 78.9843 108.515 80.455C114.636 81.5056 119.491 84.8674 122.445 90.5404C123.29 92.2213 123.29 93.6921 121.601 95.1629C117.802 98.5247 114.425 102.517 108.937 103.567C101.972 104.828 99.0174 102.727 95.6403 94.7426C92.2633 96.2134 90.9969 99.155 90.1527 102.517C89.9416 103.567 90.1527 105.038 89.5195 105.879C89.0974 106.719 88.042 107.77 86.9867 107.98C86.5646 108.19 85.2982 106.719 85.0872 105.879C84.0318 99.9954 82.3434 94.7426 78.3332 89.9101C77.4889 90.9606 77.0667 91.591 76.4335 92.4314C69.0463 102.517 55.7493 102.727 48.151 92.6415C46.0404 89.7 44.5629 86.1281 42.6634 82.9764C41.397 80.8753 40.1307 78.564 38.2311 76.8831C36.3315 74.9921 36.7536 73.3112 38.6532 72.4708C42.8744 70.3697 47.3068 67.6382 51.9502 66.7978C57.6489 65.7472 63.7698 65.7472 69.4685 66.1674C74.3229 66.5877 77.911 69.9494 80.2327 74.3618C82.1323 77.9337 82.3434 81.5056 79.3885 84.6573C81.077 86.9685 82.7655 89.0696 84.454 90.9606C84.8761 90.9606 85.0872 90.9606 85.5093 90.9606C85.5093 81.0854 85.5093 71 85.5093 61.1247C85.9314 61.1247 86.3536 60.9146 86.7757 60.9146C87.831 61.545 88.6753 62.3854 89.9417 63.2259C90.3638 62.1753 90.5748 61.545 90.7859 60.7045C92.0523 54.8214 94.7961 50.1989 100.073 47.2574C101.128 46.627 101.339 44.9461 101.972 43.8956C100.706 43.8956 99.0174 43.4753 97.9621 43.8956C92.4744 46.4169 89.3084 51.2495 87.4089 56.7124C86.3536 59.8641 85.5093 60.0742 82.7655 58.1832C80.2327 56.5023 79.1774 53.9809 79.8106 50.8293C80.8659 45.1562 84.2429 40.954 89.5195 38.6428C95.0072 36.3315 100.706 35.7012 106.616 36.1214C107.46 36.1214 108.726 37.3821 108.726 38.0124C109.148 44.9461 108.937 51.8798 105.138 58.1832C101.339 64.4865 97.3289 65.9573 89.7306 63.8562C89.7306 73.5213 89.7306 82.9764 89.7306 92.8516C92.0523 91.3809 93.7408 90.5404 95.4293 89.7C96.0625 90.7505 96.4846 91.591 96.9067 92.6415C101.761 92.6415 107.038 92.6415 112.314 92.6415C112.948 92.6415 114.214 91.3809 114.003 90.7505C114.003 89.9101 112.948 88.8595 112.103 88.6494C106.616 87.809 100.917 87.3887 95.4293 89.7ZM78.9663 84.0269C71.7902 77.9337 63.1366 75.2022 54.0609 74.1517C53.0055 73.9416 50.6838 74.782 50.4727 75.6225C49.8396 77.9337 51.9502 77.9337 53.6387 78.1438C62.0812 79.6146 70.3127 81.7157 76.6446 87.809C76.8557 88.0191 77.4889 88.0191 77.911 88.2292C78.3331 86.5483 78.7553 85.2876 78.9663 84.0269Z" fill="#76FF03"/>
<path d="M85.6393 133C71.1648 133 56.9001 133 42.4256 133C36.7616 133 35.7128 130.868 38.4399 125.966C40.7474 121.703 52.7045 116.374 57.5294 117.439C58.9978 117.653 60.8858 117.439 62.1444 116.8C65.7106 114.882 69.2768 114.455 72.843 116.161C74.731 117.013 75.9896 116.8 77.458 115.734C83.5415 111.045 90.2543 109.979 97.3867 112.324C98.6453 112.75 100.324 112.537 101.582 112.111C108.715 109.766 112.91 111.045 117.945 116.8C118.784 117.866 120.672 118.505 121.93 118.718C127.804 119.358 132 122.129 133.468 127.245C134.727 131.508 133.888 132.787 129.482 133C121.301 133 113.12 133 104.729 133C98.6453 133 92.1423 133 85.6393 133Z" fill="#76FF03"/>
</svg>
