<svg width="170" height="170" viewBox="0 0 170 170" fill="none" xmlns="http://www.w3.org/2000/svg">
<circle cx="85.5" cy="87.5" r="75.5" fill="#E6F9F3"/>
<path d="M83.0668 80.6909C82.1703 78.2333 81.2738 75.7756 80.1531 73.318C79.2566 71.3072 79.7049 70.19 81.722 69.2963C82.1703 69.0729 82.6185 68.8495 83.0668 68.6261C87.5493 65.945 87.7735 63.7108 83.2909 61.4765C80.1531 59.9126 79.7049 57.9018 81.0496 54.9973C83.515 49.6351 83.2909 49.4117 89.3424 50.7523C92.9284 51.4225 94.049 50.082 93.3766 46.5072C92.9284 44.7198 92.256 42.0388 92.9284 41.5919C95.3938 39.8045 98.3075 38.9108 101.221 38.0171C101.893 37.7937 103.238 39.8045 103.911 41.1451C107.048 45.837 108.617 45.8369 111.307 40.9216C112.652 38.2406 114.221 38.0172 116.686 38.9109C117.582 39.1343 118.255 39.8045 119.151 40.028C122.513 40.9217 123.41 42.709 122.513 46.0604C120.944 51.1991 122.513 52.5396 127.668 50.9757C131.03 49.8586 132.599 50.9757 133.72 54.1036C135.737 59.4658 135.737 59.4658 131.03 62.8171C127.892 65.0513 128.116 66.8387 131.478 68.8495C135.737 71.0837 135.961 77.563 131.702 80.2441C130.806 80.9144 128.789 80.4675 127.444 80.0207C121.841 78.6801 120.72 79.7973 122.065 85.3828C122.513 87.6171 123.634 89.6279 120.496 90.9684C115.341 93.2026 113.324 92.9792 111.307 90.2981C110.859 89.6279 110.41 89.181 109.962 88.5107C108.169 86.0531 106.6 86.0531 104.583 88.2873C100.1 93.2026 100.1 93.2026 94.2732 90.5215C93.1525 90.0747 91.1354 89.8513 90.6871 90.2981C89.3424 92.3089 87.9976 94.7666 87.3252 97.0008C87.1011 97.4477 89.7906 99.4584 91.1354 99.4584C94.7214 99.9053 96.9627 100.576 96.9627 104.821C96.9627 110.853 96.9627 111.076 90.9112 112.194C86.6528 113.087 85.9804 115.098 88.4458 118.673C89.5665 120.237 91.3595 122.918 90.6871 124.035C89.3424 126.493 86.877 128.503 84.4115 130.067C83.515 130.514 81.4979 128.95 79.929 128.28C78.3601 127.61 76.1188 126.269 75.2223 126.716C73.8776 127.386 72.7569 129.621 72.5328 131.408C72.0845 133.866 71.8604 135.653 68.7226 135.876C63.1194 136.323 61.3264 135.653 60.4299 132.302C60.2058 131.631 59.9816 130.961 59.9816 130.067C59.0851 125.822 57.2921 125.152 53.7061 127.61C50.7924 129.397 48.5511 130.514 45.4134 127.61C41.1549 123.588 40.9308 122.918 44.5168 118.226C46.7581 115.321 45.8616 112.417 42.2756 111.97C35.5517 111.3 36.2241 109.959 36 103.927C36 101.022 37.3448 99.6819 40.0343 99.235C46.534 98.1179 46.9822 96.7774 43.6203 91.4152C41.3791 87.617 41.8273 86.2765 46.7581 82.0315C49.2235 79.7973 51.0165 81.3612 52.8096 82.9252C57.068 86.2765 58.861 85.6062 59.9816 80.2441C60.8782 75.9991 67.3779 73.318 70.7398 75.999C71.8604 76.8927 72.3087 78.9035 72.5328 80.6909C73.6534 85.6062 75.2223 86.2765 79.2566 83.372C80.8255 82.4783 81.9461 81.5846 83.0668 80.6909ZM74.7741 105.491C74.7741 101.022 71.188 97.2242 66.7055 97.2242C62.2229 97.2242 58.1886 101.022 58.1886 105.714C58.1886 109.959 61.9988 113.981 66.4813 114.204C70.9639 114.204 74.7741 110.183 74.7741 105.491ZM115.789 64.6045C115.789 59.9126 111.755 56.3378 107.273 56.3378C102.79 56.5613 99.204 60.136 99.4281 64.8279C99.4281 69.7432 103.014 73.0945 107.945 72.8711C112.427 72.8711 115.789 69.2964 115.789 64.6045ZM84.4115 79.7973C86.877 82.4783 89.1182 84.7125 92.0319 88.0639C92.0319 84.7125 92.9284 80.9143 91.8078 80.0207C90.0147 78.9035 86.877 79.7973 84.4115 79.7973Z" fill="#76FF03"/>
</svg>
