<svg width="170" height="170" viewBox="0 0 170 170" fill="none" xmlns="http://www.w3.org/2000/svg">
<circle cx="85.5" cy="87.5" r="75.5" fill="#E6F9F3"/>
<g clip-path="url(#clip0)">
<path d="M34.8 67.5C33.3 68.4 32.3 69.2 31.2 69.4C30.3 69.6 28.8 69.5 28.4 68.9C27.9 68.1 27.8 66.7 28.2 65.7C28.6 64.8 29.7 64.2 30.5 63.5C47.3 50.5 64.1 37.4 80.9 24.3C84.8 21.3 85.7 21.3 89.4 24.2C106.3 37.4 123.2 50.5 140 63.7C140.6 64.1 141.4 64.5 141.6 65.1C142 66.3 142.1 67.6 142.2 68.9C141 69 139.8 69.4 138.7 69.2C137.9 69.1 137.1 68.3 135.8 67.4C135.7 69 135.6 70.3 135.6 71.5C135.6 89.9 135.6 108.3 135.6 126.7C135.6 131.8 135.2 132.1 130.3 132.1C100.1 132.1 69.8 132.1 39.6 132.1C34.9 132.1 34.6 131.8 34.6 126.9C34.6 108.5 34.6 90.1 34.6 71.7C34.8 70.6 34.8 69.3 34.8 67.5ZM87.4 114.8C86.9 111.1 89 110.3 91.9 109.6C98.5 107.9 101.9 103.5 102 97.6C102.1 91.9 98.9 87.6 92.6 85.4C88.6 84 84.6 83 80.6 81.7C77.6 80.7 75.2 79.1 75.3 75.4C75.4 72.1 77.4 69.5 81 68.3C86.7 66.5 91.6 67.9 94.8 73C96.5 75.7 98.3 76.2 101.1 74.8C100.2 69.5 97.5 65.6 92.2 64.2C89 63.3 87 62 87.6 58.2C86.1 58.2 84.8 58.2 83.4 58.2C83.7 61.4 82.7 63.1 79.4 63.9C73.2 65.5 69.9 69.8 69.8 75.5C69.7 81.4 73.1 85.7 79.6 87.7C83.2 88.8 86.8 89.5 90.3 90.7C94.7 92.2 97 95.1 96.6 98.4C96.2 102.2 93 105.2 88.4 105.7C82.5 106.4 77.5 105.3 74.2 99.5C73.6 98.4 71.2 98.4 69.6 97.9C69.5 99.2 69.1 100.6 69.5 101.7C71 106.2 74.4 108.9 78.8 109.8C81.7 110.4 83.7 111.4 83.4 114.8C84.8 114.8 86 114.8 87.4 114.8Z" fill="#76FF03"/>
</g>
<defs>
<clipPath id="clip0">
<rect width="114.3" height="110.3" fill="white" transform="translate(28 22)"/>
</clipPath>
</defs>
</svg>
