<svg width="170" height="170" viewBox="0 0 170 170" fill="none" xmlns="http://www.w3.org/2000/svg">
<circle cx="85.5" cy="87.5" r="75.5" fill="#E6F9F3"/>
<path d="M50 86.463C50 72.3657 50 58.1343 50 44.037C50 34.3704 55.3743 29 65.1823 29C78.215 29 91.382 29 104.415 29C114.088 29 119.731 34.2361 119.866 44.037C120 72.6343 120 101.097 119.866 129.694C119.866 139.495 114.223 144.731 104.415 144.866C91.382 145 78.3493 145 65.3167 144.866C55.2399 144.731 50 139.361 50 129.292C50 115.06 50 100.829 50 86.463ZM61.8234 50.8843H61.9578C61.9578 52.4954 61.8234 54.2407 61.9578 55.8519C62.2265 58.9398 63.8388 61.088 67.1977 61.2222C70.4223 61.3565 72.7063 59.7454 72.975 56.5231C73.2438 52.7639 73.1094 48.8704 72.7063 44.9769C72.3033 42.1574 70.0192 40.9491 67.1977 40.9491C64.3762 41.0833 62.4952 42.5602 62.0921 45.5139C61.9578 47.2593 61.9578 49.0046 61.8234 50.8843Z" fill="#76FF03"/>
</svg>
