<svg width="170" height="170" viewBox="0 0 170 170" fill="none" xmlns="http://www.w3.org/2000/svg">
<circle cx="85.5" cy="87.5" r="75.5" fill="#E6F9F3"/>
<path d="M68 84.0479C68 75.4589 75.7917 68 84.5 68C93.4375 68 101 75.6849 101 84.726C101 93.089 92.75 101 84.2708 101C75.5625 100.774 68 93.089 68 84.0479Z" fill="#76FF03"/>
<path d="M128.389 68C137.263 68 145 75.7368 145 84.6114C145 93.2584 137.263 100.995 128.616 100.995C119.969 101.223 112.232 93.2584 112.005 84.3838C111.777 75.7368 119.514 68 128.389 68Z" fill="#76FF03"/>
<path d="M41.2709 68C50.2057 68 57.766 75.3333 57.9951 84.5C58.2242 92.9792 50.4348 101 41.7291 101C32.7943 101 25.0049 93.6667 25.0049 84.5C24.7758 75.7917 32.5652 68 41.2709 68Z" fill="#76FF03"/>
</svg>
