<svg width="79" height="79" viewBox="0 0 79 79" fill="none" xmlns="http://www.w3.org/2000/svg">
<path d="M38.8 78.7C27.1 78.7 15.4 78.7 3.7 78.6C2.4 78.6 1.2 77.7 0 77.2C0.5 75.9 0.7 74.1 1.6 73.5C5.8 70.6 10.2 67.8 14.6 65.3C16.8 64 19.3 63.3 21.6 62C26.3 59.5 27.7 54.7 25.1 50C22.8 45.9 20.4 41.9 18.2 37.7C17.5 36.3 17.4 34.5 17.3 32.9C17.2 30.3 17.8 27.6 17.5 25.1C16.1 11.4 24.8 1.2 38.7 0.399995C41.9 0.199995 45.4 -0.500004 47 3.6C47.2 4.1 48.3 4.3 49.1 4.6C56.2 7 60.4 12 60.8 19.4C61.1 24.9 60.8 30.4 60.6 35.8C60.6 36.9 60 38 59.4 38.9C57.5 42.2 55.3 45.3 53.6 48.7C50.6 54.6 50.7 60 58 63C62.1 64.7 66.3 66.4 70.3 68.5C72.8 69.9 74.9 72 77 74C77.7 74.7 78.5 76.6 78.1 77.1C77.4 78 75.9 78.5 74.7 78.5C62.7 78.7 50.8 78.7 38.8 78.7Z" fill="#76FF03"/>
</svg>
