<?xml version="1.0" encoding="utf-8"?>
<!-- Generator: Adobe Illustrator 25.2.3, SVG Export Plug-In . SVG Version: 6.00 Build 0)  -->
<svg version="1.1" id="Capa_1" xmlns="http://www.w3.org/2000/svg" xmlns:xlink="http://www.w3.org/1999/xlink" x="0px" y="0px"
	 viewBox="0 0 56 56" style="enable-background:new 0 0 56 56;" xml:space="preserve">
<path d="M28,6.4h15.8c1.4,0,2.9,0,3.5,1.5c2.3,5.6,6.1,10.9,5.2,17.4c-0.2,1.7-0.6,3.6-2.1,4.3c-1.6,0.7-2,2.3-2,4.1
	c0,4.3,0,8.7,0,13.1c0,3.6-1.7,5.3-5.3,5.3h-30c-2.5,0.3-4.8-1.5-5.2-4c0-0.4,0-0.8,0-1.1c0-4.6,0-9.2,0-14.1c0-0.8,0.4-1.8-0.7-2.4
	C2.1,27.7,3.6,23.1,4.5,19c1-3.3,2.3-6.6,3.9-9.7c0.6-1.8,2.3-2.8,4.1-2.6C17.7,6.5,22.9,6.4,28,6.4z M45.7,39.5c0-2.6,0-5.2,0-7.7
	s-1.4-3.5-3.7-2.2c-2.2,1.5-5.1,1.5-7.3,0c-0.8-0.8-2.1-0.8-2.9,0c-3,2-5.6,0-8.5-0.4s-5.3,2.5-8.4,0.7h-0.3
	c-2.5-1.6-3.8-0.9-3.8,2.3c0,4.1,0,8.1,0,12.1c0,5.3,0,5.3,5.3,5.3s5.5,0,5.5-5.3c0-10.8-1.5-9.2,9.8-9.4c2.5,0,3.8,1,3.7,3.6
	c-0.1,2.6,0,6,0,9.2c0,0.8-0.5,2,0.9,2.1c2.8,0,5.6,0,8.4,0c1.1,0,1.4-1.2,1.4-2.3C45.6,44.5,45.7,42,45.7,39.5z M28.1,18.4h14.1
	c6.5,0,6.5,0,4.2-6c-0.5-2.2-2.6-3.5-4.8-3.2c-7.8,0-15.9,0-23.5,0c-7,0-6.9,0-9.6,6.5c-0.9,2.1-0.9,2.9,1.8,2.9
	C16.3,18.4,22.2,18.4,28.1,18.4z M28.1,21.2H8.8c-0.8,0-2.1-0.6-2.1,0.8c0,1.4-0.9,4,0.6,5.7s2.1,0,2.9-0.6c1.4-1.3,3.5-1.3,4.9,0
	c1.5,1.3,3.8,1.3,5.2,0c1.4-1.3,3.5-1.3,4.9,0c1.5,1.3,3.8,1.3,5.2,0c1.4-1.3,3.5-1.3,4.9,0c1.6,1.4,4,1.4,5.6,0
	c1.3-1.3,3.3-1.3,4.6,0c0.9,0.8,1.9,1.6,2.9,0.7c1.1-0.9,1.1-3.5,1-5.4c-0.1-1.8-1.6-0.9-2.4-0.9c-6.2-0.3-12.5-0.2-18.8-0.2
	L28.1,21.2z M32,43.1c-1.5-1.4,2.9-6.1-3.2-5.9c-4.9,0-4.9,0-4.9,5v5.3c0,0.9,0,1.6,1.3,1.8c5.7,1,6.8,0,6.8-5.5V43.1z"/>
</svg>
