<svg id="Icon_feather-settings" data-name="Icon feather-settings" xmlns="http://www.w3.org/2000/svg" width="31.5" height="33.105" viewBox="0 0 31.5 33.105">
  <path id="Path_5" data-name="Path 5" d="M22.5,18A4.5,4.5,0,1,1,18,13.5,4.5,4.5,0,0,1,22.5,18Z" transform="translate(-2.25 -1.448)" fill="none" stroke="#0d8fe5" stroke-linecap="round" stroke-linejoin="round" stroke-width="3"/>
  <path id="Path_6" data-name="Path 6" d="M25.336,20.658a2.353,2.353,0,0,0,.427,2.49l.078.082a2.847,2.847,0,0,1,0,3.873,2.494,2.494,0,0,1-3.666,0l-.078-.082a2.054,2.054,0,0,0-2.358-.452,2.264,2.264,0,0,0-1.3,2.066v.233a2.595,2.595,0,1,1-5.182,0v-.123a2.253,2.253,0,0,0-1.4-2.066,2.054,2.054,0,0,0-2.358.452l-.078.082a2.494,2.494,0,0,1-3.666,0,2.847,2.847,0,0,1,0-3.873l.078-.082a2.353,2.353,0,0,0,.428-2.49A2.138,2.138,0,0,0,4.311,19.4h-.22a2.741,2.741,0,0,1,0-5.474h.117a2.149,2.149,0,0,0,1.956-1.478,2.353,2.353,0,0,0-.428-2.49l-.078-.082A2.847,2.847,0,0,1,5.658,6,2.494,2.494,0,0,1,9.325,6l.078.082a2.054,2.054,0,0,0,2.358.452h.1a2.264,2.264,0,0,0,1.3-2.066V4.237a2.595,2.595,0,1,1,5.182,0V4.36a2.264,2.264,0,0,0,1.3,2.066,2.054,2.054,0,0,0,2.358-.452l.078-.082a2.494,2.494,0,0,1,3.666,0,2.847,2.847,0,0,1,0,3.873l-.078.082a2.353,2.353,0,0,0-.428,2.49v.109a2.138,2.138,0,0,0,1.956,1.368h.22a2.741,2.741,0,0,1,0,5.474h-.117a2.138,2.138,0,0,0-1.956,1.368Z" fill="none" stroke="#0d8fe5" stroke-linecap="round" stroke-linejoin="round" stroke-width="3"/>
</svg>
