<svg width="170" height="170" viewBox="0 0 170 170" fill="none" xmlns="http://www.w3.org/2000/svg">
<circle cx="85.5" cy="87.5" r="75.5" fill="#E6F9F3"/>
<path d="M113.833 42.3086C110.717 48.2565 109.471 53.7942 114.456 59.1269C119.648 64.6646 125.672 63.0238 131.488 60.1524C136.057 68.7666 133.98 81.0728 128.58 88.4564C127.957 89.482 125.672 90.3023 124.426 89.8921C120.271 88.4564 116.117 86.8156 112.379 84.5595C100.332 77.1758 90.9847 66.9207 84.7535 54.2044C81.6379 48.0514 82.4687 46.0004 88.9077 43.1289C97.0083 39.4371 105.317 38.8218 113.833 42.3086Z" fill="#76FF03"/>
<path d="M70.7049 90C74.8033 94.3805 79.1065 98.761 83 102.933C75.8278 105.645 71.5246 113.571 67.4262 121.915C66.1967 124.418 64.9672 126.921 63.5327 129.216C60.254 134.431 54.7213 136.934 48.9835 135.682C43.8606 134.639 39.3523 129.842 38.3277 124.835C37.0982 118.786 39.3524 113.363 44.6802 110.025C48.5737 107.522 52.877 105.645 56.9753 103.35C63.3278 100.013 68.4508 95.4234 70.7049 90Z" fill="#76FF03"/>
<path d="M120 96.9089C109.854 106.237 90.5973 104.579 80.0372 93.7996C69.4771 83.2278 67.8206 63.7426 76.9313 54C79.209 64.779 86.042 72.8633 93.4962 80.1185C100.95 87.5809 109.026 94.4215 120 96.9089Z" fill="#76FF03"/>
<path d="M132 50.3941C132 54.8983 128.27 58.7882 123.711 58.993C119.152 59.1977 114.8 54.8983 115.007 50.3941C115.007 45.89 118.944 42 123.711 42C128.27 42 132 45.6852 132 50.3941Z" fill="#76FF03"/>
</svg>
