<svg width="170" height="170" viewBox="0 0 170 170" fill="none" xmlns="http://www.w3.org/2000/svg">
<circle cx="85.5" cy="87.5" r="75.5" fill="#E6F9F3"/>
<path d="M84.1601 88C69.2038 88 54.0208 88 39.0644 88C37.7048 88 36.3451 87.7751 34.9855 87.7751C31.3597 87.7751 30 85.9759 30 82.3775C30.2266 72.2569 30 61.9115 30 51.7909C30 46.3933 31.3597 45.0439 37.025 45.0439C45.183 45.0439 53.341 44.819 61.499 45.0439C64.6715 45.0439 65.578 44.1443 65.578 40.9956C65.3514 33.349 67.6175 31.1 75.0957 31.1C81.6674 31.1 88.4657 30.8751 95.0374 31.1C101.156 31.3249 103.422 33.5739 103.649 39.4213C104.102 44.819 104.102 44.819 109.541 44.819C117.019 44.819 124.27 44.819 131.748 44.819C137.64 44.819 139 46.3933 139 52.2407C139 61.4617 139 70.9075 139 80.1285C139 86.8755 138.32 87.5502 131.522 87.7751C118.152 87.7751 105.008 87.7751 91.6382 87.7751C89.1455 88 86.6528 88 84.1601 88ZM98.4366 44.819C98.4366 43.0197 98.4366 41.6703 98.4366 40.3209C98.6632 37.1723 96.8503 36.0478 94.131 36.0478C87.5593 36.0478 81.2141 36.0478 74.6424 36.0478C71.9231 36.0478 70.1102 37.1723 70.3368 40.3209C70.3368 41.6703 70.3368 43.2446 70.3368 44.819C79.8545 44.819 88.9189 44.819 98.4366 44.819ZM88.9189 78.3292C88.6923 75.6304 87.3326 74.0561 84.3867 74.0561C81.4407 74.0561 80.0811 75.8553 80.0811 78.5541C80.0811 81.0281 81.8939 82.8273 84.3867 82.8273C87.106 82.6024 88.6923 81.253 88.9189 78.3292Z" fill="#76FF03"/>
<path d="M30.1008 92C66.6136 92 102.673 92 138.732 92C140.32 98.5134 137.145 105.925 141 113.112C137.825 116.706 137.145 121.198 140.546 125.69C140.773 126.139 139.866 128.16 139.186 128.385C135.104 129.957 132.836 132.652 132.836 137.144C132.836 139.39 131.248 139.84 129.434 139.39C125.352 138.267 122.177 139.166 119.682 142.759C118.321 144.556 116.734 144.332 115.373 142.535C113.105 139.166 109.93 138.492 106.075 139.39C103.58 140.064 102.219 139.39 102.219 136.471C102.219 132.652 99.4978 131.08 96.7764 128.834C92.0138 124.792 86.7978 126.139 81.5816 126.139C67.0672 125.915 52.5528 126.139 38.0384 126.139C31.0079 126.139 30.1008 125.241 30.1008 118.278C29.874 109.07 30.1008 100.535 30.1008 92ZM106.755 104.353C106.755 109.07 105.394 112.214 101.312 113.562C101.085 113.562 101.312 115.134 101.312 115.808C101.312 118.278 101.312 120.749 101.312 123.219C101.312 124.118 101.085 125.69 101.539 125.69C105.621 127.038 106.755 130.182 106.982 132.877C110.384 133.775 113.332 134 115.373 135.572C117.414 137.144 118.321 137.144 120.135 135.348C121.269 134.225 123.311 134 125.125 133.775C126.032 133.551 127.166 134 128.527 134C128.073 129.059 130.795 126.588 135.33 125.016C132.155 121.198 132.382 117.604 135.104 114.011C131.248 112.439 128.3 110.642 128.527 106.15C128.527 105.701 127.166 105.027 126.939 105.027C122.857 106.599 120.362 104.353 117.641 101.433C114.693 105.027 111.518 107.273 106.755 104.353Z" fill="#76FF03"/>
</svg>
