<svg width="170" height="170" viewBox="0 0 170 170" fill="none" xmlns="http://www.w3.org/2000/svg">
<circle cx="85.5" cy="87.5" r="75.5" fill="#E6F9F3"/>
<g clip-path="url(#clip0)">
<path d="M108.444 37C110.715 37.2269 113.101 37.2269 115.372 37.5673C128.321 39.9497 133.659 46.3029 134 59.4632C134.909 93.7251 111.738 123.903 78.2307 131.958C70.7342 133.773 63.1241 134.681 55.4005 133.319C43.815 131.391 38.5902 125.718 37.3408 114.033C35.2963 95.7673 41.8841 79.9977 52.2202 65.476C66.3045 45.7357 90.8384 37.4538 108.444 37ZM82.5469 85.1029C76.527 93.0444 75.8455 91.9099 71.9836 85.6702C71.7565 85.2164 71.4157 84.7626 71.075 84.4222C69.4848 83.0608 66.8724 83.7415 66.3045 85.6702C65.623 87.8257 66.6452 88.8468 68.5761 89.8678C73.9145 92.4772 74.1417 94.1789 70.1663 98.2632C69.8255 98.6035 69.3712 98.8304 69.3712 99.1708C69.144 100.192 69.0305 101.213 68.9169 102.234C70.0527 102.12 71.1885 102.234 72.2108 101.894C72.8923 101.667 73.3466 100.986 73.9145 100.419C76.8677 97.469 78.7986 97.6959 80.9567 101.326C81.411 102.007 81.411 103.142 82.0925 103.595C83.0012 104.276 84.2506 105.184 85.2729 105.07C86.1815 104.843 87.3174 103.482 87.5445 102.574C87.6581 101.667 86.863 100.305 86.0679 99.5111C84.7049 98.1497 82.8876 97.1287 81.411 95.7672C80.9567 95.3134 80.8431 93.952 81.0703 93.6117C82.5469 92.0234 84.137 89.9813 86.0679 89.6409C87.2038 89.414 88.9075 92.0234 90.2705 93.3848C90.4977 93.6117 90.4977 94.2924 90.8384 94.5193C91.5199 94.9731 92.6558 96.1076 93.7916 95.9942C94.7003 95.9942 96.0633 94.5193 96.1768 93.7251C96.1768 92.5906 95.2682 91.3427 94.3595 90.4351C92.9965 89.0737 91.2928 88.1661 90.0433 86.8047C89.589 86.3509 89.3618 84.7626 89.8162 84.4222C91.1792 82.9474 92.8829 80.7918 94.5867 80.5649C95.8361 80.4515 97.4263 82.9474 98.7892 84.4222C99.2436 84.876 99.2436 85.6702 99.5843 86.124C100.947 87.8257 102.765 87.8257 104.355 86.4643C106.172 84.9895 105.491 82.8339 102.992 81.4725C97.1991 78.2959 97.0855 77.2749 101.402 72.7368C101.515 72.6234 101.856 72.5099 101.856 72.283C102.083 71.1485 102.197 70.014 102.424 68.8795C101.288 68.993 99.9251 68.7661 99.13 69.4468C93.3373 73.9848 93.3373 74.0982 89.589 67.8585C89.589 67.745 89.4754 67.6316 89.4754 67.6316C88.4532 67.1778 87.2038 66.0433 86.2951 66.2702C85.3864 66.4971 84.137 67.8585 84.0234 68.8795C83.9099 69.7871 84.9321 71.0351 85.7272 71.8292C87.0902 73.1906 88.7939 74.0982 90.1569 75.3462C90.6113 75.8 90.952 77.3883 90.6113 77.7287C89.1347 79.317 87.4309 81.3591 85.6136 81.6994C84.4778 81.9263 82.774 79.317 81.411 77.9556C81.1839 77.7287 81.2974 76.9345 80.9567 76.821C79.9344 76.1403 78.685 75.1193 77.5492 75.1193C76.7541 75.1193 75.2775 76.7076 75.2775 77.5018C75.2775 78.5228 76.1862 79.8842 77.0949 80.6784C78.685 82.2667 80.6159 83.6281 82.5469 85.1029Z" fill="#76FF03"/>
</g>
<defs>
<clipPath id="clip0">
<rect width="97" height="97" fill="white" transform="translate(37 37)"/>
</clipPath>
</defs>
</svg>
