<svg id="Layer_1" data-name="Layer 1" xmlns="http://www.w3.org/2000/svg" xmlns:xlink="http://www.w3.org/1999/xlink" viewBox="0 0 504 288"><defs><style>.cls-1{fill:url(#Degradado_sin_nombre_40);}.cls-2{fill:#00507d;}.cls-3{opacity:0.55;}.cls-4{fill:#f8233d;}</style><linearGradient id="Degradado_sin_nombre_40" y1="144" x2="504" y2="144" gradientUnits="userSpaceOnUse"><stop offset="0" stop-color="#fb0f3a"/><stop offset="0.16" stop-color="#fa193c"/><stop offset="0.35" stop-color="#f8233d"/><stop offset="0.52" stop-color="#f72e3f"/><stop offset="0.68" stop-color="#f53840"/><stop offset="0.8" stop-color="#f44242"/></linearGradient></defs><rect class="cls-1" width="504" height="288"/><path class="cls-2" d="M111,279.39a1.28,1.28,0,1,1-1.28-1.27A1.28,1.28,0,0,1,111,279.39Z"/><g class="cls-3"><path class="cls-4" d="M332.27,53.18C331.85,72,345.82,87.66,363.4,88.05s32.23-14.61,32.65-33.45-13.54-34.48-31.12-34.87S332.7,34.34,332.27,53.18Zm50.9,1.13c-.25,11.23-9,20.18-19.46,19.94s-18.81-9.56-18.56-20.78,9-20.18,19.47-19.94S383.42,43.09,383.17,54.31Z"/><path class="cls-4" d="M305.77,52.59c-.77,34.49,24.8,63.14,57,63.86s59-26.76,59.79-61.26-24.8-63.14-57-63.85S306.54,18.1,305.77,52.59Zm103.91,2.32c-.6,26.88-21.51,48.3-46.6,47.74s-45-22.89-44.43-49.77,21.5-48.31,46.6-47.75S410.28,28,409.68,54.91Z"/><path class="cls-4" d="M279.26,52c-1.12,50.15,36.06,91.79,82.88,92.84S448,105.93,449.06,55.78,413-36,366.19-37.06,280.38,1.85,279.26,52Zm156.92,3.5c-.94,42.54-34,76.43-73.74,75.54s-71.25-36.21-70.3-78.76,34-76.43,73.75-75.54S437.13,13,436.18,55.5Z"/><path class="cls-4" d="M252.76,51.41c-1.47,65.8,47.31,120.45,108.74,121.82s112.6-51,114.07-116.85S428.26-64.08,366.83-65.45,254.22-14.4,252.76,51.41Zm209.93,4.68c-1.3,58.2-46.55,104.56-100.88,103.35s-97.47-49.55-96.17-107.75S312.19-52.87,366.52-51.66,464-2.11,462.69,56.09Z"/><path class="cls-4" d="M348.55-92.89c-68.08,8.42-120.66,70.2-122.3,143.7-1.82,81.41,58.33,149.11,134.62,150.81,76.05,1.7,139.39-63.19,141.21-144.66C503.47-5.4,467.88-62.17,413.5-84.31a129.5,129.5,0,0,0-46-9.54A127.45,127.45,0,0,0,348.55-92.89ZM408.9-71.41C458.19-51.33,490.46.14,489.2,56.67c-1.65,73.86-59.08,132.7-128,131.16s-123.7-62.73-122-136.73C240.62-15.54,288.27-71.55,350-79.18a116,116,0,0,1,17.14-.88A117.49,117.49,0,0,1,408.9-71.41Z"/><path class="cls-4" d="M497.28-24.25a171.18,171.18,0,0,1,18.43,81.52c-2,89.51-71.61,160.82-155.17,159C262.86,214,191.67,114.08,218,11.29a6.94,6.94,0,0,0-4.5-8.47,6.43,6.43,0,0,0-7.92,4.85c-28.41,111,48.22,220,154.68,222.35,90.66,2,166.18-75.35,168.35-172.47a185.73,185.73,0,0,0-20-88.46,6.22,6.22,0,0,0-8.75-2.71A7.18,7.18,0,0,0,497.28-24.25Z"/><path class="cls-4" d="M540.25,24.51a205.16,205.16,0,0,1,2,33.35c-2.34,105.17-84.12,189-182.3,186.76-105.6-2.36-185.64-102.27-172.47-213.77,5-43.41,24-84,53.64-114.42a7.27,7.27,0,0,0,.21-9.76,6.15,6.15,0,0,0-9.11-.19C200.43-60.94,180-17.36,174.65,29.19c-14.13,119.73,71.9,226.7,185,229.22,105.28,2.35,193-87.49,195.49-200.27A219,219,0,0,0,553,22.38a6.49,6.49,0,0,0-7.34-5.75A6.89,6.89,0,0,0,540.25,24.51Z"/><path class="cls-4" d="M567.42,78.45c-12,112.22-102,196.93-208.14,194.56-53-1.18-102.34-24-139-62.89a6.11,6.11,0,0,0-8.72-.27,7.26,7.26,0,0,0-1,9.29,287.18,287.18,0,0,1,31.53,59.8c17.74,45.64,23.23,95,18.31,140.74A6.79,6.79,0,0,0,266,427.3a6.58,6.58,0,0,0,7.13-6.09c5.18-48.32-.68-99.93-19.21-147.59-3.46-9-7.37-17.79-11.66-26.39,35.26,25.48,75.48,38.66,116.68,39.58C471.83,289.33,567.44,199.28,580.22,80a4.44,4.44,0,0,0,0-.63,6.72,6.72,0,0,0-5.7-7A6.58,6.58,0,0,0,567.42,78.45Z"/><path class="cls-4" d="M580.5,140.53C545.55,240,456.9,303.6,358.64,301.4A217.56,217.56,0,0,1,285,286.82c-5-1.95-10,3.29-8.36,8.54a321.71,321.71,0,0,1,7.41,31.77c1.77,9.65,3.13,19.71,4,29.89a344.54,344.54,0,0,1-.21,62.77,6.76,6.76,0,0,0,5.8,7.5,6.6,6.6,0,0,0,7-6.24,357,357,0,0,0,.22-65.38c-1-10.64-2.38-21.15-4.23-31.22-1.25-6.92-2.73-13.77-4.39-20.52a227.94,227.94,0,0,0,66,11.27c103.81,2.32,197.36-64.92,234.22-169.85a7.51,7.51,0,0,0,.42-2.27,6.88,6.88,0,0,0-4.18-6.6A6.33,6.33,0,0,0,580.5,140.53Z"/><path class="cls-4" d="M580.47,203.18C532,283.34,448.05,331.81,358,329.8A241.84,241.84,0,0,1,320.43,326c-4.29-.75-8.11,3.21-7.46,7.9,1.36,9.3,2.38,18.94,3,28.68a375.51,375.51,0,0,1-.82,59.37A6.76,6.76,0,0,0,321,429.5a6.59,6.59,0,0,0,7-6.21,389.13,389.13,0,0,0,.85-61.72c-.46-6.93-1.16-13.78-2-20.55a254.41,254.41,0,0,0,30.83,2.58C452,345.7,540.27,295,591.28,210.66a7.29,7.29,0,0,0,1-3.59,7,7,0,0,0-2.93-5.95A6.2,6.2,0,0,0,580.47,203.18Z"/><path class="cls-4" d="M103.87,61.58A7.19,7.19,0,0,0,106.52,56,300.1,300.1,0,0,1,112-2.2a287.13,287.13,0,0,1,27.1-77.62,7.38,7.38,0,0,0,.82-3.2,7,7,0,0,0-3.3-6.18,6.24,6.24,0,0,0-8.77,2.68A301.65,301.65,0,0,0,99.41-5a313,313,0,0,0-5.66,51.65,311.63,311.63,0,0,0-89-15c-8.29-.19-16.75,0-25.14.42a6.73,6.73,0,0,0-6.12,7.25,6.6,6.6,0,0,0,6.75,6.53c8.08-.45,16.22-.58,24.2-.4A299.86,299.86,0,0,1,98,62.58,6.21,6.21,0,0,0,103.87,61.58Z"/><path class="cls-4" d="M535.5,296.41a232,232,0,0,1-41,26.28,7.14,7.14,0,0,0-3.13,9.17,6.25,6.25,0,0,0,8.56,3.33,245,245,0,0,0,43.29-27.74,254,254,0,0,0,26.89-24.94,7.25,7.25,0,0,0,0-9.76,6.14,6.14,0,0,0-9.11,0A240.8,240.8,0,0,1,535.5,296.41Z"/><path class="cls-4" d="M109.64,404.93a131.47,131.47,0,0,0,1.08-14.19c1-45.51-21.43-87.46-58.59-109.49a6.23,6.23,0,0,0-8.76,2.7,7.16,7.16,0,0,0,2.5,9.38c33,19.54,52.87,56.75,52,97.12a115.17,115.17,0,0,1-1,12.61,6.82,6.82,0,0,0,5.49,7.77A6.55,6.55,0,0,0,109.64,404.93Z"/><path class="cls-4" d="M37.51,281.18a7.36,7.36,0,0,0,.35-2.06,6.89,6.89,0,0,0-4.37-6.68,107.14,107.14,0,0,0-34-6.33,107,107,0,0,0-29.09,3.34,7,7,0,0,0-4.78,8.32,6.41,6.41,0,0,0,7.75,5.1,95.33,95.33,0,0,1,25.81-3,95.07,95.07,0,0,1,30.17,5.62A6.37,6.37,0,0,0,37.51,281.18Z"/><path class="cls-4" d="M136,413.74a164,164,0,0,0,2-22.39c1.86-83.48-60-152.81-138-154.55a132.7,132.7,0,0,0-40.47,5.36,7,7,0,0,0-4.53,8.48,6.38,6.38,0,0,0,7.9,4.83A120.62,120.62,0,0,1-.17,250.6c70.82,1.58,127.06,64.59,125.37,140.46a150.16,150.16,0,0,1-1.85,20.36,6.84,6.84,0,0,0,5.25,8A6.52,6.52,0,0,0,136,413.74Z"/><path class="cls-4" d="M163,418.93a194.45,194.45,0,0,0-2.33-74.47c-12.46-54.36-48.52-100-96.53-122.2C56.71,218,30.67,208.17.78,207.51A157.92,157.92,0,0,0-47.79,214a7,7,0,0,0-4.51,8.5,6.38,6.38,0,0,0,7.92,4.8,145.92,145.92,0,0,1,44.85-6c21.52.48,43.48,6.16,57.87,13.33l.11.05.06,0c44.57,20.43,78.07,62.7,89.62,113.09a180.67,180.67,0,0,1,2.15,68.8,6.82,6.82,0,0,0,5.24,8A6.53,6.53,0,0,0,163,418.93Z"/><path class="cls-4" d="M190.41,420.72a225.47,225.47,0,0,0-5.55-92.64C169.38,271.87,132.29,225,83.05,199.25c-20-12.64-56.9-20.53-81.62-21.08A184.64,184.64,0,0,0-52,184.83a7,7,0,0,0-4.64,8.41,6.39,6.39,0,0,0,7.84,4.95A172.37,172.37,0,0,1,1.13,192a172.93,172.93,0,0,1,75.79,19.45c46.24,24,81.08,67.92,95.59,120.62a210.9,210.9,0,0,1,5.18,86.53,6.85,6.85,0,0,0,5.34,7.89A6.53,6.53,0,0,0,190.41,420.72Z"/><path class="cls-4" d="M96.22,189c47.35,27.05,82.9,71.89,100.09,126.27a242.25,242.25,0,0,1,8.95,104,6.83,6.83,0,0,0,5.48,7.78,6.56,6.56,0,0,0,7.28-5.89,257.21,257.21,0,0,0-9.51-110.39c-18.18-57.53-55.72-105-105.73-133.72-18.5-12.69-60.16-27.33-100.69-28.23A209.43,209.43,0,0,0-53,155a6.94,6.94,0,0,0-4.85,8.27,6.41,6.41,0,0,0,7.71,5.17,197.33,197.33,0,0,1,51.92-5.72A198.27,198.27,0,0,1,96.22,189Z"/><path class="cls-4" d="M116.3,167.37a239.73,239.73,0,0,1,54,45.95c4.87,6.79,10.12,13.4,15.59,19.66h0a257.88,257.88,0,0,1,33.51,64.56.14.14,0,0,0,0,.06.61.61,0,0,0,0,.12c0,.12.09.25.14.37,14.93,42.45,17.32,79.93,12.75,122a6.75,6.75,0,0,0,5.65,7.63,6.58,6.58,0,0,0,7.14-6.08c4.79-44,2.3-83.87-13.67-129-.07-.18-.14-.36-.22-.53A271.82,271.82,0,0,0,196,224.35h0l-.17-.22a248.53,248.53,0,0,0-15.92-20.07h0l-.12-.13a252.35,252.35,0,0,0-57-48.5,237,237,0,0,0-120-35.87,236.43,236.43,0,0,0-53.37,4.88,6.9,6.9,0,0,0-5.12,8.08A6.45,6.45,0,0,0-48.22,138a225.18,225.18,0,0,1,50.65-4.62A224.93,224.93,0,0,1,116.3,167.37Z"/><path class="cls-4" d="M136.69,146.24l.08.06.1.07.26.19A268.58,268.58,0,0,1,187,189.5a6.14,6.14,0,0,0,8.73.44,7.24,7.24,0,0,0,1.15-9.26c-30.4-46-43.71-104.13-34.46-162.94A226.64,226.64,0,0,1,206.23-85a7.18,7.18,0,0,0,1.47-4.23,7.06,7.06,0,0,0-2.34-5.48,6.16,6.16,0,0,0-9.07,1,240.93,240.93,0,0,0-46.56,109.2,247.63,247.63,0,0,0,16.65,136c-7.08-5.81-14.41-11.28-22-16.34-.14-.11-.29-.21-.44-.31A263.32,263.32,0,0,0,3.39,90.26a264.09,264.09,0,0,0-48,3.33,6.88,6.88,0,0,0-5.43,7.86,6.5,6.5,0,0,0,7.32,5.79,252.6,252.6,0,0,1,45.83-3.19A251.2,251.2,0,0,1,136.69,146.24Z"/><path class="cls-4" d="M127.64,107.3a6.14,6.14,0,0,0,6.75-.68,7.16,7.16,0,0,0,2.49-6.76,267.34,267.34,0,0,1,.5-93.11,255,255,0,0,1,36.41-92.69,7.25,7.25,0,0,0,1.14-3.75,7.07,7.07,0,0,0-2.78-5.85,6.19,6.19,0,0,0-9,1.79A269.38,269.38,0,0,0,124.73,4.14a280.28,280.28,0,0,0-2.42,85.19A287.2,287.2,0,0,0,4.05,61a290.38,290.38,0,0,0-38.76,1.73,6.83,6.83,0,0,0-5.75,7.59,6.54,6.54,0,0,0,7.06,6.14A276.27,276.27,0,0,1,3.74,74.75,275.68,275.68,0,0,1,127.64,107.3Z"/><path class="cls-4" d="M79.76,23.54A7.25,7.25,0,0,0,82,19.11c1-9.44,2.48-19,4.39-28.32a316.82,316.82,0,0,1,18-59.46,7.42,7.42,0,0,0,.55-2.63,6.9,6.9,0,0,0-3.83-6.46,6.29,6.29,0,0,0-8.5,3.54A330.64,330.64,0,0,0,73.76-12.07C72.27-4.76,71,2.67,70.05,10.1A329.86,329.86,0,0,0,5.36,2.34c-2.17,0-4.33-.07-6.7-.09,0,0-6.95-.24-7.12,6.57-.19,7.21,7.19,7.23,7.19,7.23,2.09,0,4.21,0,6.32.09a326.18,326.18,0,0,1,69.08,8.94A6.25,6.25,0,0,0,79.76,23.54Z"/></g></svg>