<svg id="Layer_1" data-name="Layer 1" xmlns="http://www.w3.org/2000/svg" xmlns:xlink="http://www.w3.org/1999/xlink" viewBox="0 0 504 288"><defs><style>.cls-1{fill:url(#Degradado_sin_nombre_13);}.cls-2{fill:#00507d;}.cls-3{opacity:0.27;}.cls-4{fill:#f44242;}</style><linearGradient id="Degradado_sin_nombre_13" y1="144" x2="504" y2="144" gradientUnits="userSpaceOnUse"><stop offset="0" stop-color="#b42122"/><stop offset="0.16" stop-color="#cf282b"/><stop offset="0.35" stop-color="#e22e2f"/><stop offset="0.52" stop-color="#f44242"/><stop offset="0.68" stop-color="#e22e2f"/><stop offset="0.8" stop-color="#cf282b"/><stop offset="1" stop-color="#b42122"/></linearGradient></defs><rect class="cls-1" width="504" height="288"/><path class="cls-2" d="M111,279.39a1.28,1.28,0,1,1-1.28-1.27A1.28,1.28,0,0,1,111,279.39Z"/><g class="cls-3"><path class="cls-4" d="M296.17,74a26,26,0,1,0,26.6-25.44A26.05,26.05,0,0,0,296.17,74Zm41.53.93a15.51,15.51,0,1,1-15.17-15.86A15.54,15.54,0,0,1,337.7,74.92Z"/><path class="cls-4" d="M274.54,73.51a47.66,47.66,0,1,0,48.71-46.59A47.7,47.7,0,0,0,274.54,73.51Zm84.78,1.89a37.14,37.14,0,1,1-36.3-38A37.18,37.18,0,0,1,359.32,75.4Z"/><path class="cls-4" d="M252.91,73A69.29,69.29,0,1,0,323.73,5.3,69.37,69.37,0,0,0,252.91,73Zm128,2.86A58.78,58.78,0,1,1,323.5,15.81,58.84,58.84,0,0,1,381,75.89Z"/><path class="cls-4" d="M231.28,72.55a90.93,90.93,0,1,0,92.93-88.88A91,91,0,0,0,231.28,72.55Zm171.3,3.82A80.42,80.42,0,1,1,324-5.82,80.51,80.51,0,0,1,402.58,76.37Z"/><path class="cls-4" d="M309.27-37.25c-55.54,6.33-98.37,53.32-99.62,109.31a112.65,112.65,0,1,0,115-110A111,111,0,0,0,309.27-37.25Zm49.26,16.43A102.07,102.07,0,1,1,220.16,72.29c1.13-50.75,40-93.36,90.32-99.1a102.3,102.3,0,0,1,48,6Z"/><path class="cls-4" d="M200.42,18.11A5.25,5.25,0,1,0,210,22.54a123.9,123.9,0,0,1,44.51-51.47A5.26,5.26,0,0,0,256-36.21a5.26,5.26,0,0,0-7.28-1.52A134.4,134.4,0,0,0,200.42,18.11Z"/><path class="cls-4" d="M430.71,15.21a123.7,123.7,0,0,1-111.28,183c-79.71-1.77-137.92-78-116.57-156.28a5.25,5.25,0,1,0-10.14-2.76c-23.05,84.51,39.61,167.62,126.47,169.55,74,1.65,135.51-57.19,137.16-131.17a133.91,133.91,0,0,0-16.43-67.41,5.25,5.25,0,1,0-9.21,5.06Z"/><path class="cls-4" d="M465.83,52.41a145.89,145.89,0,0,1,1.64,25.4c-1.79,80.11-68.41,143.83-148.52,142-86.17-1.92-151.6-78.12-141-163a145.2,145.2,0,0,1,43.63-87.09,5.27,5.27,0,0,0,.16-7.43,5.25,5.25,0,0,0-7.43-.16,155.65,155.65,0,0,0-46.79,93.4c-11.39,91.19,58.93,172.77,151.18,174.83C404.62,232.28,476.06,164,478,78.05a157.26,157.26,0,0,0-1.76-27.25,5.26,5.26,0,0,0-10.39,1.61Z"/><path class="cls-4" d="M488.06,93.53a166.94,166.94,0,0,1-283.12,99.88,5.26,5.26,0,0,0-7.92,6.86,214.66,214.66,0,0,1,25.8,45.59,216.77,216.77,0,0,1,15.11,107.22,5.26,5.26,0,0,0,10.45,1.19,227.36,227.36,0,0,0-15.85-112.45c-2.84-6.86-6-13.57-9.55-20.12A176.34,176.34,0,0,0,318.23,252,177.34,177.34,0,0,0,498.51,94.71a3.87,3.87,0,0,0,0-.48,5.26,5.26,0,0,0-10.48-.7Z"/><path class="cls-4" d="M498.81,140.83A187.9,187.9,0,0,1,318,263.11a188.9,188.9,0,0,1-60.1-11.2,5.27,5.27,0,0,0-6.81,6.5,233.89,233.89,0,0,1,6.08,24.2c1.45,7.36,2.58,15,3.33,22.78a244,244,0,0,1-.1,47.81,5.26,5.26,0,0,0,10.47,1,254.64,254.64,0,0,0,.1-49.81c-.79-8.1-2-16.11-3.49-23.78-1-5.27-2.25-10.5-3.61-15.64a199.24,199.24,0,0,0,244.8-120.43,5.25,5.25,0,1,0-9.84-3.69Z"/><path class="cls-4" d="M498.86,188.56A210.43,210.43,0,0,1,317.5,284.74a211.77,211.77,0,0,1-30.67-2.92,5.28,5.28,0,0,0-6.07,6c1.12,7.08,2,14.43,2.5,21.85a267.6,267.6,0,0,1-.6,45.23,5.25,5.25,0,0,0,10.46,1,276.66,276.66,0,0,0,.62-47c-.38-5.28-1-10.5-1.64-15.65a222.77,222.77,0,0,0,25.16,2,221,221,0,0,0,190.43-101,5.17,5.17,0,0,0,.84-2.73,5.26,5.26,0,0,0-9.67-3Z"/><path class="cls-4" d="M109.81,80.12A5.34,5.34,0,0,0,112,75.84a213.15,213.15,0,0,1,4.41-44.3,208.76,208.76,0,0,1,22-59.09,5.28,5.28,0,0,0,.66-2.44,5.23,5.23,0,0,0-2.7-4.71,5.25,5.25,0,0,0-7.14,2A218.88,218.88,0,0,0,106.09,29.4a224,224,0,0,0-4.55,39.34A271,271,0,0,0,28.86,57.2c-6.77-.15-13.67-.06-20.51.29A5.26,5.26,0,1,0,8.88,68c6.59-.33,13.23-.43,19.74-.28a260.6,260.6,0,0,1,76.44,13.16A5.36,5.36,0,0,0,109.81,80.12Z"/><path class="cls-4" d="M414.35,287.38a231.19,231.19,0,0,1-97.33,19c-1.9-.05-3.8-.11-5.7-.21a5.29,5.29,0,0,0-5.53,5.56A289.66,289.66,0,0,1,305,355.6a5.26,5.26,0,0,0,10.49.74,287.83,287.83,0,0,0,1-39.47h.26A241.79,241.79,0,0,0,418.53,297a5.27,5.27,0,0,0,3.17-4.71,5.39,5.39,0,0,0-.44-2.21A5.26,5.26,0,0,0,414.35,287.38Z"/><path class="cls-4" d="M462.28,259.51a190.78,190.78,0,0,1-33.44,20,5.26,5.26,0,1,0,4.44,9.53,200.36,200.36,0,0,0,57.2-40,5.26,5.26,0,0,0-7.44-7.43A188.62,188.62,0,0,1,462.28,259.51Z"/><path class="cls-4" d="M72,25.45a5.44,5.44,0,0,0,2.15-3.23A254.51,254.51,0,0,1,81.52-5.26a5.2,5.2,0,0,0,.27-1.54,5.26,5.26,0,0,0-3.61-5.1,5.26,5.26,0,0,0-6.64,3.34c-2.6,7.87-4.81,15.88-6.65,23.87-5.58-.75-11.28-1.4-17.06-1.86-1.48-.12-3-.22-4.47-.32a5.26,5.26,0,0,0-.69,10.49c1.45.1,2.89.19,4.31.3,7.23.58,14.36,1.4,21.21,2.42A5.45,5.45,0,0,0,72,25.45Z"/><path class="cls-4" d="M69.14,315.82a5.09,5.09,0,0,0-.24-1.71,48.22,48.22,0,0,0-37.58-32.94,5.26,5.26,0,1,0-1.84,10.35,37.71,37.71,0,0,1,29.4,25.78,5.26,5.26,0,0,0,10.26-1.48Z"/><path class="cls-4" d="M93.48,330.36a70.78,70.78,0,0,0-69.1-72.25,71.87,71.87,0,0,0-11.18.63,5.26,5.26,0,0,0,1.42,10.42,60.2,60.2,0,0,1,68.35,61,5.26,5.26,0,1,0,10.51.24Z"/><path class="cls-4" d="M114.93,341.67a93.1,93.1,0,0,0-47.07-94.29,5.26,5.26,0,0,0-5.1,9.2,82.34,82.34,0,0,1,42.53,74,83.35,83.35,0,0,1-.77,9.61,5.25,5.25,0,0,0,10.41,1.44Z"/><path class="cls-4" d="M55.93,247.32a5.1,5.1,0,0,0,.28-1.57,5.26,5.26,0,0,0-3.57-5.1A93.68,93.68,0,0,0,1.15,238.3a5.25,5.25,0,1,0,2.44,10.22,83.22,83.22,0,0,1,45.68,2.09A5.25,5.25,0,0,0,55.93,247.32Z"/><path class="cls-4" d="M136.48,348.41a114.33,114.33,0,0,0,1.64-17.06A115.41,115.41,0,0,0-7.64,217.5,5.26,5.26,0,0,0-11.33,224a5.27,5.27,0,0,0,6.46,3.69A104.9,104.9,0,0,1,127.61,331.12a105.64,105.64,0,0,1-1.48,15.51,5.25,5.25,0,1,0,10.35,1.78Z"/><path class="cls-4" d="M158.46,352.4A137.63,137.63,0,0,0,77.57,202.46c-6-3.22-27.31-10.77-51.7-11.31A137.43,137.43,0,0,0-13.75,196a5.25,5.25,0,0,0-3.67,6.46,5.26,5.26,0,0,0,6.47,3.67,126.71,126.71,0,0,1,36.59-4.49c17.56.39,35.48,4.74,47.23,10.22l.09,0,.05,0a127.7,127.7,0,0,1,73.26,86.25,128.73,128.73,0,0,1,1.84,52.42,5.25,5.25,0,1,0,10.35,1.79Z"/><path class="cls-4" d="M180.86,353.79a160.89,160.89,0,0,0-4.64-70.57A160.34,160.34,0,0,0,93,185c-16.35-9.65-46.46-15.7-66.62-16.15a160.49,160.49,0,0,0-43.6,5,5.27,5.27,0,0,0-3.78,6.4A5.25,5.25,0,0,0-14.6,184,149.55,149.55,0,0,1,166.14,286.22a150.36,150.36,0,0,1,4.34,65.92,5.26,5.26,0,1,0,10.38,1.65Z"/><path class="cls-4" d="M103.72,177.18a171.41,171.41,0,0,1,81.82,96.3A173.1,173.1,0,0,1,193,352.74a5.25,5.25,0,1,0,10.4,1.46,183.75,183.75,0,0,0-7.88-84.1,181.9,181.9,0,0,0-86.44-102C94,158.42,59.94,147.22,26.87,146.48a183,183,0,0,0-44.95,4.57,5.25,5.25,0,0,0-3.94,6.3,5.25,5.25,0,0,0,6.3,3.94A172.12,172.12,0,0,1,26.63,157,170.94,170.94,0,0,1,103.72,177.18Z"/><path class="cls-4" d="M120.08,160.72a193.52,193.52,0,0,1,44.15,35.07c4,5.17,8.27,10.21,12.74,15h0A192.51,192.51,0,0,1,204.39,260a.08.08,0,0,1,0,0l0,.09.12.28c12.23,32.36,14.23,60.91,10.54,92.95a5.26,5.26,0,1,0,10.45,1.2c3.85-33.52,1.77-63.88-11.32-98.29-.05-.14-.11-.27-.17-.4a203.28,203.28,0,0,0-28.88-51.65h0l-.14-.17a194.83,194.83,0,0,0-13-15.31h0l-.09-.1A204.24,204.24,0,0,0,27.36,124.16a206.62,206.62,0,0,0-43.54,3.65A5.26,5.26,0,0,0-20.35,134a5.26,5.26,0,0,0,6.16,4.17,196.27,196.27,0,0,1,41.32-3.46A193.55,193.55,0,0,1,120.08,160.72Z"/><path class="cls-4" d="M136.69,144.64l.07.05.08.05.21.15a216.45,216.45,0,0,1,40.76,32.77,5.26,5.26,0,0,0,8.05-6.71,166.94,166.94,0,0,1,7.29-202.33,5.28,5.28,0,0,0,1.2-3.22,5.24,5.24,0,0,0-1.92-4.18,5.26,5.26,0,0,0-7.4.72,177.45,177.45,0,0,0-24.11,186.72q-8.67-6.66-18-12.48l-.35-.24a226.26,226.26,0,0,0-114.75-34.1,230.67,230.67,0,0,0-39.18,2.48,5.26,5.26,0,0,0-4.42,6,5.26,5.26,0,0,0,6,4.42,219.91,219.91,0,0,1,37.39-2.37A215.66,215.66,0,0,1,136.69,144.64Z"/><path class="cls-4" d="M129.26,115a5.29,5.29,0,0,0,5.51-.51,5.23,5.23,0,0,0,2-5.14,190.6,190.6,0,0,1,.29-70.93,186.35,186.35,0,0,1,29.6-70.56,5.18,5.18,0,0,0,.93-2.86,5.24,5.24,0,0,0-2.28-4.45A5.25,5.25,0,0,0,158-38.13a196.9,196.9,0,0,0-31.26,74.52,199.39,199.39,0,0,0-1.87,64.88A248.51,248.51,0,0,0,28.36,79.52,251.81,251.81,0,0,0-3.26,80.79a5.27,5.27,0,0,0-4.69,5.77,5.27,5.27,0,0,0,5.78,4.69A240.12,240.12,0,0,1,28.13,90,238.16,238.16,0,0,1,129.26,115Z"/><path class="cls-4" d="M90.09,51.11a5.33,5.33,0,0,0,1.79-3.37,215.42,215.42,0,0,1,3.55-21.57A229.16,229.16,0,0,1,110-19.1a5.28,5.28,0,0,0,.45-2A5.26,5.26,0,0,0,107.34-26a5.26,5.26,0,0,0-6.93,2.69A239.48,239.48,0,0,0,85.15,24c-1.21,5.58-2.21,11.23-3,16.89a287.53,287.53,0,0,0-52.79-6c-1.77,0-3.53,0-5.47-.08,0,0-5.67-.19-5.8,5C18,45.28,24,45.31,24,45.31c1.71,0,3.43,0,5.15.07a284.26,284.26,0,0,1,56.38,6.9A5.36,5.36,0,0,0,90.09,51.11Z"/></g></svg>