<svg xmlns="http://www.w3.org/2000/svg" xmlns:xlink="http://www.w3.org/1999/xlink" viewBox="0 0 512 512"><defs><style>.cls-1,.cls-3,.cls-4,.cls-5,.cls-6,.cls-7{fill:#fff;}.cls-2{fill:url(#Degradado_sin_nombre_101);}.cls-3{opacity:0.4;}.cls-4{opacity:0.16;}.cls-5{opacity:0.3;}.cls-6{opacity:0.2;}.cls-7{opacity:0.1;}.cls-8{fill:url(#未命名的渐变_229);}.cls-9{fill:#fbfbfb;}.cls-10{fill:#f9f9f9;}</style><linearGradient id="Degradado_sin_nombre_101" y1="256" x2="512" y2="256" gradientUnits="userSpaceOnUse"><stop offset="0" stop-color="#00b14b"/><stop offset="1" stop-color="#2bd866"/></linearGradient><linearGradient id="未命名的渐变_229" x1="161.8" y1="464.42" x2="352.74" y2="464.42" gradientUnits="userSpaceOnUse"><stop offset="0" stop-color="#bfffcc"/><stop offset="1" stop-color="#00d472"/></linearGradient></defs><g id="背景"><rect class="cls-1" x="-1607" y="-4169.59" width="3704" height="16186.59"/></g><g id="图标"><circle class="cls-2" cx="256" cy="256" r="256"/><path class="cls-3" d="M355.09,55.77c0,13.51-43.8-9.78-97.82-9.78s-97.81,23.29-97.81,9.78,42.27-44,96.3-44S355.09,42.27,355.09,55.77Z"/><path class="cls-4" d="M37.09,181.39S23,247.77,71.81,342.59c24.74,48,62,64.16,45.59,83.13-13,15-45.95-16.63-70.69-64.66C1.62,273.53,37.09,181.39,37.09,181.39Z"/><path class="cls-5" d="M134,80.46a8.62,8.62,0,1,1-8.61-8.61A8.62,8.62,0,0,1,134,80.46Z"/><path class="cls-1" d="M96,140.77a18.46,18.46,0,1,1-18.46-18.46A18.46,18.46,0,0,1,96,140.77Z"/><path class="cls-6" d="M218.94,416.2c93.12,43.27,183.37,21.76,253.62-23.64C427.23,464.31,347.29,512,256.13,512c-94.72,0-177.35-51.5-221.61-128C87.78,379,149.25,383.82,218.94,416.2Z"/><path class="cls-7" d="M278.58,363.06c-90.41-58.67-188.3-42.84-264.11-21,35.36,99,129.86,169.9,241,169.9,94.11,0,176.29-50.82,220.76-126.48C411.6,404,340.31,403.12,278.58,363.06Z"/><path class="cls-7" d="M233.75,327.92C162.34,363.26,90.55,371.45,23.83,362c40.32,88.46,129.45,150,233,150,130,0,237.21-96.85,253.72-222.3C430.11,275.82,335.43,277.59,233.75,327.92Z"/><path class="cls-8" d="M352.74,464.42c0,6.49-42.74,11.74-95.47,11.74s-95.47-5.25-95.47-11.74,42.75-11.73,95.47-11.73S352.74,457.94,352.74,464.42Z"/><path class="cls-9" d="M175.44,256.06c0-38.23.33-76.47-.21-114.69-.14-9.34,3.27-13,15.16-12.69,19,.56,38.1.44,57.13,0,9.66-.2,14,2.17,14,10.51q-.36,116.66,0,233.32c0,8.17-3.93,11-13.75,10.78-19.44-.37-38.91-.41-58.35,0-10.64.23-14.17-3.17-14.09-11.59C175.63,333.18,175.43,294.62,175.44,256.06ZM190,332c0,11.1.18,22.19-.1,33.28-.11,4.32.78,6.52,7.15,6.35,14.15-.37,28.33-.31,42.48,0,5.88.13,7.68-1.45,7.64-6.12q-.36-33.28,0-66.57c0-4.5-1.3-6.38-7.37-6.24q-21.22.48-42.48,0c-5.89-.13-7.61,1.37-7.45,6.05C190.22,309.82,190,320.93,190,332Z"/><path class="cls-10" d="M357.84,230.27q0,21.55,0,43.13c0,3.9-.93,7.72,6.38,8.54,4,.45,4.74,4.13,4.75,7.17q.06,42.64,0,85.29c0,6-3.59,8.9-11.24,8.86q-31.61-.18-63.21,0c-8.11.05-11.91-2.73-11.88-9.37.11-27.78.06-55.55,0-83.33,0-2.72.19-6.2,3-7.07,10.54-3.2,7.93-10.13,7.95-16.29.09-26.15,0-52.29.1-78.43,0-5-2-10.61,6-13.63,3-1.14,1.35-4.15,1.4-6.27.21-7.52-.2-15.05.19-22.55.45-8.71,8.33-13.36,19-11.67,18.43,2.92,30.06,14.37,30.17,29.52,0,5.29-1.8,10.94,5.94,14.59,1.7.81,1.4,4.84,1.42,7.39.12,14.71.06,29.41.06,44.12ZM297.07,331.88c0,11.08.26,22.16-.12,33.23-.18,5.08,1.76,6.9,8.22,6.74q20.59-.51,41.21,0c7.27.2,8.8-2.38,8.74-7.58q-.36-32.25,0-64.52c.06-4.81-1.05-7.07-7.86-6.88-14.12.38-28.29.4-42.41,0-6.72-.19-8.11,1.85-7.93,6.76C297.34,310.37,297.06,321.13,297.07,331.88Zm18.08-171.72a34.39,34.39,0,0,1,0,4.87c-.95,6.88-.28,11,11.36,11,12.73,0,9.23-6,9.55-11.23a33,33,0,0,0,0-4.87c-.44-5.64-12-15.1-17.54-13.44-7,2.09-1.79,7.8-3.3,11.7A5.48,5.48,0,0,0,315.15,160.16Z"/></g></svg>