<svg xmlns="http://www.w3.org/2000/svg" xmlns:xlink="http://www.w3.org/1999/xlink" viewBox="0 0 512 512"><defs><style>.cls-1,.cls-3,.cls-4,.cls-5,.cls-6,.cls-7{fill:#fff;}.cls-2{fill:url(#Degradado_sin_nombre_44);}.cls-3{opacity:0.4;}.cls-4{opacity:0.16;}.cls-5{opacity:0.3;}.cls-6{opacity:0.2;}.cls-7{opacity:0.1;}.cls-8{fill:url(#Degradado_sin_nombre_48);}</style><linearGradient id="Degradado_sin_nombre_44" y1="256" x2="512" y2="256" gradientTransform="translate(256 -106.04) rotate(45)" gradientUnits="userSpaceOnUse"><stop offset="0" stop-color="#08dba0"/><stop offset="1" stop-color="#03c58c"/></linearGradient><linearGradient id="Degradado_sin_nombre_48" x1="161.8" y1="464.42" x2="352.74" y2="464.42" gradientTransform="matrix(1, 0, 0, 1, 0, 0)" xlink:href="#Degradado_sin_nombre_44"/></defs><g id="背景"><rect class="cls-1" x="-283" y="-197.59" width="3704" height="16186.59"/></g><g id="图标"><circle class="cls-2" cx="256" cy="256" r="256" transform="translate(-106.04 256) rotate(-45)"/><path class="cls-3" d="M355.09,55.77c0,13.51-43.8-9.78-97.82-9.78s-97.81,23.29-97.81,9.78,42.27-44,96.3-44S355.09,42.27,355.09,55.77Z"/><path class="cls-4" d="M37.09,181.39S23,247.77,71.81,342.59c24.74,48,62,64.16,45.59,83.13-13,15-45.95-16.63-70.69-64.66C1.62,273.53,37.09,181.39,37.09,181.39Z"/><circle class="cls-5" cx="125.35" cy="80.46" r="8.62"/><path class="cls-1" d="M96,140.77a18.46,18.46,0,1,1-18.46-18.46A18.46,18.46,0,0,1,96,140.77Z"/><path class="cls-6" d="M218.94,416.2c93.12,43.27,183.37,21.76,253.62-23.64C427.23,464.31,347.29,512,256.13,512c-94.72,0-177.35-51.5-221.61-128C87.78,379,149.25,383.82,218.94,416.2Z"/><path class="cls-7" d="M278.58,363.06c-90.41-58.67-188.3-42.84-264.11-21,35.36,99,129.86,169.9,241,169.9,94.11,0,176.29-50.82,220.76-126.48C411.6,404,340.31,403.11,278.58,363.06Z"/><path class="cls-7" d="M233.74,327.92C162.34,363.26,90.55,371.45,23.83,362c40.32,88.46,129.45,150,233,150,130,0,237.21-96.85,253.72-222.3C430.11,275.82,335.43,277.59,233.74,327.92Z"/><path class="cls-8" d="M352.74,464.42c0,6.49-42.74,11.74-95.47,11.74s-95.47-5.25-95.47-11.74,42.75-11.73,95.47-11.73S352.74,457.94,352.74,464.42Z"/><path class="cls-1" d="M249.45,347H94.61c-6,0-6,0-3.18-5.43,9.58-18.1,19.22-36.17,28.69-54.32,1.72-3.3,3.57-4.87,7.68-4.86q121.5.22,243,0c4,0,6,1.3,7.77,4.71q14.43,27.75,29.3,55.26c2.3,4.25,1.19,4.71-3,4.7Q327.15,346.91,249.45,347Z"/><path class="cls-1" d="M249.38,272.72c-40.13,0-80.26-.06-120.38.1-4.39,0-6.1-.59-6.08-5.64.23-46.15.13-92.3.15-138.45,0-12,5.6-17.75,17.49-17.75q108.8,0,217.59,0,17.48,0,17.51,17.17c0,46.53-.05,93.06.14,139.59,0,4.55-1.56,5.08-5.48,5.06C330,272.67,289.69,272.72,249.38,272.72Zm-.3-15.12c35.63,0,71.25-.06,106.87.1,3.9,0,5-.9,5-4.9q-.24-60.78,0-121.57c0-4.23-1-5.27-5.26-5.26q-106.3.21-212.62,0c-4.22,0-5.3,1-5.28,5.25q.27,60.5,0,121c0,4.47,1.19,5.51,5.55,5.49C178.59,257.52,213.83,257.6,249.08,257.6Z"/><path class="cls-1" d="M249.7,355.27H404.64c5.94,0,6.72,1,4.29,6.41a17.27,17.27,0,0,1-14.79,10.67,37.33,37.33,0,0,1-4,.07q-140.8,0-281.61.06c-8,0-14.38-2.5-18.21-9.82-3.19-6.08-2.34-7.39,4.4-7.39Z"/></g></svg>