<svg xmlns="http://www.w3.org/2000/svg" xmlns:xlink="http://www.w3.org/1999/xlink" viewBox="0 0 621.97 627.79"><defs><style>.cls-1{fill:url(#Degradado_sin_nombre_22);}.cls-2,.cls-3,.cls-4,.cls-5,.cls-6,.cls-7{fill:#fff;}.cls-2{opacity:0.4;}.cls-3{opacity:0.16;}.cls-4{opacity:0.3;}.cls-6{opacity:0.2;}.cls-7{opacity:0.1;}.cls-8{fill:url(#未命名的渐变_78);}.cls-9{fill:url(#未命名的渐变_322);}</style><linearGradient id="Degradado_sin_nombre_22" x1="55.02" y1="320.98" x2="567.02" y2="320.98" gradientUnits="userSpaceOnUse"><stop offset="0" stop-color="#ffc1e6"/><stop offset="0" stop-color="#e348fa"/><stop offset="1" stop-color="#dc2aff"/></linearGradient><linearGradient id="未命名的渐变_78" x1="216.82" y1="529.4" x2="407.76" y2="529.4" gradientUnits="userSpaceOnUse"><stop offset="0" stop-color="#ffc1e6"/><stop offset="1" stop-color="#dc2aff"/></linearGradient><linearGradient id="未命名的渐变_322" x1="176.04" y1="329.47" x2="441.08" y2="329.47" gradientUnits="userSpaceOnUse"><stop offset="0.36" stop-color="#fff"/><stop offset="1" stop-color="#ff7ffc"/></linearGradient></defs><g id="图标"><circle class="cls-1" cx="311.02" cy="320.98" r="256"/><path class="cls-2" d="M410.11,120.75c0,13.51-43.79-9.78-97.82-9.78s-97.81,23.29-97.81,9.78,42.27-44,96.3-44S410.11,107.24,410.11,120.75Z"/><path class="cls-3" d="M92.11,246.37S78,312.74,126.83,407.57c24.74,48,62,64.16,45.59,83.12-13,15-45.95-16.63-70.69-64.65C56.65,338.5,92.11,246.37,92.11,246.37Z"/><path class="cls-4" d="M189,145.44a8.62,8.62,0,1,1-8.61-8.62A8.61,8.61,0,0,1,189,145.44Z"/><circle class="cls-5" cx="132.57" cy="205.75" r="18.46"/><path class="cls-6" d="M274,481.18c93.12,43.26,183.37,21.76,253.62-23.64C482.25,529.29,402.31,577,311.15,577c-94.72,0-177.35-51.5-221.61-128C142.8,443.94,204.27,448.8,274,481.18Z"/><path class="cls-7" d="M333.6,428c-90.41-58.66-188.3-42.83-264.1-21,35.35,99,129.85,169.91,241,169.91,94.11,0,176.29-50.82,220.77-126.48C466.62,468.92,395.33,468.09,333.6,428Z"/><path class="cls-7" d="M288.77,392.9C217.36,428.24,145.58,436.42,78.85,427c40.32,88.46,129.45,150,233,150,130,0,237.21-96.86,253.72-222.3C485.13,340.79,390.45,342.57,288.77,392.9Z"/><path class="cls-8" d="M407.76,529.4c0,6.48-42.74,11.74-95.47,11.74s-95.47-5.26-95.47-11.74,42.75-11.74,95.47-11.74S407.76,522.92,407.76,529.4Z"/><path class="cls-9" d="M441.08,222.41a22,22,0,0,0-22-21.86c-115.67,0-160.35,18.93-164.7,21.2a22.08,22.08,0,0,0-12.12,19.6V365.06C206.05,358,176,381,176,411.06c0,26.13,25.46,47.33,56.8,47.33s55.94-20.54,56.79-46.1V275.8a369.82,369.82,0,0,1,104.12-15.52V343a53.68,53.68,0,0,0-66.26,49.22c0,26.12,25.46,47.33,56.8,47.33s55.84-20.36,56.79-45.82Z"/></g></svg>