<svg xmlns="http://www.w3.org/2000/svg" xmlns:xlink="http://www.w3.org/1999/xlink" viewBox="0 0 512 512"><defs><style>.cls-1,.cls-3,.cls-4,.cls-5,.cls-6,.cls-7{fill:#fff;}.cls-2{fill:url(#Degradado_sin_nombre_95);}.cls-3{opacity:0.4;}.cls-4{opacity:0.16;}.cls-5{opacity:0.3;}.cls-6{opacity:0.2;}.cls-7{opacity:0.1;}.cls-8{fill:url(#Degradado_sin_nombre_98);}</style><linearGradient id="Degradado_sin_nombre_95" y1="256" x2="512" y2="256" gradientTransform="translate(256 -106.04) rotate(45)" gradientUnits="userSpaceOnUse"><stop offset="0" stop-color="#ff7c4b"/><stop offset="1" stop-color="#fa4733"/></linearGradient><linearGradient id="Degradado_sin_nombre_98" x1="161.8" y1="464.42" x2="352.74" y2="464.42" gradientTransform="matrix(1, 0, 0, 1, 0, 0)" xlink:href="#Degradado_sin_nombre_95"/></defs><g id="背景"><rect class="cls-1" x="-2931" y="-1521.59" width="3704" height="16186.59"/></g><g id="图标"><circle class="cls-2" cx="256" cy="256" r="256" transform="translate(-106.04 256) rotate(-45)"/><path class="cls-3" d="M355.09,55.77c0,13.51-43.8-9.78-97.82-9.78s-97.81,23.29-97.81,9.78,42.27-44,96.3-44S355.09,42.27,355.09,55.77Z"/><path class="cls-4" d="M37.09,181.39S23,247.77,71.81,342.59c24.74,48,62,64.16,45.59,83.13-13,15-45.95-16.63-70.69-64.66C1.62,273.53,37.09,181.39,37.09,181.39Z"/><circle class="cls-5" cx="125.35" cy="80.46" r="8.62"/><path class="cls-1" d="M96,140.77a18.46,18.46,0,1,1-18.46-18.46A18.46,18.46,0,0,1,96,140.77Z"/><path class="cls-6" d="M218.94,416.2c93.12,43.27,183.37,21.76,253.62-23.64C427.23,464.31,347.29,512,256.13,512c-94.72,0-177.35-51.5-221.62-128C87.78,379,149.25,383.82,218.94,416.2Z"/><path class="cls-7" d="M278.58,363.06c-90.41-58.67-188.3-42.84-264.11-21,35.36,99,129.86,169.9,241,169.9,94.11,0,176.29-50.82,220.76-126.48C411.6,404,340.31,403.11,278.58,363.06Z"/><path class="cls-7" d="M233.74,327.92C162.34,363.26,90.55,371.45,23.83,362c40.32,88.46,129.45,150,233,150,130,0,237.21-96.85,253.72-222.3C430.11,275.82,335.43,277.59,233.74,327.92Z"/><path class="cls-8" d="M352.74,464.42c0,6.49-42.74,11.74-95.47,11.74s-95.47-5.25-95.47-11.74,42.75-11.73,95.47-11.73S352.74,457.94,352.74,464.42Z"/><path class="cls-1" d="M264.45,434.12c-44-1.51-82.87-17.87-110.94-55.29-19.72-26.28-26.09-56.1-20.26-88.52a138.34,138.34,0,0,1,9.6-31.95c1.29-2.89,1.18-4.34-1.84-6.21a66.72,66.72,0,0,1-18.26-97.31C151.91,116.07,212.51,121,234.94,164c1.74,3.32,3,4.54,7.12,3.46a99.27,99.27,0,0,1,51,.18c3.15.82,4.27,0,5.69-2.56,13.18-24,33.44-37.25,60.85-36.51,28.66.78,49.2,15.43,60.68,41.8,12.34,28.36.88,64.49-25.62,80.81-4.51,2.78-4.31,4.93-2.62,9.06,11.87,29,15.5,58.57,4.52,88.59-12.78,34.94-37.65,58.43-71.31,73.25C306.47,430.36,286.7,433.7,264.45,434.12ZM138.15,312.59a95.79,95.79,0,0,0,9.08,41.73c19.69,41.25,53.51,63.6,97.73,70.75,39.79,6.43,76.19-2.61,108-27.62,26.89-21.18,42.22-48.94,43-83.59.47-20.32-4.44-39.71-13.34-58-1.74-3.56-1.49-5.17,2.31-7.16,24.36-12.77,36.07-35.81,32.41-63-4.26-31.71-37.17-55.46-68.61-49.53-21.64,4.08-36.9,16.14-45.8,36.34-.78,1.78-.36,5.12-4.7,3.73a100.67,100.67,0,0,0-62.22,0c-2.37.75-3.14.09-3.9-1.85a61.64,61.64,0,0,0-7.87-14.4c-24.32-33-75.9-34.24-99.54,4.76-18.3,30.17-7.25,66.79,24,83.61,3.79,2,5,3.44,2.83,7.83C142.76,273.91,138.58,292.83,138.15,312.59Z"/><path class="cls-1" d="M269.05,413.81c-23.58-.61-44.57-4.51-62.67-17.42-27.11-19.35-29.83-46.58-7.64-71.5a86.65,86.65,0,0,1,31.09-22.65c6.93-2.93,13.75-5.78,20.08-10.29,11.78-8.39,28.2-6.64,38.79,3.08,2.51,2.3,5.45,3.15,8.4,4.25,21.16,7.87,38.41,20.46,48.45,41.26,8.26,17.1,5.76,32.56-7.14,46.53-14.32,15.51-33,22-53.16,25.16C279.31,413.16,273.26,413.42,269.05,413.81ZM237.2,306.48c-17.15,6.66-30.83,16.85-40.22,32.28-9.71,16-7.71,32.25,5.48,45.59A61.48,61.48,0,0,0,220.74,397c20.08,9.16,41.21,11.65,62.88,8.61,16.32-2.28,31.67-7.43,44.75-18.11,12.72-10.39,18-24.32,13-38.67-7.38-21.47-23.84-33.8-44.25-42.38,1.94,21.33-5.34,33.61-24.06,40.71-2.35.9-2.34,2.22-2.35,4,0,7.28.18,14.56-.07,21.83-.13,3.84,1.8,5,5,5.29a39.37,39.37,0,0,0,23.51-5.1c2.62-1.54,5-3.38,5.34-6.83.24-2.35,1.77-3.38,4.11-3,2.6.37,2.89,2.36,2.72,4.38a12.42,12.42,0,0,1-5.52,9.34c-11,7.54-23,10.8-36.19,6.73a7.53,7.53,0,0,0-4.94-.09c-13.17,4.18-25.16,1-36.22-6.53a12.42,12.42,0,0,1-5.56-8.74c-.3-2.24-.33-4.46,2.43-5.05,2.56-.54,4.1.77,4.36,3.37s1.88,4.24,3.8,5.5a37.86,37.86,0,0,0,25.87,5.92c2.51-.28,4.18-1.38,4.12-4.44-.15-7.63-.08-15.27,0-22.9,0-2-.57-2.93-2.72-3.7C242.87,340.65,234.6,326.56,237.2,306.48Z"/><path class="cls-1" d="M170.65,160.66c9.24,0,16,2.73,21.78,7.8,1.76,1.54,3.66,3.22,1.4,5.75s-4.08,1.07-5.92-.51c-13.57-11.65-31.65-4.85-37,6.89-4.23,9.23-3.31,17.8,2.82,25.88,1.32,1.74,3.63,3.42,1.72,6-2.13,2.86-4.09,1.56-6.11-.46-12.89-12.93-9.67-37.35,6.24-46.57C160.64,162.46,166,160.3,170.65,160.66Z"/><path class="cls-1" d="M365.7,160.74c9.42.49,19.12,6.23,24.43,17.89,5.19,11.42,3.56,22.44-4.33,32.32-1.61,2-3.44,4.77-6.45,2.1-2.66-2.36-.46-4.4,1-6.37,12.06-16,3.61-36.47-16.17-38.89-6.43-.79-12.19,1.34-17.24,5.39-2,1.64-4.24,4-6.68.83s.62-4.82,2.52-6.36C348.46,163,355,160.55,365.7,160.74Z"/><path class="cls-1" d="M195.48,276.77a14,14,0,1,1,13.44,14.67A14,14,0,0,1,195.48,276.77Z"/><path class="cls-1" d="M338.73,277.18a13.84,13.84,0,0,1-13.84,14.26,14.15,14.15,0,0,1-.27-28.29A14,14,0,0,1,338.73,277.18Z"/></g></svg>