<svg xmlns="http://www.w3.org/2000/svg" xmlns:xlink="http://www.w3.org/1999/xlink" viewBox="0 0 512 512"><defs><style>.cls-1,.cls-3,.cls-4,.cls-5,.cls-6,.cls-7,.cls-9{fill:#fff;}.cls-2{fill:url(#Degradado_sin_nombre_72);}.cls-3{opacity:0.4;}.cls-4{opacity:0.16;}.cls-5{opacity:0.3;}.cls-6{opacity:0.2;}.cls-7{opacity:0.1;}.cls-8{fill:url(#Degradado_sin_nombre_74);}.cls-9{stroke:#fff;stroke-miterlimit:10;}</style><linearGradient id="Degradado_sin_nombre_72" y1="251.09" x2="512" y2="251.09" gradientTransform="translate(252.53 -107.48) rotate(45)" gradientUnits="userSpaceOnUse"><stop offset="0" stop-color="#fd8475"/><stop offset="1" stop-color="#ec4e3a"/></linearGradient><linearGradient id="Degradado_sin_nombre_74" x1="166.72" y1="459.51" x2="357.67" y2="459.51" gradientTransform="matrix(1, 0, 0, 1, 0, 0)" xlink:href="#Degradado_sin_nombre_72"/></defs><g id="背景"><rect class="cls-1" x="-283" y="-2183.59" width="3704" height="16186.59"/></g><g id="图标"><circle class="cls-2" cx="256" cy="251.09" r="256" transform="translate(-102.56 254.56) rotate(-45)"/><path class="cls-3" d="M360,50.86c0,13.51-43.79-9.78-97.81-9.78s-97.82,23.29-97.82,9.78,42.28-44,96.3-44S360,37.35,360,50.86Z"/><path class="cls-4" d="M42,176.48s-14.12,66.37,34.72,161.2c24.74,48,62,64.16,45.59,83.12-13,15-45.95-16.63-70.69-64.65C6.55,268.61,42,176.48,42,176.48Z"/><circle class="cls-5" cx="130.27" cy="75.55" r="8.62"/><path class="cls-1" d="M100.93,135.86A18.46,18.46,0,1,1,82.47,117.4,18.46,18.46,0,0,1,100.93,135.86Z"/><path class="cls-6" d="M219.85,409.28C313,452.55,403.22,431,473.47,385.64,428.14,457.39,348.2,505.08,257,505.08c-94.72,0-177.35-51.5-221.62-128C88.69,372.05,150.16,376.9,219.85,409.28Z"/><path class="cls-7" d="M279.49,356.14c-90.41-58.67-188.3-42.84-264.11-21,35.36,99,129.86,169.9,241,169.9,94.11,0,176.29-50.82,220.76-126.48C412.51,397,341.22,396.2,279.49,356.14Z"/><path class="cls-7" d="M234.65,321c-71.4,35.34-143.19,43.53-209.91,34.09,40.32,88.46,129.45,150,233,150,130,0,237.21-96.85,253.72-222.3C431,268.9,336.34,270.67,234.65,321Z"/><path class="cls-8" d="M357.67,459.51c0,6.48-42.75,11.74-95.47,11.74s-95.48-5.26-95.48-11.74,42.75-11.73,95.48-11.73S357.67,453,357.67,459.51Z"/><path class="cls-9" d="M257.44,415.63q-29.73,0-59.47,0c-10.74,0-17.88-6.26-18.05-15.71-.16-9.2,7.22-16,17.68-16.11,12.71-.1,25.43-.13,38.15.05,3.36,0,4.52-.79,4.48-4.36-.18-17-.14-34,0-51.06,0-2.87-.66-4.09-3.77-4.85-42.78-10.57-69.34-37.45-79.69-80.25-2.2-9.11-2.2-18.52-2.25-27.86-.07-12.9-.25-25.81.06-38.71.28-12,8.84-18.85,18.94-15.82,6.55,2,10.39,7.45,10.55,15.46.13,6.92.28,13.86-.07,20.76-.2,3.89,1.25,4.91,4.73,4.45a14.7,14.7,0,0,1,3.92,0c3.19.46,4-.81,4-4-.14-17.95-.07-35.91-.07-53.86,0-34.25,26.91-61.17,61.12-61.17a60.81,60.81,0,0,1,61.23,61.14c0,17.77.11,35.54-.08,53.3,0,3.75.67,5.17,4.78,5,7.8-.3,7.81,0,7.81-7.56,0-6.36-.21-12.73.07-19.08.38-8.76,6.28-14.73,14.35-15s14.84,5.43,14.85,14.2c0,23.5,3,47.27-2.46,70.42-9.93,41.79-36.54,67.76-78,78.47-3.85,1-5.07,2.19-5,6.17q.36,24.39,0,48.81c-.06,4.08.82,5.5,5.19,5.39q19.06-.47,38.15,0c13,.31,20.64,11.68,15.42,22.62-3.07,6.41-8.49,9.15-15.42,9.15Zm.4-323.26a51.56,51.56,0,0,0-50.74,42.18c-.66,3.39.07,4.28,3.37,4s6.72-.07,10.09,0c3.08,0,5,1.57,5.15,4.69.17,3-1.78,4.37-4.38,4.94a19.33,19.33,0,0,1-3.89.28c-11.82.19-11.74.18-11,12.15.14,2.38.73,3.32,3.19,3.2,3.35-.16,6.73-.1,10.09,0s6.09,1.3,5.94,5.15c-.14,3.47-2.67,4.61-5.85,4.59-3.36,0-6.73.12-10.09,0-2.42-.12-3.67.75-3.18,3.16.82,4.09-2.12,8.74,1.72,12.28.61.56,2.17.1,3.29.1,3.18,0,6.37-.13,9.53.09a4.55,4.55,0,0,1,4.64,4.66c.13,3.18-1.75,4.76-4.71,5.16a25.09,25.09,0,0,1-3.36,0c-11.67.05-11.57,0-11.22,11.92.08,2.84.73,4.05,3.77,3.82,3.34-.24,6.72,0,10.08-.08,3.15-.1,5.17,1.3,5.4,4.37.25,3.44-2,5.11-5.19,5.31a61.75,61.75,0,0,1-9.52,0c-4.14-.38-4.51,1.15-3.72,4.83,5,23.4,24.64,40.32,48.13,41.2a51.67,51.67,0,0,0,52-37.86c2.39-8.49,2.39-8.49-6.23-8.49-1.87,0-3.74,0-5.6,0-3.3.11-5.68-1.23-5.7-4.65s2.17-4.87,5.56-4.77c3.55.11,7.1,0,10.65,0,1.3,0,2.88.2,2.88-1.71,0-4.45.82-9.28-.67-13.2-.82-2.16-5.82-.48-8.92-.75-1.49-.12-3,.1-4.48-.08-2.87-.35-5.08-1.69-5.07-4.9s2.09-4.63,5-4.92c1.29-.13,2.61-.05,3.92-.06,10.35,0,10.18,0,10.33-10.54.06-3.77-.74-5.48-4.85-5a68.74,68.74,0,0,1-9.52,0c-3.09-.1-4.91-1.81-4.92-4.9,0-2.92,2-4.27,4.66-4.65a26.9,26.9,0,0,1,3.36-.14c11.82-.17,11.72-.17,11.26-11.93-.1-2.7-.84-3.55-3.5-3.43a76,76,0,0,1-11.19-.23c-2.62-.27-4.58-2-4.43-4.91s2-4.72,5.13-4.74c3.36,0,6.75-.24,10.08.06s4-1,3.47-4.11C304.4,110.42,282.73,92.38,257.84,92.37Zm93.08,113c0-8.61,0-17.21,0-25.82,0-4.07.7-9.37-5.28-9.12-5.6.24-4.36,5.48-4.45,9.25-.46,17.94,1.28,36-.86,53.81-5.11,42.78-42.71,75.36-86.3,73.07-45.77-2.42-79.86-39-79.87-84.18,0-15.34,0-30.68,0-46,0-3.59-1.51-6-5.06-6-3.28,0-4.94,2.37-4.88,5.66.38,19.44-1.3,38.94.81,58.31,4.62,42.41,39.35,76.87,81.55,81.5C290.77,320.62,332,294.41,346,253,351.25,237.4,351.05,221.42,350.92,205.35Zm-19.48,17.34c0-11.56,0-11.46-9.05-11.24-2.54.07-3.88.5-3.51,3.35a35.22,35.22,0,0,1,0,4.48,61.16,61.16,0,0,1-117.14,24.5,60.42,60.42,0,0,1-5.14-28.34c.18-3.2-.85-4.36-4-4a23.59,23.59,0,0,1-5,0c-2.4-.21-3.12.69-3.22,3.15-.81,19.46,3.42,37.51,15.37,53.17A73.3,73.3,0,0,0,281.89,293C311.53,282.7,331.41,254.52,331.44,222.69ZM257.73,405.91h12.89c15.88,0,31.76-.05,47.64,0,4.12,0,7.18-1.28,7.32-5.75.14-4.81-3.07-6.37-7.39-6.31-1.13,0-2.25,0-3.37,0H220.11c-8,0-16.07-.07-24.1,0-4,.05-6.38,2.2-6.21,6.3.15,3.81,2.56,5.6,6.28,5.68,1.31,0,2.61,0,3.92,0Zm7.93-50.83V337.72c0-12.15,0-12-12-11.83-3.36,0-4,1.22-3.93,4.21.13,14.19.06,28.38.06,42.57,0,11.9,0,11.71,11.66,11.66,3.74,0,4.28-1.45,4.21-4.6C265.55,371.52,265.66,363.3,265.66,355.08Z"/></g></svg>