<svg xmlns="http://www.w3.org/2000/svg" xmlns:xlink="http://www.w3.org/1999/xlink" viewBox="0 0 621.97 627.79"><defs><style>.cls-1{fill:url(#Degradado_sin_nombre_69);}.cls-2,.cls-3,.cls-4,.cls-5,.cls-6,.cls-7{fill:#fff;}.cls-2{opacity:0.4;}.cls-3{opacity:0.16;}.cls-4{opacity:0.3;}.cls-6{opacity:0.2;}.cls-7{opacity:0.1;}.cls-8{fill:url(#未命名的渐变_63);}.cls-9{fill:url(#未命名的渐变_311);}</style><linearGradient id="Degradado_sin_nombre_69" x1="37.8" y1="302.28" x2="549.8" y2="302.28" gradientUnits="userSpaceOnUse"><stop offset="0" stop-color="#4eb2e9"/><stop offset="0" stop-color="#4788f1"/><stop offset="1" stop-color="#3b44ff"/></linearGradient><linearGradient id="未命名的渐变_63" x1="199.6" y1="510.7" x2="390.55" y2="510.7" gradientUnits="userSpaceOnUse"><stop offset="0" stop-color="#4eb2e9"/><stop offset="1" stop-color="#3b44ff"/></linearGradient><linearGradient id="未命名的渐变_311" x1="130.34" y1="302.16" x2="456.73" y2="302.16" gradientUnits="userSpaceOnUse"><stop offset="0.21" stop-color="#fff"/><stop offset="1" stop-color="#4ea6ff"/></linearGradient></defs><g id="图标"><circle class="cls-1" cx="293.8" cy="302.28" r="256"/><path class="cls-2" d="M392.89,102.05c0,13.51-43.79-9.78-97.81-9.78s-97.82,23.29-97.82,9.78,42.28-44,96.3-44S392.89,88.55,392.89,102.05Z"/><path class="cls-3" d="M74.89,227.67s-14.12,66.38,34.72,161.2c24.74,48,62,64.16,45.59,83.12-13,15-45.95-16.63-70.69-64.65C39.43,319.81,74.89,227.67,74.89,227.67Z"/><path class="cls-4" d="M171.76,126.74a8.62,8.62,0,1,1-8.61-8.61A8.61,8.61,0,0,1,171.76,126.74Z"/><path class="cls-5" d="M133.81,187.05a18.46,18.46,0,1,1-18.46-18.46A18.45,18.45,0,0,1,133.81,187.05Z"/><path class="cls-6" d="M256.74,462.48c93.12,43.27,183.37,21.76,253.62-23.64C465,510.59,385.09,558.28,293.94,558.28c-94.73,0-177.36-51.5-221.62-128C125.58,425.25,187.05,430.1,256.74,462.48Z"/><path class="cls-7" d="M316.38,409.33C226,350.67,128.08,366.5,52.28,388.38c35.35,99,129.85,169.9,241,169.9,94.11,0,176.3-50.82,220.77-126.48C449.4,450.23,378.12,449.39,316.38,409.33Z"/><path class="cls-7" d="M271.55,374.2c-71.41,35.34-143.19,43.53-209.91,34.09,40.31,88.46,129.44,150,233,150,130,0,237.22-96.86,253.72-222.3C467.91,322.09,373.23,323.87,271.55,374.2Z"/><path class="cls-8" d="M390.55,510.7c0,6.48-42.75,11.74-95.47,11.74s-95.48-5.26-95.48-11.74S242.35,499,295.08,499,390.55,504.22,390.55,510.7Z"/><path class="cls-9" d="M453.78,289.22C420,220.74,365.29,178.56,293.44,178.13S166.91,220.74,133,289.22a33.19,33.19,0,0,0,0,26c33.92,68.38,88.6,110.55,160.45,111s127-42.61,160.88-111.1a32.59,32.59,0,0,0-.54-25.87Zm-160.34,99.9a87,87,0,1,1,87-87A87,87,0,0,1,293.44,389.12ZM343,252.59a16.31,16.31,0,0,0-23.05,0l-26.52,26.52-26.52-26.52a16.31,16.31,0,0,0-23.05,23l26.52,26.53-26.52,26.52a16.31,16.31,0,0,0,22.23,23.86c.28-.26.55-.53.82-.81l26.52-26.53L320,351.73A16.31,16.31,0,0,0,343,328.68l-26.53-26.52L343,275.63a16.3,16.3,0,0,0,0-23Z"/></g></svg>