<svg xmlns="http://www.w3.org/2000/svg" xmlns:xlink="http://www.w3.org/1999/xlink" viewBox="0 0 621.97 627.79"><defs><style>.cls-1{fill:url(#未命名的渐变_229);}.cls-2,.cls-3,.cls-4,.cls-5,.cls-6,.cls-7{fill:#fff;}.cls-2{opacity:0.4;}.cls-3{opacity:0.16;}.cls-4{opacity:0.3;}.cls-6{opacity:0.2;}.cls-7{opacity:0.1;}.cls-8{fill:url(#未命名的渐变_229-2);}.cls-9{fill:url(#未命名的渐变_243);}</style><linearGradient id="未命名的渐变_229" x1="54.98" y1="318.56" x2="566.98" y2="318.56" gradientTransform="translate(316.34 -126.6) rotate(45)" gradientUnits="userSpaceOnUse"><stop offset="0" stop-color="#bfffcc"/><stop offset="1" stop-color="#00d472"/></linearGradient><linearGradient id="未命名的渐变_229-2" x1="216.79" y1="526.98" x2="407.73" y2="526.98" gradientTransform="matrix(1, 0, 0, 1, 0, 0)" xlink:href="#未命名的渐变_229"/><linearGradient id="未命名的渐变_243" x1="171.99" y1="318.44" x2="444.86" y2="318.44" gradientUnits="userSpaceOnUse"><stop offset="0.28" stop-color="#fff"/><stop offset="1" stop-color="#aaffc0"/></linearGradient></defs><g id="图标"><circle class="cls-1" cx="310.98" cy="318.56" r="256" transform="translate(-134.17 313.2) rotate(-45)"/><path class="cls-2" d="M410.07,118.33c0,13.51-43.79-9.78-97.81-9.78s-97.82,23.29-97.82,9.78,42.28-44,96.3-44S410.07,104.82,410.07,118.33Z"/><path class="cls-3" d="M92.07,244S78,310.32,126.79,405.15c24.74,48,62,64.16,45.59,83.12-13,15-45.95-16.63-70.68-64.65C56.61,336.09,92.07,244,92.07,244Z"/><path class="cls-4" d="M188.94,143a8.62,8.62,0,1,1-8.61-8.62A8.61,8.61,0,0,1,188.94,143Z"/><path class="cls-5" d="M151,203.33a18.46,18.46,0,1,1-18.46-18.46A18.46,18.46,0,0,1,151,203.33Z"/><path class="cls-6" d="M273.92,478.76C367,522,457.29,500.52,527.55,455.12c-45.34,71.75-125.28,119.44-216.43,119.44-94.73,0-177.36-51.5-221.62-128C142.76,441.53,204.23,446.38,273.92,478.76Z"/><path class="cls-7" d="M333.56,425.61c-90.41-58.66-188.3-42.83-264.1-21,35.35,99,129.85,169.91,241,169.91,94.11,0,176.3-50.82,220.77-126.48C466.58,466.51,395.3,465.67,333.56,425.61Z"/><path class="cls-7" d="M288.73,390.48C217.32,425.82,145.54,434,78.82,424.57c40.31,88.46,129.44,150,233,150,130,0,237.22-96.86,253.72-222.3C485.09,338.37,390.41,340.15,288.73,390.48Z"/><path class="cls-8" d="M407.73,527c0,6.48-42.75,11.74-95.47,11.74s-95.47-5.26-95.47-11.74,42.74-11.73,95.47-11.73S407.73,520.5,407.73,527Z"/><path class="cls-9" d="M305.83,385.11c-3.73-3.36-6.73-2-6.73,3v16.54c-61.19-2-100-23.64-100-38.73a11.65,11.65,0,0,1,1.37-5,54.57,54.57,0,0,1-10.28-29.1,45.48,45.48,0,0,0-18.18,34c0,36.37,54,63.65,127.29,66v16.91c0,5,3,6.37,6.73,3l29.92-27.27a8.1,8.1,0,0,0,.86-11.42,8.73,8.73,0,0,0-.86-.86Zm120.75-53.28a54.57,54.57,0,0,1-10.37,29,11.51,11.51,0,0,1,1.37,5c0,9.91-16.64,22.73-45.46,30.82v28.19c43.91-10.73,72.74-32.55,72.74-59A45.49,45.49,0,0,0,426.58,331.83ZM244.73,365.11H372a34.73,34.73,0,0,0,36.37-32.55V243.09A34.73,34.73,0,0,0,372,210.54H364.3L355.2,193a18.18,18.18,0,0,0-16.09-9.73H277.64A18.17,18.17,0,0,0,261.37,193l-8.91,17.55h-7.73a34.73,34.73,0,0,0-36.37,32.55v89.47A34.73,34.73,0,0,0,244.73,365.11Zm63.65-136.39a59.11,59.11,0,1,1-59.11,59.1A59.1,59.1,0,0,1,308.38,228.72Zm0,90.93a31.83,31.83,0,1,0-31.83-31.83A31.83,31.83,0,0,0,308.38,319.65Z"/></g></svg>