<svg xmlns="http://www.w3.org/2000/svg" xmlns:xlink="http://www.w3.org/1999/xlink" viewBox="0 0 512 512"><defs><style>.cls-1,.cls-3,.cls-4,.cls-5,.cls-6,.cls-7{fill:#fff;}.cls-2{fill:url(#Degradado_sin_nombre_27);}.cls-3{opacity:0.4;}.cls-4{opacity:0.16;}.cls-5{opacity:0.3;}.cls-6{opacity:0.2;}.cls-7{opacity:0.1;}.cls-8{fill:url(#Degradado_sin_nombre_36);}</style><linearGradient id="Degradado_sin_nombre_27" y1="256" x2="512" y2="256" gradientUnits="userSpaceOnUse"><stop offset="0" stop-color="#969696"/><stop offset="1"/></linearGradient><linearGradient id="Degradado_sin_nombre_36" x1="161.8" y1="464.42" x2="352.74" y2="464.42" gradientUnits="userSpaceOnUse"><stop offset="0" stop-color="#fff"/><stop offset="1"/></linearGradient></defs><g id="背景"><rect class="cls-1" x="-1607" y="-197.59" width="3704" height="16186.59"/></g><g id="图标"><circle class="cls-2" cx="256" cy="256" r="256"/><path class="cls-3" d="M355.09,55.77c0,13.51-43.8-9.78-97.82-9.78s-97.81,23.29-97.81,9.78,42.27-44,96.3-44S355.09,42.27,355.09,55.77Z"/><path class="cls-4" d="M37.09,181.39S23,247.77,71.81,342.59c24.74,48,62,64.16,45.59,83.13-13,15-45.95-16.63-70.69-64.66C1.62,273.53,37.09,181.39,37.09,181.39Z"/><path class="cls-5" d="M134,80.46a8.62,8.62,0,1,1-8.61-8.61A8.62,8.62,0,0,1,134,80.46Z"/><path class="cls-1" d="M96,140.77a18.46,18.46,0,1,1-18.46-18.46A18.46,18.46,0,0,1,96,140.77Z"/><path class="cls-6" d="M218.94,416.2c93.12,43.27,183.37,21.76,253.62-23.64C427.23,464.31,347.29,512,256.13,512c-94.72,0-177.35-51.5-221.61-128C87.78,379,149.25,383.82,218.94,416.2Z"/><path class="cls-7" d="M278.58,363.06c-90.41-58.67-188.3-42.84-264.11-21,35.36,99,129.86,169.9,241,169.9,94.11,0,176.29-50.82,220.76-126.48C411.6,404,340.31,403.12,278.58,363.06Z"/><path class="cls-7" d="M233.75,327.92C162.34,363.26,90.55,371.45,23.83,362c40.32,88.46,129.45,150,233,150,130,0,237.21-96.85,253.72-222.3C430.11,275.82,335.43,277.59,233.75,327.92Z"/><path class="cls-8" d="M352.74,464.42c0,6.49-42.74,11.74-95.47,11.74s-95.47-5.25-95.47-11.74,42.75-11.73,95.47-11.73S352.74,457.94,352.74,464.42Z"/><path class="cls-1" d="M273.28,341.44H143c-10.27,0-13.21-2.91-13.22-13.17q0-77.06,0-154.1c0-9.7,2.94-12.61,12.5-12.66,19.7-.1,39.41-.32,59.11-.3,3.11,0,5-1,6.47-3.63,3-5.35,6.29-10.54,9.41-15.82a12.61,12.61,0,0,1,11.57-6.69q44.51,0,89,0c5.15,0,8.93,2.32,11.53,6.77,3,5.14,6.34,10.1,9.15,15.34,1.69,3.15,3.82,4.06,7.31,4,18.82-.18,37.63-.1,56.44-.08,11.89,0,14.58,2.74,14.58,14.76V327.27c0,11.46-2.66,14.16-13.92,14.16Zm-.48-10.56v-.38q62.15,0,124.28,0c7.6,0,8.73-1.2,8.73-8.85q0-70.27,0-140.55c0-7.9-1.51-9.39-9.52-9.4-19.17,0-38.35-.11-57.53.09-3.56,0-5.51-1.09-7.28-4.12-3.71-6.39-8-12.47-11.82-18.78a6.15,6.15,0,0,0-6.05-3.33q-41,.21-82,0c-3,0-4.54,1.09-5.85,3.56-3.31,6.21-7,12.23-10.17,18.5-1.59,3.12-3.52,4.23-7.11,4.19-19.72-.21-39.44-.13-59.16-.09-6.28,0-8.43,1.82-8.43,7.19q-.06,72.44-.05,144.89c0,4.56,2.18,6.61,6.56,6.72,4.7.11,9.39.36,14.09.36Q217.17,330.91,272.8,330.88Z"/><path class="cls-1" d="M172.84,152a48,48,0,0,0-7,.06c-4.47.66-5.6-.94-5.62-5.44,0-4.67,1.45-5.75,5.78-5.41a140.27,140.27,0,0,0,15.07.06c5.39-.17,2.83,3.81,3.18,6.06s1,5.25-3.34,4.73A67.86,67.86,0,0,0,172.84,152Z"/><path class="cls-1" d="M273.44,188.66c32.14.35,57.8,26.06,57.48,57.58-.32,31.76-26.62,56.89-59.07,56.46-31-.41-56.42-26.66-56.05-57.83S242.27,188.32,273.44,188.66Zm-.66,103.43c25.88.2,47.14-20.37,47.3-45.76a46.76,46.76,0,1,0-47.3,45.76Z"/><path class="cls-1" d="M353.58,188.44a11.7,11.7,0,1,1-11.64,11.79A11.87,11.87,0,0,1,353.58,188.44Z"/></g></svg>