<svg xmlns="http://www.w3.org/2000/svg" xmlns:xlink="http://www.w3.org/1999/xlink" viewBox="0 0 621.97 627.79"><defs><style>.cls-1{fill:url(#未命名的渐变_99);}.cls-2,.cls-3,.cls-4,.cls-5,.cls-6,.cls-7{fill:#fff;}.cls-2{opacity:0.4;}.cls-3{opacity:0.16;}.cls-4{opacity:0.3;}.cls-6{opacity:0.2;}.cls-7{opacity:0.1;}.cls-8{fill:url(#未命名的渐变_99-2);}.cls-9{fill:url(#未命名的渐变_200);}.cls-10{fill:url(#未命名的渐变_200-2);}.cls-11{fill:url(#未命名的渐变_200-3);}.cls-12{fill:url(#未命名的渐变_200-4);}.cls-13{fill:url(#未命名的渐变_200-5);}</style><linearGradient id="未命名的渐变_99" x1="54.98" y1="313.89" x2="566.98" y2="313.89" gradientTransform="translate(313.04 -127.96) rotate(45)" gradientUnits="userSpaceOnUse"><stop offset="0" stop-color="#ffeb4a"/><stop offset="1" stop-color="#ff554c"/></linearGradient><linearGradient id="未命名的渐变_99-2" x1="216.79" y1="522.32" x2="407.73" y2="522.32" gradientTransform="matrix(1, 0, 0, 1, 0, 0)" xlink:href="#未命名的渐变_99"/><linearGradient id="未命名的渐变_200" x1="116.03" y1="298.97" x2="528.33" y2="298.97" gradientUnits="userSpaceOnUse"><stop offset="0.4" stop-color="#fff"/><stop offset="1" stop-color="#ffa68d"/></linearGradient><linearGradient id="未命名的渐变_200-2" x1="169.9" y1="367.36" x2="237.43" y2="367.36" xlink:href="#未命名的渐变_200"/><linearGradient id="未命名的渐变_200-3" x1="417.46" y1="367.43" x2="484.57" y2="367.43" xlink:href="#未命名的渐变_200"/><linearGradient id="未命名的渐变_200-4" x1="481.73" y1="310.28" x2="517.21" y2="310.28" xlink:href="#未命名的渐变_200"/><linearGradient id="未命名的渐变_200-5" x1="123.66" y1="308.2" x2="152.83" y2="308.2" xlink:href="#未命名的渐变_200"/></defs><g id="图标"><circle class="cls-1" cx="310.98" cy="313.89" r="256" transform="translate(-130.87 311.84) rotate(-45)"/><path class="cls-2" d="M410.07,113.67c0,13.5-43.79-9.78-97.81-9.78s-97.82,23.28-97.82,9.78,42.28-44,96.3-44S410.07,100.16,410.07,113.67Z"/><path class="cls-3" d="M92.07,239.29S78,305.66,126.79,400.49c24.74,48,62,64.16,45.59,83.12-13,15-45.95-16.63-70.68-64.66C56.61,331.42,92.07,239.29,92.07,239.29Z"/><circle class="cls-4" cx="180.33" cy="138.36" r="8.62"/><path class="cls-5" d="M151,198.67a18.46,18.46,0,1,1-18.46-18.47A18.46,18.46,0,0,1,151,198.67Z"/><path class="cls-6" d="M273.92,474.09c93.12,43.27,183.37,21.77,253.63-23.64C482.21,522.2,402.27,569.89,311.12,569.89c-94.73,0-177.36-51.49-221.62-128C142.76,436.86,204.23,441.71,273.92,474.09Z"/><path class="cls-7" d="M333.56,421c-90.41-58.66-188.3-42.83-264.1-21,35.35,99,129.85,169.9,241,169.9,94.11,0,176.3-50.81,220.77-126.47C466.58,461.84,395.3,461,333.56,421Z"/><path class="cls-7" d="M288.73,385.82c-71.41,35.34-143.19,43.52-209.91,34.09,40.31,88.46,129.44,150,233,150,130,0,237.22-96.85,253.72-222.3C485.09,333.71,390.41,335.49,288.73,385.82Z"/><path class="cls-8" d="M407.73,522.32c0,6.48-42.75,11.74-95.47,11.74s-95.47-5.26-95.47-11.74,42.74-11.74,95.47-11.74S407.73,515.84,407.73,522.32Z"/><path class="cls-9" d="M279.38,222.21c14.56,0,29.13.29,43.68-.07,20.74-.52,38.93,6.88,56.07,17.48,12.37,7.65,24.39,15.88,36.56,23.87a148.76,148.76,0,0,0,52.77,21.77c10.26,2.09,20.37,6,29.9,10.45,20,9.36,29.13,26.14,29.81,47.81.23,7.16.23,14.34-.09,21.5-.36,8.05-3.48,11-11.48,11.9-.69.08-1.38.13-2.07.19-19.63,1.69-19.63,1.69-22.43-17.59-3.31-22.86-20.63-37-43.59-35.56a42,42,0,0,0-39.46,40.15c-.52,12.58-1.78,13.82-14.27,13.71q-67.63-.65-135.28-1.33c-10.89-.11-11.41-.81-13.33-11.37-1.11-6.1-2.3-12.37-4.76-18-7.6-17.47-25-26.19-44.47-23-19,3.1-33.6,18.18-34.94,36.85-1.46,20.37-1.61,16.78-19.07,17.1h-.7c-21.34,0-21.38-.26-24.71-21.22-2.7-17-1.51-33.73,1.76-50.33,3.43-17.39,14.36-28.79,31.19-33.87,10.27-3.1,18.48-8.42,23.93-17.57,15.79-26.52,39.74-36.44,69.63-35.15,11.76.51,23.56.09,35.35.09Zm-84,53.76h89.43v-43.2a41.39,41.39,0,0,0-4.57-.37c-12.22.39-24.57-.13-36.61,1.53a137.85,137.85,0,0,0-33.2,8.6C196.81,248.11,191.82,261,195.36,276Zm104-42.8v42.39h90.32c-.42-10.07-5.73-16.86-12.77-22.28C354,235.63,327,233.86,299.39,233.17Zm217.82,89.46c-6.6-12.28-14-21.88-27.42-24.62a8.85,8.85,0,0,0-7.14,2.56c-1.2,1.38-1.17,5-.21,6.86a21,21,0,0,0,6.61,7.72C497.12,320.48,506.29,322.4,517.21,322.63Zm-393.06,7.61c.58-1.39,1.22-2.75,1.71-4.17,4.31-12.42,7.44-25.45,23.46-28.75,4.83-1,4.53-6.49,0-9.42-5.84-3.79-16-1.21-19,5.85C125.51,305.23,122.41,317.28,124.15,330.24Z"/><path class="cls-10" d="M204.09,333.62a33.07,33.07,0,0,1,33.34,32.75c.26,19.06-15,34.75-33.86,34.73a33.72,33.72,0,0,1-33.67-33.36C169.72,348.52,184.62,333.65,204.09,333.62Zm-18.89,34a18.7,18.7,0,0,0,18.56,18.47c10.26-.09,19-9.06,18.83-19.24a18.64,18.64,0,0,0-18.86-18.15C193,348.68,185.09,356.72,185.2,367.62Z"/><path class="cls-11" d="M450.83,333.62A33.6,33.6,0,0,1,484.57,367a34,34,0,0,1-33.66,34.27c-17.74.09-33.23-15.27-33.45-33.17C417.22,349.1,432.2,333.64,450.83,333.62Zm0,15.08a18.39,18.39,0,0,0-18.26,18.65c.09,10.08,8.59,18.69,18.48,18.75,10.24.06,19.13-8.8,19.05-19C470,356.7,461.49,348.58,450.79,348.7Z"/><path class="cls-12" d="M517.21,322.63c-10.92-.23-20.09-2.15-28.16-7.48a21,21,0,0,1-6.61-7.72c-1-1.86-1-5.48.21-6.86a8.85,8.85,0,0,1,7.14-2.56C503.18,300.75,510.61,310.35,517.21,322.63Z"/><path class="cls-13" d="M124.15,330.24c-1.74-13,1.36-25,6.19-36.49,3-7.06,13.16-9.64,19-5.85,4.51,2.93,4.81,8.42,0,9.42-16,3.3-19.15,16.33-23.46,28.75C125.37,327.49,124.73,328.85,124.15,330.24Z"/></g></svg>