<svg xmlns="http://www.w3.org/2000/svg" xmlns:xlink="http://www.w3.org/1999/xlink" viewBox="0 0 512 512"><defs><style>.cls-1,.cls-3,.cls-4,.cls-5,.cls-6,.cls-7,.cls-9{fill:#fff;}.cls-2{fill:url(#Degradado_sin_nombre_38);}.cls-3{opacity:0.4;}.cls-4{opacity:0.16;}.cls-5{opacity:0.3;}.cls-6{opacity:0.2;}.cls-7{opacity:0.1;}.cls-8{fill:url(#Degradado_sin_nombre_40);}.cls-9{fill-rule:evenodd;}</style><linearGradient id="Degradado_sin_nombre_38" y1="256" x2="512" y2="256" gradientUnits="userSpaceOnUse"><stop offset="0" stop-color="#5dbbff"/><stop offset="1" stop-color="#1b7af8"/></linearGradient><linearGradient id="Degradado_sin_nombre_40" x1="161.8" y1="464.42" x2="352.74" y2="464.42" gradientUnits="userSpaceOnUse"><stop offset="0" stop-color="#55e9ff"/><stop offset="1" stop-color="#5dbbff"/></linearGradient></defs><g id="背景"><rect class="cls-1" x="-2269" y="-859.59" width="3704" height="16186.59"/></g><g id="图标"><circle class="cls-2" cx="256" cy="256" r="256"/><path class="cls-3" d="M355.09,55.77c0,13.51-43.8-9.78-97.82-9.78s-97.81,23.29-97.81,9.78,42.27-44,96.3-44S355.09,42.27,355.09,55.77Z"/><path class="cls-4" d="M37.09,181.39S23,247.77,71.81,342.59c24.74,48,62,64.16,45.59,83.13-13,15-45.95-16.63-70.69-64.66C1.62,273.53,37.09,181.39,37.09,181.39Z"/><circle class="cls-5" cx="125.35" cy="80.46" r="8.62"/><path class="cls-1" d="M96,140.77a18.46,18.46,0,1,1-18.46-18.46A18.46,18.46,0,0,1,96,140.77Z"/><path class="cls-6" d="M218.94,416.2c93.12,43.27,183.37,21.76,253.62-23.64C427.23,464.31,347.29,512,256.13,512c-94.72,0-177.35-51.5-221.62-128C87.78,379,149.25,383.82,218.94,416.2Z"/><path class="cls-7" d="M278.58,363.06c-90.41-58.67-188.3-42.84-264.11-21,35.36,99,129.86,169.9,241,169.9,94.11,0,176.29-50.82,220.76-126.48C411.6,404,340.31,403.12,278.58,363.06Z"/><path class="cls-7" d="M233.74,327.92C162.34,363.26,90.55,371.45,23.83,362c40.32,88.46,129.45,150,233,150,130,0,237.21-96.85,253.72-222.3C430.11,275.82,335.43,277.59,233.74,327.92Z"/><ellipse class="cls-8" cx="257.27" cy="464.42" rx="95.47" ry="11.74"/><path class="cls-9" d="M197.5,120.82H334.24a17.89,17.89,0,0,1,17.86,17.85V408.36a17.89,17.89,0,0,1-17.86,17.85H197.5a17.91,17.91,0,0,1-17.85-17.85V138.67a17.91,17.91,0,0,1,17.85-17.85ZM187.75,368a3.56,3.56,0,0,0,0,7.11H344a3.56,3.56,0,1,0,0-7.11Zm0-208.12a3.56,3.56,0,0,0,0,7.11H344a3.56,3.56,0,1,0,0-7.11Zm79,228.24A13.26,13.26,0,1,0,280,401.38,13.25,13.25,0,0,0,266.71,388.12Z"/><path class="cls-9" d="M360.07,198.09V210.3c0,8.59-3.15,15.56-7,15.56h-2l-1-44.47,2.76.22C356.89,181.92,360.07,189.21,360.07,198.09Z"/></g></svg>