<svg id="Capa_1" data-name="Capa 1" xmlns="http://www.w3.org/2000/svg" xmlns:xlink="http://www.w3.org/1999/xlink" viewBox="0 0 15 15"><defs><style>.cls-1{fill:url(#Degradado_sin_nombre_78);}.cls-2,.cls-3,.cls-4,.cls-5,.cls-6,.cls-7{fill:#fff;}.cls-2{opacity:0.4;}.cls-3{opacity:0.16;}.cls-4{opacity:0.3;}.cls-6{opacity:0.2;}.cls-7{opacity:0.1;}.cls-8{fill:url(#未命名的渐变_28);}.cls-9{fill:url(#未命名的渐变_305);}.cls-10{fill:url(#未命名的渐变_305-2);}</style><linearGradient id="Degradado_sin_nombre_78" x1="1.71" y1="7.85" x2="14.17" y2="7.85" gradientUnits="userSpaceOnUse"><stop offset="0" stop-color="#c679b0"/><stop offset="0" stop-color="#e02b50"/><stop offset="1" stop-color="#d4161a"/></linearGradient><linearGradient id="未命名的渐变_28" x1="5.68" y1="12.92" x2="10.31" y2="12.92" gradientUnits="userSpaceOnUse"><stop offset="0" stop-color="#c679b0"/><stop offset="1" stop-color="#5d62aa"/></linearGradient><linearGradient id="未命名的渐变_305" x1="5.3" y1="6.68" x2="10.45" y2="6.68" gradientUnits="userSpaceOnUse"><stop offset="0.29" stop-color="#fff"/><stop offset="1" stop-color="#9d82bb"/></linearGradient><linearGradient id="未命名的渐变_305-2" x1="4.34" y1="9.09" x2="11.42" y2="9.09" xlink:href="#未命名的渐变_305"/></defs><circle class="cls-1" cx="7.94" cy="7.85" r="6.23"/><path class="cls-2" d="M10.37,3c0,.33-1.07-.24-2.38-.24S5.62,3.35,5.62,3,6.65,2,8,2,10.37,2.69,10.37,3Z"/><path class="cls-3" d="M2.61,6A6.43,6.43,0,0,0,3.45,10c.61,1.17,1.51,1.57,1.11,2s-1.11-.41-1.72-1.58A5.86,5.86,0,0,1,2.61,6Z"/><circle class="cls-4" cx="4.76" cy="3.57" r="0.21"/><path class="cls-5" d="M4,5a.45.45,0,1,1-.45-.45A.45.45,0,0,1,4,5Z"/><path class="cls-6" d="M7,11.75a6.22,6.22,0,0,0,6.17-.58A6.22,6.22,0,0,1,2.55,11,8.48,8.48,0,0,1,7,11.75Z"/><path class="cls-7" d="M8.49,10.45a7.54,7.54,0,0,0-6.43-.51A6.23,6.23,0,0,0,13.3,11,5.74,5.74,0,0,1,8.49,10.45Z"/><path class="cls-7" d="M7.4,9.6a8.64,8.64,0,0,1-5.11.83A6.23,6.23,0,0,0,14.13,8.67,10.58,10.58,0,0,0,7.4,9.6Z"/><ellipse class="cls-8" cx="7.99" cy="12.92" rx="2.31" ry="0.28"/><path class="cls-9" d="M6.27,7.72V8.4H9.49V7.72a1.36,1.36,0,0,1,1-1.33V6a1,1,0,0,0-1-1H6.27a1,1,0,0,0-1,1v.39A1.36,1.36,0,0,1,6.27,7.72Z"/><path class="cls-10" d="M10.78,7a.67.67,0,0,0-.65.69V9.09H5.62V7.72A.67.67,0,0,0,5,7a.67.67,0,0,0-.64.69V9.43a1,1,0,0,0,1,1v.35a.33.33,0,1,0,.65,0v-.35H9.81v.35a.33.33,0,0,0,.32.34.33.33,0,0,0,.32-.34v-.35a1,1,0,0,0,1-1V7.72A.67.67,0,0,0,10.78,7Z"/></svg>