<svg xmlns="http://www.w3.org/2000/svg" xmlns:xlink="http://www.w3.org/1999/xlink" viewBox="0 0 512 512"><defs><style>.cls-1,.cls-3,.cls-4,.cls-5,.cls-6,.cls-7{fill:#fff;}.cls-2{fill:url(#Degradado_sin_nombre_44);}.cls-3{opacity:0.4;}.cls-4{opacity:0.16;}.cls-5{opacity:0.3;}.cls-6{opacity:0.2;}.cls-7{opacity:0.1;}.cls-8{fill:url(#Degradado_sin_nombre_48);}</style><linearGradient id="Degradado_sin_nombre_44" y1="256" x2="512" y2="256" gradientTransform="translate(256 -106.04) rotate(45)" gradientUnits="userSpaceOnUse"><stop offset="0" stop-color="#08dba0"/><stop offset="1" stop-color="#03c58c"/></linearGradient><linearGradient id="Degradado_sin_nombre_48" x1="161.8" y1="464.42" x2="352.74" y2="464.42" gradientTransform="matrix(1, 0, 0, 1, 0, 0)" xlink:href="#Degradado_sin_nombre_44"/></defs><g id="背景"><rect class="cls-1" x="-283" y="-197.59" width="3704" height="16186.59"/></g><g id="图标"><circle class="cls-2" cx="256" cy="256" r="256" transform="translate(-106.04 256) rotate(-45)"/><path class="cls-3" d="M355.09,55.77c0,13.51-43.8-9.78-97.82-9.78s-97.81,23.29-97.81,9.78,42.27-44,96.3-44S355.09,42.27,355.09,55.77Z"/><path class="cls-4" d="M37.09,181.39S23,247.77,71.81,342.59c24.74,48,62,64.16,45.59,83.13-13,15-45.95-16.63-70.69-64.66C1.62,273.53,37.09,181.39,37.09,181.39Z"/><circle class="cls-5" cx="125.35" cy="80.46" r="8.62"/><path class="cls-1" d="M96,140.77a18.46,18.46,0,1,1-18.46-18.46A18.46,18.46,0,0,1,96,140.77Z"/><path class="cls-6" d="M218.94,416.2c93.12,43.27,183.37,21.76,253.62-23.64C427.23,464.31,347.29,512,256.13,512c-94.72,0-177.35-51.5-221.61-128C87.78,379,149.25,383.82,218.94,416.2Z"/><path class="cls-7" d="M278.58,363.06c-90.41-58.67-188.3-42.84-264.11-21,35.36,99,129.86,169.9,241,169.9,94.11,0,176.29-50.82,220.76-126.48C411.6,404,340.31,403.11,278.58,363.06Z"/><path class="cls-7" d="M233.74,327.92C162.34,363.26,90.55,371.45,23.83,362c40.32,88.46,129.45,150,233,150,130,0,237.21-96.85,253.72-222.3C430.11,275.82,335.43,277.59,233.74,327.92Z"/><path class="cls-8" d="M352.74,464.42c0,6.49-42.74,11.74-95.47,11.74s-95.47-5.25-95.47-11.74,42.75-11.73,95.47-11.73S352.74,457.94,352.74,464.42Z"/><path class="cls-1" d="M249.45,347H94.61c-6,0-6,0-3.18-5.43,9.58-18.1,19.22-36.17,28.69-54.32,1.72-3.3,3.57-4.87,7.68-4.86q121.5.22,243,0c4,0,6,1.3,7.77,4.71q14.43,27.75,29.3,55.26c2.3,4.25,1.19,4.71-3,4.7Q327.15,346.91,249.45,347Z"/><path class="cls-1" d="M259.69,354.41c-20.39,0-40.77.19-61.15-.14-5.09-.08-6.32,1.43-6,6.19.44,5.65,0,11.37.17,17,.09,2.82-.77,3.64-3.61,3.63q-36.45-.15-72.91,0c-3.23,0-3.94-1.06-3.84-4,.21-6.07-.16-12.16.15-18.22.19-3.75-1.16-4.71-4.69-4.56-6.06.25-12.15,0-18.22.12-2.85.08-4.15-.45-4.14-3.78.14-26.26-.09-52.53.16-78.79.13-12.8,11.48-24.07,24.39-25.13,13.28-1.08,26.28,8.3,28.23,21.3.76,5.08,2.77,5.65,7.12,5.64q115-.17,229.93-.05c3.46,0,6,.25,6.71-4.68,2.09-13.77,14.26-23,28-22.21a26.66,26.66,0,0,1,24.78,26c.42,26.06.1,52.13.23,78.2,0,3-1.17,3.57-3.79,3.51-5.88-.14-11.78.21-17.64-.13-4.23-.25-6,.75-5.64,5.4.44,5.85-.05,11.76.17,17.63.1,2.87-.86,3.59-3.64,3.58q-36.46-.15-72.92,0c-3.28,0-3.88-1.15-3.78-4,.18-5.48-.28-11,.15-16.45.38-4.78-.88-6.29-6-6.21C301.25,354.6,280.47,354.41,259.69,354.41Z"/><path class="cls-1" d="M252.68,199.56c0,18.23-.17,36.46.13,54.69.07,4.59-1.37,5.38-5.59,5.35-30.58-.18-61.17-.11-91.75-.07-2.83,0-4.89-.11-6.43-3.38-6.51-13.87-17.9-21.41-32.91-23.31-3.15-.39-3.74-1.32-3.73-4.16.1-21.17-.06-42.35.11-63.52.1-13.62,11.35-25.46,24.92-25.56,37.24-.26,74.49,0,111.74-.18,3.59,0,3.56,1.68,3.55,4.27C252.65,162.31,252.68,180.93,252.68,199.56Z"/><path class="cls-1" d="M267.9,199.48c0-18.42.11-36.84-.1-55.26,0-3.88,1-4.82,4.84-4.8,36.26.14,72.52,0,108.77.11,14.43,0,26.15,10.83,26.47,25.25.48,21.54.15,43.1.27,64.66,0,2.56-.81,3.13-3.28,3.39-15.16,1.59-26.36,9.23-33.14,22.9-1.43,2.87-2.94,3.87-6.16,3.86q-46.44-.21-92.9,0c-3.84,0-4.91-1-4.86-4.85C268,236.32,267.9,217.9,267.9,199.48Z"/></g></svg>