<svg xmlns="http://www.w3.org/2000/svg" xmlns:xlink="http://www.w3.org/1999/xlink" viewBox="0 0 512 512"><defs><style>.cls-1,.cls-3,.cls-4,.cls-5,.cls-6,.cls-7,.cls-9{fill:#fff;}.cls-2{fill:url(#Degradado_sin_nombre_67);}.cls-3{opacity:0.4;}.cls-4{opacity:0.16;}.cls-5{opacity:0.3;}.cls-6{opacity:0.2;}.cls-7{opacity:0.1;}.cls-8{fill:url(#Degradado_sin_nombre_70);}.cls-9{stroke:#fff;stroke-miterlimit:10;stroke-width:3px;}</style><linearGradient id="Degradado_sin_nombre_67" x1="0.29" y1="256" x2="511.71" y2="256" gradientUnits="userSpaceOnUse"><stop offset="0" stop-color="#ffa51d"/><stop offset="1" stop-color="#ff9100"/></linearGradient><linearGradient id="Degradado_sin_nombre_70" x1="161.91" y1="464.19" x2="352.63" y2="464.19" gradientUnits="userSpaceOnUse"><stop offset="0" stop-color="#ff9100"/><stop offset="1" stop-color="#ffa51d"/></linearGradient></defs><g id="背景"><rect class="cls-1" x="-283" y="-2845.59" width="3704" height="16186.59"/></g><g id="图标"><circle class="cls-2" cx="256" cy="256" r="255.71"/><path class="cls-3" d="M355,56c0,13.49-43.75-9.77-97.71-9.77S159.56,69.49,159.56,56s42.23-44,96.2-44S355,42.51,355,56Z"/><path class="cls-4" d="M37.34,181.48S23.23,247.78,72,342.5c24.71,48,62,64.08,45.53,83-13,15-45.89-16.61-70.6-64.58C1.91,273.51,37.34,181.48,37.34,181.48Z"/><circle class="cls-5" cx="125.49" cy="80.66" r="8.61"/><path class="cls-1" d="M96.19,140.9a18.44,18.44,0,1,1-18.44-18.44A18.45,18.45,0,0,1,96.19,140.9Z"/><path class="cls-6" d="M219,416c93,43.22,183.16,21.74,253.34-23.61C427,464.08,347.19,511.71,256.13,511.71c-94.62,0-177.15-51.44-221.37-127.83C88,378.83,149.37,383.67,219,416Z"/><path class="cls-7" d="M278.55,362.93C188.24,304.34,90.46,320.15,14.75,342c35.31,98.9,129.71,169.71,240.74,169.71,94,0,176.09-50.76,220.52-126.33C411.42,403.78,340.22,403,278.55,362.93Z"/><path class="cls-7" d="M233.77,327.84c-71.32,35.3-143,43.48-209.68,34.05,40.27,88.36,129.3,149.82,232.75,149.82,129.8,0,236.94-96.74,253.43-222C429.91,275.79,335.34,277.57,233.77,327.84Z"/><path class="cls-8" d="M352.63,464.19c0,6.47-42.69,11.72-95.36,11.72s-95.36-5.25-95.36-11.72,42.69-11.72,95.36-11.72S352.63,457.72,352.63,464.19Z"/><path class="cls-9" d="M386.25,283.12v134c0,9.62-3.07,12.73-12.7,12.73q-104.32,0-208.65,0c-9.59,0-12.42-2.81-12.42-12.24q0-134.55,0-269.09c0-9.34,2.53-12,12-12q104.91-.06,209.83,0c9.19,0,12,2.85,12,12.08Q386.27,215.84,386.25,283.12ZM269.33,203c-34.75,0-69.5.08-104.25-.1-4.33,0-5.57.88-5.56,5.43q.27,83.22,0,166.43c0,4.14.59,5.66,5.31,5.64q104.53-.27,209.09,0c4,0,5.25-.84,5.24-5.09q-.22-83.52,0-167c0-4.71-1.48-5.36-5.64-5.34C338.83,203.1,304.08,203,269.33,203Zm-.33-7.28c34.94,0,69.88-.06,104.82.09,3.87,0,5.49-.56,5.39-5-.31-14-.23-28,0-42,.05-3.78-.91-5.14-4.92-5.13q-104.82.16-209.65,0c-3.87,0-5.11,1-5,5,.22,13.82.31,27.64,0,41.45-.12,4.73,1.29,5.77,5.84,5.75C199.9,195.67,234.45,195.75,269,195.75Zm.34,191.77c-34.76,0-69.52.08-104.27-.11-4.4,0-5.8,1-5.55,5.5a196.38,196.38,0,0,1,0,22.5c-.34,5.57,1.24,7.37,7.08,7.33,39.3-.26,78.6-.14,117.9-.14,29.43,0,58.85-.09,88.28.09,4.69,0,6.74-.95,6.45-6.14a217.69,217.69,0,0,1,0-23.69c.24-4.6-1.3-5.47-5.61-5.44C338.85,387.6,304.1,387.52,269.34,387.52Z"/><path class="cls-9" d="M213.67,132.25c-6.7,0-13.39,0-20.09,0-2.71,0-5.47-.43-5.35-3.95.11-3.33,2.89-3.19,5.27-3.2h40.19c2.43,0,5.16,0,5.36,3.16.21,3.51-2.56,4-5.28,4C227.07,132.27,220.37,132.25,213.67,132.25Z"/><path class="cls-9" d="M325.24,125.08q10,0,20.09,0c2.45,0,5.08,0,5.17,3.33s-2.37,3.81-4.89,3.81q-20.69.06-41.37,0c-2.3,0-4.5-.74-4.58-3.52-.09-3.29,2.36-3.62,4.9-3.62Z"/><path class="cls-9" d="M269.35,217q31.66,0,63.33,0a40.63,40.63,0,0,1,5.29.35,3.18,3.18,0,0,1,2.79,3.33,3.29,3.29,0,0,1-2.77,3.38,30.1,30.1,0,0,1-5.29.37q-63.33,0-126.66,0c-1.18,0-2.37,0-3.55,0-2.44-.1-4.47-1.17-4.51-3.72s2.09-3.61,4.49-3.65c4.14-.08,8.28-.05,12.43-.05Z"/><path class="cls-9" d="M247.06,157.09A12.13,12.13,0,0,1,259,169.26a12.2,12.2,0,1,1-24.39-.66A12.05,12.05,0,0,1,247.06,157.09Zm-.15,7.06c-3.15,0-5,1.78-5.12,4.6-.17,3.14,1.63,5.21,4.92,5.27a4.6,4.6,0,0,0,5-4.61C251.94,166.25,250.06,164.4,246.91,164.15Z"/><path class="cls-9" d="M291.7,157.09a12,12,0,0,1,12.47,11.55,12.22,12.22,0,1,1-24.43.57A12.22,12.22,0,0,1,291.7,157.09Zm5.38,12.12c-.43-2.71-1.58-4.76-4.69-5C289,164,287.1,165.85,287,169a4.53,4.53,0,0,0,4.55,5C294.82,174.23,296.44,172.31,297.08,169.21Z"/><path class="cls-9" d="M201.46,181.14a12.25,12.25,0,0,1-12.11-12,12.08,12.08,0,0,1,12.57-12,11.93,11.93,0,0,1,11.75,12.22A12.08,12.08,0,0,1,201.46,181.14Zm-.4-17c-2.45-.06-4.26,1.67-4.48,4.56A4.49,4.49,0,0,0,201,174c3.38.29,5.32-1.58,5.43-4.8C206.54,166.21,204.88,164.36,201.06,164.18Z"/><path class="cls-9" d="M336.84,181.14a12.07,12.07,0,0,1-11.78-12.24,12.14,12.14,0,0,1,24.27.64A12.18,12.18,0,0,1,336.84,181.14Zm.61-7.11c2.9-.26,4.71-1.94,4.69-4.91s-1.66-4.81-4.78-4.88c-3.43-.08-5.21,1.88-5.08,5.12C332.41,172.28,334.26,174,337.45,174Z"/><path class="cls-9" d="M269.35,402.48c6.89,0,13.77,0,20.65,0,2.3,0,4.6.25,4.77,3.11.19,3.16-2.27,4-4.74,4q-20.65.14-41.3,0c-2.47,0-4.94-.81-4.77-4,.15-2.87,2.44-3.14,4.74-3.14C255.58,402.49,262.47,402.48,269.35,402.48Z"/></g></svg>