<svg xmlns="http://www.w3.org/2000/svg" xmlns:xlink="http://www.w3.org/1999/xlink" viewBox="0 0 621.97 627.79"><defs><style>.cls-1{fill:url(#Degradado_sin_nombre_78);}.cls-2,.cls-3,.cls-4,.cls-5,.cls-6,.cls-7{fill:#fff;}.cls-2{opacity:0.4;}.cls-3{opacity:0.16;}.cls-4{opacity:0.3;}.cls-6{opacity:0.2;}.cls-7{opacity:0.1;}.cls-8{fill:url(#未命名的渐变_28);}.cls-9{fill:url(#未命名的渐变_305);}.cls-10{fill:url(#未命名的渐变_305-2);}</style><linearGradient id="Degradado_sin_nombre_78" x1="54.98" y1="320.98" x2="566.98" y2="320.98" gradientUnits="userSpaceOnUse"><stop offset="0" stop-color="#ff6aef"/><stop offset="0" stop-color="#df294f"/><stop offset="1" stop-color="#d41216"/></linearGradient><linearGradient id="未命名的渐变_28" x1="218.24" y1="529.6" x2="408.39" y2="529.6" gradientUnits="userSpaceOnUse"><stop offset="0" stop-color="#ff6aef"/><stop offset="1" stop-color="#7167ff"/></linearGradient><linearGradient id="未命名的渐变_305" x1="304.58" y1="255.01" x2="334.6" y2="255.01" gradientUnits="userSpaceOnUse"><stop offset="0.29" stop-color="#fff"/><stop offset="1" stop-color="#c17fff"/></linearGradient><linearGradient id="未命名的渐变_305-2" x1="205.29" y1="334.05" x2="433.88" y2="334.05" xlink:href="#未命名的渐变_305"/></defs><g id="图标"><circle class="cls-1" cx="310.98" cy="320.98" r="256"/><path class="cls-2" d="M410.72,122.64c0,13.45-43.61-9.74-97.41-9.74s-97.41,23.19-97.41,9.74S258,78.81,311.8,78.81,410.72,109.19,410.72,122.64Z"/><path class="cls-3" d="M92.07,246.37S78,312.74,126.79,407.57c24.74,48,62,64.16,45.59,83.12-13,15-45.95-16.63-70.68-64.65C56.61,338.5,92.07,246.37,92.07,246.37Z"/><circle class="cls-4" cx="180.33" cy="145.44" r="8.62"/><path class="cls-5" d="M151,205.75a18.46,18.46,0,1,1-18.46-18.46A18.46,18.46,0,0,1,151,205.75Z"/><path class="cls-6" d="M273.92,481.18c93.12,43.26,183.37,21.76,253.63-23.64C482.21,529.29,402.27,577,311.12,577c-94.73,0-177.36-51.5-221.62-128C142.76,443.94,204.23,448.8,273.92,481.18Z"/><path class="cls-7" d="M333.56,428c-90.41-58.66-188.3-42.83-264.1-21,35.35,99,129.85,169.91,241,169.91,94.11,0,176.3-50.82,220.77-126.48C466.58,468.92,395.3,468.09,333.56,428Z"/><path class="cls-7" d="M288.73,392.9C217.32,428.24,145.54,436.42,78.82,427c40.31,88.46,129.44,150,233,150,130,0,237.22-96.86,253.72-222.3C485.09,340.79,390.41,342.57,288.73,392.9Z"/><ellipse class="cls-8" cx="313.31" cy="529.6" rx="95.07" ry="11.69"/><rect class="cls-9" x="304.58" y="192.04" width="30.01" height="125.93"/><path class="cls-10" d="M353.51,222.4v29.43a86.58,86.58,0,1,1-67.84,0V222.4c-46.48,14.5-80.38,57.81-80.38,109a114.3,114.3,0,0,0,228.59,0C433.88,280.21,400,236.9,353.51,222.4Z"/></g></svg>