<svg xmlns="http://www.w3.org/2000/svg" xmlns:xlink="http://www.w3.org/1999/xlink" viewBox="0 0 512 512"><defs><style>.cls-1,.cls-3,.cls-4,.cls-5,.cls-6,.cls-7{fill:#fff;}.cls-2{fill:url(#Degradado_sin_nombre_77);}.cls-3{opacity:0.4;}.cls-4{opacity:0.16;}.cls-5{opacity:0.3;}.cls-6{opacity:0.2;}.cls-7{opacity:0.1;}.cls-8{fill:url(#Degradado_sin_nombre_82);}</style><linearGradient id="Degradado_sin_nombre_77" y1="256" x2="512" y2="256" gradientUnits="userSpaceOnUse"><stop offset="0" stop-color="#5db9f7"/><stop offset="1" stop-color="#1b79fd"/></linearGradient><linearGradient id="Degradado_sin_nombre_82" x1="161.8" y1="464.42" x2="352.74" y2="464.42" xlink:href="#Degradado_sin_nombre_77"/></defs><g id="背景"><rect class="cls-1" x="-283" y="-6817.59" width="3704" height="16186.59"/></g><g id="图标"><circle class="cls-2" cx="256" cy="256" r="256"/><path class="cls-3" d="M355.09,55.77c0,13.51-43.8-9.78-97.82-9.78s-97.81,23.29-97.81,9.78,42.27-44,96.3-44S355.09,42.27,355.09,55.77Z"/><path class="cls-4" d="M37.09,181.39S23,247.77,71.81,342.59c24.74,48,62,64.16,45.59,83.13-13,15-45.95-16.63-70.69-64.66C1.62,273.53,37.09,181.39,37.09,181.39Z"/><circle class="cls-5" cx="125.35" cy="80.46" r="8.62"/><path class="cls-1" d="M96,140.77a18.46,18.46,0,1,1-18.46-18.46A18.46,18.46,0,0,1,96,140.77Z"/><path class="cls-6" d="M218.94,416.2c93.12,43.27,183.37,21.76,253.62-23.64C427.23,464.31,347.29,512,256.13,512c-94.72,0-177.35-51.5-221.62-128C87.78,379,149.25,383.82,218.94,416.2Z"/><path class="cls-7" d="M278.58,363.06c-90.41-58.67-188.3-42.84-264.11-21,35.36,99,129.86,169.9,241,169.9,94.11,0,176.29-50.82,220.77-126.48C411.6,404,340.31,403.12,278.58,363.06Z"/><path class="cls-7" d="M233.75,327.92C162.34,363.26,90.55,371.45,23.83,362c40.32,88.46,129.45,150,233,150,130,0,237.21-96.85,253.72-222.3C430.11,275.82,335.43,277.59,233.75,327.92Z"/><path class="cls-8" d="M352.74,464.42c0,6.49-42.74,11.74-95.47,11.74s-95.47-5.25-95.47-11.74,42.75-11.73,95.47-11.73S352.74,457.94,352.74,464.42Z"/><path class="cls-1" d="M90.62,263.94c.19-12.74,1.14-27,7.4-40.5,2-4.34,3.86-5.59,8.85-4.46,25.95,5.91,52.1,7.68,78.36,1.77a138.49,138.49,0,0,0,44.9-19.3,15.91,15.91,0,0,0,7.25-10.6c1.81-8,4.22-15.84,6-23.85,1-4.62,2.36-5.39,6.68-2.87,26.4,15.35,53.14,30.15,79.41,45.74,12.13,7.2,24.34,8.82,37.86,5.54,12.18-3,24.62-3.75,37-.68,20.79,5.15,38.18,28,37.26,49.42-.52,12-8.69,19.92-16.7,27.27-19,17.46-42.73,25.8-67.11,32.4-24.06,6.51-48.72,9.81-73.37,13.13-22,2.95-43,10.07-64.67,14.56-23.85,4.94-47.64,10.17-71.48,15.15a60.27,60.27,0,0,1-20.05.6c-11.84-1.52-19.06-8.54-23-19.64C97.62,326.18,90.78,288.46,90.62,263.94Zm166.94-71.31c-.81,2.62-1.78,4.63-2,6.72-.83,7.24-4.92,11.9-10.71,16a152.81,152.81,0,0,1-48.75,23.35C171.19,245.48,146,246,120.61,242c-5.73-.89-8.79-.73-9.52,6.52-2.1,21.09.31,41.71,4.67,62.23,2.56,12,2.62,12.17,15,11.42,32.35-2,64.14-7.7,95.69-14.79,34.91-7.84,69.27-17.78,103.67-27.57,2.5-.71,6.31-.32,5.44-5.23-2.1-11.85,0-23.25,4.51-34.27,1-2.34,1.52-4-2-4.77-8.59-1.93-16-6.73-23.55-10.93C295.6,214.16,276.85,203.49,257.56,192.63Zm157.19,53.81a106.1,106.1,0,0,1-34,22c-62.54,25.73-128.09,40.79-194.15,53.87-21.68,4.3-43.69,6.33-65.81,7.58,3.59,18,4.91,19.29,22.16,16.53,23.06-3.7,45.76-9.23,68.53-14.42,22.51-5.13,44.82-11.4,67.56-15.18,23.77-3.94,47.79-6.37,71.17-12.46,21.51-5.6,42.43-12.66,59.8-27.31C422.91,266.25,423.62,261.44,414.75,246.44Zm-72.06,29.95c24.93-8.76,48.9-17.34,68.48-35.56-9.53-8.68-20.58-8.9-31.83-7.45-8.84,1.14-17.48,3.92-26.46,4-3.57,0-4.7,2.16-5.84,4.68C342.21,252.72,340.8,263.88,342.69,276.39Z"/><path class="cls-1" d="M162.54,259.36c13.89.09,24.32,10.82,24.07,24.73a24.32,24.32,0,0,1-48.62-.44C137.93,269.76,148.54,259.27,162.54,259.36Z"/></g></svg>