<svg xmlns="http://www.w3.org/2000/svg" xmlns:xlink="http://www.w3.org/1999/xlink" viewBox="0 0 621.97 627.79"><defs><style>.cls-1{fill:url(#Degradado_sin_nombre_31);}.cls-2,.cls-3,.cls-4,.cls-5,.cls-6,.cls-7{fill:#fff;}.cls-2{opacity:0.4;}.cls-3{opacity:0.16;}.cls-4{opacity:0.3;}.cls-6{opacity:0.2;}.cls-7{opacity:0.1;}.cls-8{fill:url(#未命名的渐变_229);}.cls-9{fill:url(#未命名的渐变_243);}</style><linearGradient id="Degradado_sin_nombre_31" x1="88.16" y1="303.3" x2="600.16" y2="303.3" gradientUnits="userSpaceOnUse"><stop offset="0" stop-color="#bfffcc"/><stop offset="0" stop-color="#6beca4"/><stop offset="1" stop-color="#00d472"/></linearGradient><linearGradient id="未命名的渐变_229" x1="249.96" y1="511.73" x2="440.9" y2="511.73" gradientUnits="userSpaceOnUse"><stop offset="0" stop-color="#bfffcc"/><stop offset="1" stop-color="#00d472"/></linearGradient><linearGradient id="未命名的渐变_243" x1="214.54" y1="302.28" x2="473.77" y2="302.28" gradientUnits="userSpaceOnUse"><stop offset="0.28" stop-color="#fff"/><stop offset="1" stop-color="#aaffc0"/></linearGradient></defs><g id="图标"><circle class="cls-1" cx="344.16" cy="303.3" r="256"/><path class="cls-2" d="M443.25,103.08c0,13.5-43.8-9.79-97.82-9.79s-97.82,23.29-97.82,9.79,42.28-44,96.3-44S443.25,89.57,443.25,103.08Z"/><path class="cls-3" d="M125.25,228.7S111.12,295.07,160,389.9c24.74,48,62,64.16,45.58,83.12-13,15-45.94-16.63-70.68-64.66C89.78,320.83,125.25,228.7,125.25,228.7Z"/><path class="cls-4" d="M222.12,127.77a8.62,8.62,0,1,1-8.62-8.62A8.62,8.62,0,0,1,222.12,127.77Z"/><path class="cls-5" d="M184.17,188.07a18.47,18.47,0,1,1-18.47-18.46A18.46,18.46,0,0,1,184.17,188.07Z"/><path class="cls-6" d="M307.09,463.5c93.13,43.27,183.37,21.77,253.63-23.64C515.38,511.61,435.44,559.3,344.29,559.3c-94.73,0-177.35-51.49-221.62-128C175.93,426.27,237.41,431.12,307.09,463.5Z"/><path class="cls-7" d="M366.73,410.36c-90.41-58.67-188.3-42.84-264.1-21,35.36,99,129.86,169.9,241,169.9,94.11,0,176.29-50.81,220.76-126.47C499.76,451.25,428.47,450.42,366.73,410.36Z"/><path class="cls-7" d="M321.9,375.22C250.5,410.57,178.71,418.75,112,409.31c40.31,88.46,129.45,150,233,150,130,0,237.21-96.85,253.72-222.3C518.27,323.12,423.59,324.89,321.9,375.22Z"/><path class="cls-8" d="M440.9,511.73c0,6.48-42.74,11.73-95.47,11.73S250,518.21,250,511.73,292.7,500,345.43,500,440.9,505.24,440.9,511.73Z"/><path class="cls-9" d="M452.86,302.13a20.92,20.92,0,0,0,0-41.83,88.5,88.5,0,0,0-73.74,39.48l-1.31,1.91-1.3-1.91a88.46,88.46,0,0,0-63.4-38.87A65.83,65.83,0,0,1,375.81,215a20.91,20.91,0,1,0,0-41.82,107.74,107.74,0,0,0-104.35,81.74l-1.22,5.39h-29.3a20.92,20.92,0,1,0,0,41.83h18.43l-14.08,56.52a65.49,65.49,0,0,1-22.87,35.48,20.91,20.91,0,1,0,26.08,32.69h0a107,107,0,0,0,37.31-58.08l16.69-66.61a46.76,46.76,0,0,1,39,20.87l11,16.43L346,349.08a38.36,38.36,0,0,1-31.91,17.4,20.91,20.91,0,1,0,0,41.82,79.88,79.88,0,0,0,63.74-31.56,79.94,79.94,0,0,0,63.48,31.39,20.92,20.92,0,0,0,0-41.83,38.35,38.35,0,0,1-31.91-17.39l-6.44-9.57,11-16.43A46.74,46.74,0,0,1,452.86,302.13Z"/></g></svg>