<svg width="170" height="170" viewBox="0 0 170 170" fill="none" xmlns="http://www.w3.org/2000/svg">
<circle cx="85.5" cy="87.5" r="75.5" fill="#E6F9F3"/>
<path d="M80.6154 82.8808C80.6154 86.2715 80.6154 89.6622 80.6154 93.053C80.6154 95.8079 82.11 97.7152 84.8858 97.5033C87.6616 97.5033 89.1562 95.3841 89.1562 92.841C89.3698 86.6953 89.3698 80.3377 89.1562 74.192C89.1562 71.2251 90.0104 70.3775 92.9997 71.4371C106.452 76.947 119.903 82.0331 133.142 87.7549C134.85 88.3907 136.772 90.7218 136.985 92.4172C137.199 93.9006 135.064 96.2318 133.569 97.0795C122.039 102.801 110.508 108.311 98.9783 113.821C89.7968 118.06 80.1883 118.06 71.0069 113.821C59.4767 108.311 47.9465 103.013 36.6298 97.2914C34.9217 96.4437 33 94.1126 33 92.4172C33 90.7218 35.1352 88.6026 36.8434 87.7549C49.8682 82.245 63.3201 77.1589 76.3449 71.8609C80.1883 70.3775 80.4018 70.8013 80.6154 74.8278C80.4018 77.3708 80.4018 80.1258 80.6154 82.8808C80.4018 82.8808 80.4018 82.8808 80.6154 82.8808ZM54.3522 89.0265C52.8575 89.4503 51.1493 89.4503 49.6547 90.298C48.3736 90.9338 46.8789 92.4172 46.8789 93.6887C46.6654 94.5364 48.3735 96.6556 49.4412 96.8675C52.4305 97.5033 55.4198 97.7152 58.1956 97.0795C59.4767 96.8675 61.1849 94.7483 61.6119 93.2649C61.8255 92.4172 59.4767 90.9338 58.1956 90.0861C57.128 89.4503 55.6333 89.4503 54.3522 89.0265Z" fill="#76FF03"/>
<path d="M136.982 109.508C137.194 112.701 135.501 115.042 132.749 116.318C121.955 121.426 111.372 126.746 100.366 131.641C89.5716 136.323 78.7772 136.11 68.1945 131.003C58.0351 126.108 47.8757 121 37.5046 116.318C33.4832 114.403 32.4249 109.083 33.2716 106.103C33.9065 103.762 35.5998 103.55 37.7163 104.614C46.3941 109.083 55.4953 113.126 64.1731 117.595C77.719 124.831 91.2648 125.47 105.022 118.021C113.489 113.552 122.378 109.508 131.056 105.252C135.712 103.124 136.982 103.975 136.982 109.508Z" fill="#76FF03"/>
<path d="M85.2159 39C93.0893 39 99.213 45.2934 98.9943 53.1059C98.9943 60.7013 92.4332 67.2117 84.9972 66.9947C77.1238 66.9947 71 60.4843 71 52.6718C71 44.8594 77.1238 39 85.2159 39Z" fill="#76FF03"/>
</svg>
