<svg width="170" height="170" viewBox="0 0 170 170" fill="none" xmlns="http://www.w3.org/2000/svg">
<circle cx="85.5" cy="87.5" r="75.5" fill="#E6F9F3"/>
<path d="M84.8252 128C74.165 128 63.5049 128 52.6699 128C49.8738 128 49 126.954 49 124.339C49.1748 114.055 49.1748 103.771 49 93.4862C49 91.0459 49.8738 90 52.3204 90C74.1651 90 95.835 90 117.68 90C119.951 90 121 90.8715 121 93.1376C121 103.596 121 114.055 121 124.514C121 126.954 119.777 127.826 117.505 127.826C106.67 127.826 95.8349 128 84.8252 128ZM85 97.3211C82.7282 97.3211 80.6311 97.1468 78.3592 97.4954C77.6602 97.4954 77.1359 98.5413 76.4369 99.2385C77.1359 99.7615 77.6602 100.807 78.3592 100.807C82.7282 100.982 87.2719 100.982 91.6408 100.807C92.3398 100.807 93.0388 99.7615 93.7379 99.2385C93.0388 98.5413 92.3398 97.4954 91.466 97.4954C89.5437 97.1468 87.2718 97.3211 85 97.3211Z" fill="#76FF03"/>
<path d="M85.1779 62C93.9842 62 102.791 62 111.773 62C115.648 62 116 62.5294 116 66.4118C116 71.8824 116 77.3529 116 82.8235C116 84.4118 116 86 113.886 86C111.597 86 111.949 84.2353 111.949 82.8235C111.949 78.2353 111.949 73.4706 111.949 68.8824C111.949 66.9412 111.245 66.0588 109.307 66.0588C93.1036 66.0588 76.9 66.0588 60.6964 66.0588C58.759 66.0588 58.0545 66.5882 58.0545 68.5294C58.2307 73.2941 58.0545 78.0588 58.0545 82.8235C58.0545 84.4118 58.0545 85.8236 55.941 85.8236C53.8275 85.8236 54.0036 84.2353 54.0036 83C54.0036 77.1765 54.0036 71.353 54.0036 65.5294C54.0036 62.8824 55.2365 62 57.7023 62C67.0369 62 76.1955 62 85.1779 62Z" fill="#76FF03"/>
<path d="M84.7417 58.8228C76.1052 58.8228 67.6451 58.8228 59.0086 58.8228C57.5986 58.8228 55.836 59.1701 56.0122 56.9132C56.0122 54.8299 57.7748 55.0035 59.1848 55.0035C76.4578 55.0035 93.5545 55.0035 110.827 55.0035C112.414 55.0035 114 55.0035 114 57.0868C114 59.1701 112.237 58.9965 110.827 58.9965C102.015 58.8229 93.3782 58.8228 84.7417 58.8228Z" fill="#76FF03"/>
<path d="M63 85.8271C67.0976 81.1605 70.6829 77.1852 74.2683 73.037C75.4634 71.6543 76.8293 71.6543 78.1951 73.037C82.2927 77.1852 86.561 81.3333 91 86C81.6098 85.8272 72.561 85.8271 63 85.8271Z" fill="#76FF03"/>
<path d="M85 48.0537C93.0649 48.0537 101.13 48.0537 109.02 48.0537C110.422 48.0537 112 47.6949 112 49.8474C112 52 110.422 52 109.02 52C93.065 52 77.1104 52 61.1558 52C59.7532 52 58 52 58 49.8474C58 47.5155 59.9286 48.0537 61.1558 48.0537C69.2208 48.0537 77.1104 48.0537 85 48.0537Z" fill="#76FF03"/>
<path d="M108 86.7115C104.087 86.7115 100.53 87.4734 97.5066 86.521C95.0166 85.7591 92.5267 83.2828 91.2817 80.8066C90.0367 78.1399 93.2381 76.997 94.6609 75.2827C95.0166 74.7112 96.973 75.0922 97.5066 75.6636C101.064 79.0922 104.265 82.7114 108 86.7115Z" fill="#76FF03"/>
<path d="M101 73.4045C102.103 72.6093 103.022 71.2177 104.125 71.0189C105.963 70.8201 107.434 72.2117 106.883 74.1997C106.515 75.3926 105.044 76.7842 104.125 76.983C103.206 77.1818 102.103 75.5914 101 74.7962C101 74.3986 101 74.0009 101 73.4045Z" fill="#76FF03"/>
</svg>
