<?xml version="1.0" encoding="utf-8"?>
<!-- Generator: Adobe Illustrator 25.2.3, SVG Export Plug-In . SVG Version: 6.00 Build 0)  -->
<svg version="1.1" id="Capa_2_1_" xmlns="http://www.w3.org/2000/svg" xmlns:xlink="http://www.w3.org/1999/xlink" x="0px" y="0px"
	 viewBox="0 0 56 56" style="enable-background:new 0 0 56 56;" xml:space="preserve">
<path d="M7.6,44.8h40.8c0.7,0,1.3,0.6,1.3,1.3s-0.6,1.3-1.3,1.3H7.6c-0.7,0-1.3-0.6-1.3-1.3S6.9,44.8,7.6,44.8z"/>
<path d="M11.4,40.5h31.8c0.7,0,1.3,0.6,1.3,1.3v0c0,0.7-0.6,1.3-1.3,1.3H11.4c-0.7,0-1.3-0.6-1.3-1.3v0
	C10.1,41.1,10.7,40.5,11.4,40.5z"/>
<path d="M41.7,21.1c-0.8-0.3-1.2-0.6-1.4-1.4c-1.2-4.3-4-7.1-8.4-7.8c-4.5-0.7-8,1-10.5,4.8c-0.5,0.7-0.9,1-1.8,1
	c-4.1,0.3-6.7,2.4-7.7,6.4c-0.2,0.9-0.7,1.3-1.5,1.6c-4.3,1.9-5.3,7.4-2,10.8c1.5,1.6,3.5,2,5.6,2c4.2,0.1,8.4-0.2,12.6,0.1
	c0,0,0,0,0,0c0.5-0.1,0.9-0.1,1.4,0c0,0,0,0,0,0.1c3.3-0.3,6.6-0.1,9.9-0.1c1.3,0,2.5-0.1,3.7-0.4c3.8-1.2,6.3-4.6,6.4-8.5
	C48.2,25.9,45.6,22.3,41.7,21.1z M34.1,27.8c0,0.1-0.1,0.1-0.1,0.1l-4.3,2.5l-0.9,0.5l-3.4,1.9c-0.2,0.1-0.4,0-0.5-0.1
	c0-0.1,0-0.1,0-0.2v-0.7v-4.3v-4.9c0-0.2,0.2-0.4,0.4-0.4c0.1,0,0.1,0,0.2,0l4.3,2.5l4.3,2.5C34.2,27.4,34.2,27.6,34.1,27.8z"/>
</svg>
