<svg id="Capa_1" data-name="Capa 1" xmlns="http://www.w3.org/2000/svg" viewBox="0 0 15 15"><defs><style>.cls-1{fill:#e84629;}.cls-2{fill:#040505;}.cls-3{fill:#fff;}</style></defs><path class="cls-1" d="M10.37,9.61a3.59,3.59,0,0,1-3.5-1.7A3.48,3.48,0,0,1,9,2.71a6,6,0,0,1,2.52,0,3.49,3.49,0,0,1,2.89,3.69A3.54,3.54,0,0,1,11,9.61Z"/><path class="cls-2" d="M2,12.1a4.62,4.62,0,0,1,2.35.16,3.83,3.83,0,0,0,4.19-1.73.91.91,0,0,1,.08-.13c.14-.13.15-.53.44-.34s0,.41-.12.58a4,4,0,0,1-1.7,1.63,4.06,4.06,0,0,1-2.9.37,5.94,5.94,0,0,0-2.14-.18c-.74.09-.87-.1-.57-.77a1.27,1.27,0,0,0-.16-1.18,4.26,4.26,0,0,1,4-6.29,2.83,2.83,0,0,1,.3,0c.17,0,.47,0,.42.28s-.29.11-.45.1a3.8,3.8,0,0,0-3.86,2,3.53,3.53,0,0,0-.1,3.5A2.08,2.08,0,0,1,2,12.1Z"/><path class="cls-3" d="M10.23,7.42a5,5,0,0,1-1.61.09c-.42,0-.36-.27-.17-.5s.62-.71.93-1.07.47-.68.15-1-.68-.16-.91.23c-.07.12-.17.2-.3.12s-.09-.25,0-.39a1,1,0,0,1,1.35-.44.8.8,0,0,1,.42,1.12,3.46,3.46,0,0,1-.79,1.07c-.1.12-.33.23-.2.42s.27.07.41.1S10,7.1,10.23,7.42Z"/><path class="cls-3" d="M12,6c0,.35,0,.7,0,1,0,.19,0,.46-.23.47s-.26-.3-.27-.5c0-.47,0-.94,0-1.41,0-.25,0-.51-.4-.44-.11,0-.26,0-.28-.14s.1-.22.22-.25c.27-.09.55-.35.83-.19S12,5,12,5.29s0,.44,0,.66Z"/><circle cx="2.7" cy="8.68" r="0.44"/><circle cx="4.12" cy="8.68" r="0.44"/><circle cx="5.46" cy="8.68" r="0.44"/></svg>