<?xml version="1.0" encoding="utf-8"?>
<!-- Generator: Adobe Illustrator 25.2.3, SVG Export Plug-In . SVG Version: 6.00 Build 0)  -->
<svg version="1.1" id="Capa_1" xmlns="http://www.w3.org/2000/svg" xmlns:xlink="http://www.w3.org/1999/xlink" x="0px" y="0px"
	 viewBox="0 0 56 56" style="enable-background:new 0 0 56 56;" xml:space="preserve">
<style type="text/css">
	.st0{fill:url(#SVGID_1_);}
	.st1{fill:#48AC36;}
	.st2{fill:#48AC38;}
	.st3{fill:#FFFFFF;}
	.st4{fill:#41A6DD;}
	.st5{fill:url(#SVGID_2_);}
</style>
<linearGradient id="SVGID_1_" gradientUnits="userSpaceOnUse" x1="1.1206" y1="34.8371" x2="54.3762" y2="34.8371" gradientTransform="matrix(1 0 0 -1 0 56)">
	<stop  offset="0" style="stop-color:#55C3E9"/>
	<stop  offset="0.16" style="stop-color:#49C0ED"/>
	<stop  offset="0.37" style="stop-color:#3BBFEF"/>
	<stop  offset="0.54" style="stop-color:#2EABE2"/>
	<stop  offset="0.67" style="stop-color:#33A8E0"/>
	<stop  offset="0.82" style="stop-color:#3999D5"/>
	<stop  offset="1" style="stop-color:#3784C5"/>
</linearGradient>
<path class="st0" d="M54.4,18c0,4.3-2.5,8.3-6.5,9.9c-0.8,0.3-1.6,0.6-2.5,0.7c-0.3,0-0.5,0.2-0.7,0.4c-2.2,2.7-4.4,5.3-6.7,7.9
	c-0.6,0.8-1.6,1.2-2.6,1.2c-0.7,0-1.3-0.4-1.5-1.1c-0.2-0.6-0.2-1.3,0-1.9c0.3-1.2,0.7-2.3,1.1-3.4c0.1-0.4,0-0.5-0.3-0.5
	c-1.8-0.2-3.4-0.8-4.9-1.8c-0.5-0.4-1-0.8-1.4-1.2c-0.2-0.2-0.3-0.2-0.5,0c-2.1,2-5,2.9-7.9,2.5c-2.4-0.3-4.6-1.5-6.2-3.3
	C13.6,27,13.3,26.9,13,27c-0.7,0.2-1.5,0.3-2.2,0.4c-4.1,0-7.7-2.5-9-6.4c-0.6-1.6-0.7-3.4-0.3-5.1c0.4-2.2,1.7-4.2,3.6-5.5
	c0.5-0.4,1-1,1.3-1.5c1.6-2.1,3.8-3.7,6.4-4.3c4.1-1.1,8.5,0.3,11.2,3.5c0.3,0.3,0.6,0.2,0.8,0.1c1-0.3,1.9-0.4,2.9-0.3
	c0.7,0.1,1.3,0.3,1.9,0.4c1.2,0.3,2.4,0.8,3.4,1.6c0.1,0.1,0.2,0,0.3,0c1.3-0.5,2.7-0.8,4.2-0.7c0.3,0,0.5-0.1,0.8-0.2
	C39.9,8,42,7.4,44,7.5c1,0.1,2,0.2,3,0.5c1.3,0.4,2.5,1.1,3.6,2c1.8,1.5,3,3.5,3.5,5.8C54.3,16.5,54.4,17.3,54.4,18z M20.7,21.7
	L20.7,21.7v1.5c0,1.3,0,1.2,1.3,1.3c0.5,0,0.7-0.1,0.6-0.6s0.2-0.8,0.8-0.8h8.7c0.6,0,0.8,0.2,0.8,0.8s0,0.7,0.8,0.7h0.2
	c0.7,0,0.9-0.1,0.9-0.8c0-1.2,0-2.5,0-3.7c0-0.2,0-0.5-0.1-0.7c-0.1-0.3-0.5-0.6-0.4-0.9c0.1-0.3,0.5-0.5,0.8-0.7
	c0.3-0.2,0.3-0.3,0.2-0.5C35.2,16.9,35,17,34.9,17c-0.2,0-0.4,0-0.6,0c-0.3,0.1-0.7-0.1-0.8-0.4c-0.4-0.6-0.9-1.3-1.4-1.9
	c-0.2-0.3-0.6-0.5-1-0.5c-2.2,0-4.5,0-6.7,0c-0.4,0-0.7,0.1-0.9,0.5L22,16.7c-0.1,0.2-0.3,0.3-0.5,0.3c-0.3-0.1-0.6-0.1-0.8,0
	c-0.1,0-0.3-0.2-0.4,0c-0.1,0.2,0,0.4,0.1,0.5s0.3,0.2,0.5,0.3c0.6,0.3,0.6,0.4,0.3,1c-0.2,0.3-0.3,0.6-0.4,0.9
	C20.7,20.4,20.7,21.1,20.7,21.7z M51.3,20.5c-0.1-0.2-0.2-0.4-0.3-0.5l-6.3-6.3c-0.5-0.5-0.5-0.5-1,0c-2,1.9-3.8,4-5.8,5.8
	c-0.3,0.3-0.6,0.5-0.7,0.9c0.5,0,1,0,1.5,0c0.4,0,0.7-0.1,0.9-0.4c1.4-1.4,2.9-2.8,4.3-4.3c0.3-0.3,0.5-0.3,0.8,0
	c1.4,1.5,2.9,2.9,4.4,4.4c0.1,0.1,0.3,0.2,0.5,0.2C50.1,20.5,50.7,20.5,51.3,20.5z M9,17.1c0,2,0,3.7,0,5.5
	c-0.1,0.6,0.3,1.2,0.9,1.3c0.1,0,0.2,0,0.3,0c1.5,0,2.9,0,4.4,0c0.9,0,1.3-0.4,1.3-1.3v-9.9c0-0.2,0-0.5,0-0.7
	c0-0.4-0.4-0.7-0.8-0.8c-1.7,0-3.5,0-5.3,0C9.5,11.2,9,11.7,9,12C9.1,13.8,9,15.6,9,17.1L9,17.1z M39.5,17l1.2-1.1
	c0.3-0.4,0.5-0.9,0.4-1.4c-0.2-0.4-0.6-0.1-0.9-0.2c-0.1,0-0.2,0-0.3,0c-0.3,0-0.4,0.1-0.4,0.4C39.5,15.6,39.5,16.3,39.5,17L39.5,17
	z M43.7,19.4c0.4,0.1,0.5-0.1,0.5-0.4c0-0.3-0.1-0.4-0.4-0.4c-0.3,0-0.5,0.1-0.5,0.5C43.2,19.3,43.2,19.4,43.7,19.4L43.7,19.4z
	 M43.7,18.2c0.3,0,0.5,0,0.5-0.4c0-0.4-0.1-0.5-0.5-0.5c-0.4,0-0.5,0.1-0.5,0.4C43.2,18.1,43.2,18.3,43.7,18.2L43.7,18.2z
	 M44.9,17.4c-0.3,0-0.5,0-0.5,0.4c0,0.4,0.1,0.5,0.5,0.5c0.4,0,0.5-0.1,0.5-0.4C45.3,17.5,45.2,17.3,44.9,17.4L44.9,17.4z
	 M44.8,18.5c-0.3-0.1-0.3,0.1-0.3,0.4c0,0.3,0.1,0.4,0.5,0.4c0.3,0,0.4-0.2,0.5-0.5C45.3,18.6,45.1,18.5,44.8,18.5L44.8,18.5z"/>
<path class="st1" d="M29,45.2c0-0.7,0-1.4,0-2.2c0.1-1.7,1.5-3,3.2-2.9c0.5,0,1,0.2,1.4,0.4c0.3,0.2,0.6,0.2,0.9,0
	c1.5-0.8,3.5-0.3,4.3,1.3c0.2,0.4,0.3,0.9,0.4,1.3c0.1,1.5,0,3,0,4.5c0,0.6-0.4,1.1-1,1.1c-0.1,0-0.1,0-0.2,0c-0.6,0-1.1-0.4-1.1-1
	c0,0,0-0.1,0-0.1c0-1.4,0-2.8,0-4.1c0.1-0.4-0.2-0.8-0.6-0.9c-0.1,0-0.1,0-0.2,0c-0.5,0-0.7,0.3-0.7,0.8c0,1.4,0,2.8,0,4.1
	c0,0.5-0.3,1-0.8,1.1c-0.5,0.1-1.1-0.1-1.4-0.5C33,47.9,33,47.7,33,47.6c0-1.3,0-2.7,0-4c0-0.7-0.4-1-0.9-1c-0.6,0-0.7,0.3-0.7,0.9
	c0,1.1,0,2.2,0,3.4c0,0.3,0,0.6-0.1,0.9c0,0.6-0.5,1-1.1,1c-0.1,0-0.1,0-0.2,0c-0.6,0-0.9-0.5-0.9-1.2S29.1,46,29,45.2L29,45.2z"/>
<path class="st1" d="M19.5,47.3c0-1,0-1.9,0-2.9c0.1-2.1,1.9-3.8,4-3.9c1.8-0.1,3.5,1,4.1,2.8c0.8,2.1-0.2,4.4-2.2,5.3
	c-1,0.5-2.2,0.5-3.2,0.1c-0.4-0.1-0.3,0.1-0.3,0.3c0.1,0.7,0,1.4-0.1,2.1c-0.2,0.5-0.7,0.8-1.2,0.7c-0.6-0.1-1-0.5-1-1.1
	C19.5,49.6,19.5,48.4,19.5,47.3L19.5,47.3z M21.8,44.7c0,1,0.8,1.8,1.8,1.8c1,0,1.9-0.8,1.9-1.8c0-1-0.8-1.9-1.9-1.9
	S21.8,43.6,21.8,44.7L21.8,44.7z"/>
<path class="st1" d="M48.6,46c0,0.5,0,1.1,0,1.6c0,0.4-0.2,0.9-0.6,1.1c-0.4,0.3-0.9,0.2-1.3-0.1c-0.2-0.2-0.5-0.2-0.7-0.1
	c-2.1,0.9-4.6-0.1-5.5-2.3c-0.3-0.6-0.4-1.3-0.3-2c0.2-2.3,2.2-4.1,4.5-3.9c2.3,0.2,4.1,2.2,3.9,4.5C48.6,45.3,48.6,45.6,48.6,46z
	 M46.2,44.6c0-1-0.8-1.8-1.8-1.8c-1,0-1.9,0.8-1.9,1.9s0.8,1.9,1.9,1.9C45.4,46.5,46.2,45.7,46.2,44.6
	C46.2,44.7,46.2,44.6,46.2,44.6z"/>
<path class="st1" d="M10,44.6c0-2.5,1.8-4.2,4.6-4.2c2.3,0.2,4,2.3,3.8,4.6c-0.2,2.2-2,3.8-4.2,3.8c-2.3,0-4.2-1.8-4.2-4.1
	C10,44.7,10,44.7,10,44.6z M16,44.6c0-1-0.8-1.9-1.9-1.9c-1,0-1.9,0.8-1.9,1.9c0.1,1,0.9,1.8,1.8,1.8C15.1,46.4,15.9,45.7,16,44.6
	L16,44.6z"/>
<path class="st1" d="M6.1,42.5c-0.5,0-1.2-0.2-1.5,0c-0.3,0.2-0.1,1-0.1,1.5c-0.1,0.5,0,1,0.1,1.4c0.4,0.9,1.5,1.3,2.4,0.9
	c0.2-0.1,0.3-0.2,0.5-0.3c0.8-0.6,1.7-0.4,1.8,0.6c0.1,0.5-0.1,0.9-0.4,1.2C8,48.7,6.8,49,5.6,48.8c-1.6-0.3-2.9-1.4-3.3-2.9
	c-0.1-0.4-0.2-0.8-0.2-1.3c0-1.7,0-3.5,0-5.2c-0.1-0.4,0-0.8,0.3-1.1c0.3-0.3,0.7-0.5,1.2-0.3c0.5,0.1,0.8,0.5,0.9,1
	c0,0,0,0.1,0,0.1c0.1,1.1,0.1,1.1,1.2,1.1c0.6-0.1,1.2,0,1.8,0.1c0.6,0.2,0.9,0.7,0.8,1.3c-0.1,0.5-0.5,0.9-1,0.9L6.1,42.5L6.1,42.5
	z"/>
<path class="st1" d="M52.5,44.6c0,1,0,2,0,3c0,0.6-0.4,1.2-1,1.2c0,0,0,0-0.1,0c-0.7,0-1.2-0.5-1.2-1.2c0-2,0-4,0-6.1
	c0-0.6,0.4-1.1,1-1.2c0.1,0,0.1,0,0.2,0c0.7,0,1.1,0.4,1.1,1.2L52.5,44.6z"/>
<path class="st2" d="M51.4,37.3c0.7,0,1.2,0.5,1.3,1.2c0,0.7-0.6,1.3-1.3,1.3c-0.7,0-1.3-0.6-1.3-1.3C50.1,37.8,50.7,37.3,51.4,37.3
	z"/>
<path class="st3" d="M20.7,21.7c0-0.6,0-1.3,0-1.9c0-0.3,0.2-0.7,0.4-0.9c0.4-0.6,0.3-0.7-0.3-1c-0.1-0.1-0.3-0.1-0.5-0.3
	s-0.2-0.3-0.1-0.5c0.1-0.2,0.3,0,0.4,0c0.3-0.1,0.6-0.1,0.8,0c0.3,0,0.4-0.1,0.5-0.3l1.5-2.1c0.2-0.3,0.6-0.5,0.9-0.5
	c2.2,0,4.5,0,6.7,0c0.4,0,0.8,0.2,1,0.5c0.5,0.6,0.9,1.2,1.4,1.9c0.2,0.3,0.5,0.5,0.8,0.4c0.2,0,0.4,0,0.6,0c0.1,0,0.3-0.1,0.4,0.1
	c0.1,0.2-0.1,0.4-0.2,0.5s-0.7,0.3-0.8,0.7c-0.1,0.3,0.3,0.6,0.4,0.9c0.1,0.2,0.1,0.5,0.1,0.7c0,1.3,0,2.5,0,3.7
	c0,0.7-0.2,0.8-0.9,0.8h-0.2c-0.8,0-0.8,0-0.8-0.7c0-0.7-0.2-0.8-0.8-0.8h-8.7c-0.6,0-0.9,0.2-0.8,0.8s-0.1,0.6-0.6,0.6
	c-1.3,0-1.3,0-1.3-1.3L20.7,21.7L20.7,21.7z M30.2,14.9L30.2,14.9c-0.3-0.2-0.8-0.1-1.1,0.2c-0.6,0.6-1.1,1.2-1.7,1.7
	s-1,0.9-1.6,1.5c0.5,0.1,1,0.2,1.5,0.1c1.7,0.1,3.5,0,5.3,0c0.3,0,0.6,0,0.7-0.3c0.1-0.3,0.1-0.6-0.1-0.8c-0.4-0.6-0.8-1.1-1.2-1.7
	C31.5,14.7,31.2,14.6,30.2,14.9z M26.9,14.8c-0.9,0-1.7,0-2.6,0c-0.2,0-0.4,0.2-0.6,0.4c-0.5,0.7-1,1.4-1.5,2.1
	c-0.2,0.3-0.4,0.7,0,1c0.3,0.3,0.8,0.3,1.1,0C24.6,17.1,25.7,16,26.9,14.8z M27.8,21.6L27.8,21.6c-0.6,0-1.3,0-1.9,0
	c-0.3,0-0.4,0.1-0.4,0.5c0,0.3,0,0.6,0.4,0.6h3.8c0.4,0,0.4-0.3,0.4-0.6c0-0.3-0.1-0.5-0.5-0.5C29.1,21.6,28.4,21.6,27.8,21.6
	L27.8,21.6z M29,14.8c-0.3-0.2-0.7-0.1-0.9,0.1l-1.4,1.5l-1.9,1.9c0.3,0,0.6,0.1,0.8-0.1L29,14.8z M21.6,20.7
	c-0.1,0.4,0.2,0.8,0.6,0.8c0,0,0.1,0,0.1,0c0.2,0,0.4-0.1,0.7,0.1c0.2,0.2,0.4,0.2,0.6,0c0,0,0.1-0.1,0.1-0.1
	c0.2-0.2,0.1-0.5-0.1-0.7c0,0-0.1,0-0.1-0.1c-0.2-0.1-0.4-0.3-0.5-0.5c-0.2-0.3-0.5-0.4-0.8-0.3C21.8,20.2,21.6,20.4,21.6,20.7
	L21.6,20.7z M33.3,20.3c-0.2-0.1-0.4,0-0.5,0.1c-0.2,0.3-0.4,0.5-0.7,0.6c-0.2,0.1-0.3,0.4-0.2,0.6c0,0,0,0,0,0.1
	c0.1,0.2,0.3,0.3,0.6,0.2c0,0,0,0,0.1,0c0.2-0.1,0.4-0.2,0.6-0.1c0.4,0.1,0.8-0.2,0.8-0.6c0,0,0,0,0-0.1
	C34.1,20.5,33.8,20.3,33.3,20.3L33.3,20.3z"/>
<path class="st3" d="M51.3,20.5c-0.6,0-1.2,0-1.8,0c-0.2,0-0.4-0.1-0.5-0.2c-1.5-1.5-2.9-2.9-4.4-4.4c-0.3-0.3-0.5-0.3-0.8,0
	c-1.4,1.4-2.9,2.9-4.3,4.3c-0.2,0.3-0.6,0.4-0.9,0.4c-0.5,0-1,0-1.5,0c0.1-0.5,0.5-0.7,0.7-0.9c2-1.8,3.9-3.9,5.8-5.8
	c0.5-0.5,0.5-0.5,1,0L51,20C51.2,20.2,51.3,20.3,51.3,20.5z"/>
<path class="st3" d="M9,17.1C9,15.6,9.1,13.8,9,12c0-0.3,0.5-0.8,0.9-0.8c1.8,0,3.5,0,5.3,0c0.4,0,0.8,0.3,0.8,0.8
	c0,0.2,0,0.5,0,0.7v9.9c0,0.9-0.3,1.3-1.3,1.3c-1.5,0-2.9,0-4.4,0c-0.6,0.1-1.2-0.3-1.3-1c0-0.1,0-0.2,0-0.3C9,20.8,9,19.1,9,17.1z
	 M15.5,17.5L15.5,17.5c0-1.4,0-2.8,0-4.2c0.1-0.6-0.4-1.1-1-1.2c-0.1,0-0.2,0-0.2,0h-3.5c-1,0-1.4,0.3-1.4,1.3c0,2.7,0,5.4,0,8.1
	c-0.1,0.6,0.3,1.1,0.9,1.2c0.1,0,0.2,0,0.3,0h3.6c0.9,0,1.3-0.4,1.3-1.3C15.5,20.2,15.5,18.8,15.5,17.5z M12.4,11.8h1.2
	c0.1,0,0.2,0,0.2-0.2c0-0.2,0-0.2-0.1-0.2c-0.8-0.1-1.7-0.1-2.5,0c-0.1,0-0.2,0.1-0.2,0.2c0,0,0,0,0,0c0,0.1,0.1,0.1,0.2,0.1
	L12.4,11.8z M12.4,23.5h0.7c0.2,0,0.3-0.1,0.3-0.3c0-0.2-0.1-0.3-0.3-0.3c-0.4,0-0.9,0-1.3,0c-0.2,0-0.3,0.1-0.3,0.3
	c0,0.2,0.2,0.2,0.3,0.2H12.4z"/>
<path class="st3" d="M39.5,17c0-0.7,0-1.5,0-2.3c0-0.3,0.1-0.4,0.4-0.4c0.1,0,0.2,0,0.3,0c0.3,0.1,0.7-0.2,0.9,0.2
	c0.1,0.5-0.1,1-0.4,1.4L39.5,17z"/>
<path class="st3" d="M43.6,19.4c-0.3,0.1-0.4-0.1-0.4-0.4c0-0.3,0.1-0.5,0.5-0.5c0.3,0,0.4,0.1,0.4,0.4C44.1,19.3,44,19.4,43.6,19.4
	z"/>
<path class="st3" d="M43.6,18.2c-0.3,0.1-0.4-0.1-0.4-0.4c0-0.3,0.1-0.4,0.5-0.4c0.3,0,0.5,0.1,0.5,0.5
	C44.1,18.2,43.9,18.3,43.6,18.2z"/>
<path class="st3" d="M44.9,17.4c0.3-0.1,0.4,0.1,0.4,0.4c0,0.3-0.1,0.4-0.5,0.4c-0.3,0-0.5-0.1-0.5-0.5
	C44.4,17.4,44.6,17.3,44.9,17.4z"/>
<path class="st3" d="M44.7,18.5c0.3,0,0.6,0,0.6,0.4c0,0.4-0.1,0.5-0.5,0.5c-0.4,0-0.5-0.1-0.5-0.4C44.4,18.6,44.4,18.5,44.7,18.5z"
	/>
<path class="st4" d="M30.2,14.9c1-0.3,1.3-0.2,1.8,0.7c0.4,0.6,0.8,1.1,1.2,1.7c0.2,0.2,0.3,0.5,0.1,0.8c-0.2,0.3-0.4,0.3-0.7,0.3
	c-1.8,0-3.5,0-5.3,0c-0.5,0.1-1,0-1.5-0.1c0.6-0.5,1.1-1,1.6-1.5c0.5-0.5,1.1-1.1,1.7-1.7C29.5,14.7,29.9,14.6,30.2,14.9
	c0,0.1-0.1,0.1,0,0.2L30.2,14.9z"/>
<path class="st4" d="M26.9,14.8c-1.2,1.2-2.3,2.3-3.4,3.4c-0.3,0.3-0.8,0.3-1.1,0c-0.4-0.3-0.2-0.7,0-1c0.5-0.7,1-1.4,1.5-2.1
	c0.1-0.2,0.3-0.4,0.6-0.4C25.2,14.7,26,14.8,26.9,14.8z"/>
<path class="st4" d="M27.8,21.6c0.6,0,1.3,0,1.9,0c0.4,0,0.4,0.2,0.5,0.5c0,0.3,0,0.6-0.4,0.6h-3.8c-0.4,0-0.4-0.3-0.4-0.6
	c0-0.3,0.1-0.5,0.4-0.5C26.5,21.6,27.2,21.6,27.8,21.6L27.8,21.6z"/>
<path class="st4" d="M28.9,14.8l-3.4,3.4c-0.2,0.2-0.5,0.1-0.8,0.1l1.9-1.9L28,15C28.2,14.7,28.6,14.7,28.9,14.8z"/>
<path class="st4" d="M21.6,20.7c0-0.3,0.2-0.6,0.5-0.6c0.3-0.1,0.6,0,0.8,0.3c0.1,0.2,0.3,0.4,0.5,0.5c0.2,0.1,0.3,0.4,0.2,0.6
	c0,0,0,0.1-0.1,0.1c-0.1,0.2-0.4,0.3-0.6,0.2c0,0-0.1,0-0.1-0.1c-0.2-0.2-0.4-0.1-0.7-0.1c-0.4,0-0.7-0.3-0.7-0.7
	C21.6,20.8,21.6,20.8,21.6,20.7z"/>
<path class="st4" d="M33.2,20.3c0.6,0,0.8,0.2,0.8,0.7c0,0.4-0.3,0.7-0.7,0.7c-0.1,0-0.1,0-0.2,0c-0.2,0-0.4,0-0.6,0.1
	c-0.2,0.1-0.5,0.1-0.6-0.1c0,0,0,0,0-0.1c-0.2-0.2-0.1-0.5,0.1-0.6c0,0,0,0,0.1,0c0.3-0.1,0.5-0.3,0.7-0.6
	C32.8,20.2,33.1,20.2,33.2,20.3z"/>
<linearGradient id="SVGID_2_" gradientUnits="userSpaceOnUse" x1="9.4114" y1="38.5379" x2="15.5171" y2="38.5379" gradientTransform="matrix(1 0 0 -1 0 56)">
	<stop  offset="0" style="stop-color:#55C3E9"/>
	<stop  offset="0.23" style="stop-color:#49C0ED"/>
	<stop  offset="0.38" style="stop-color:#3BBFEF"/>
</linearGradient>
<path class="st5" d="M15.5,17.5c0,1.3,0,2.7,0,4c0,0.9-0.4,1.3-1.3,1.3h-3.6c-0.6,0.1-1.1-0.3-1.2-0.9c0-0.1,0-0.2,0-0.3
	c0-2.7,0-5.4,0-8.1c0-0.9,0.4-1.3,1.4-1.3h3.5c0.6-0.1,1.1,0.4,1.2,1c0,0.1,0,0.2,0,0.2C15.5,14.7,15.5,16.1,15.5,17.5L15.5,17.5z"
	/>
<path class="st4" d="M12.4,11.8h-1.1c-0.1,0-0.2,0-0.2-0.1c0-0.1,0.1-0.2,0.2-0.2c0,0,0,0,0,0c0.8-0.1,1.7-0.1,2.5,0
	c0.1,0,0.1,0.1,0.1,0.2c0,0.1-0.1,0.2-0.2,0.2L12.4,11.8L12.4,11.8z"/>
<path class="st4" d="M12.4,23.5h-0.6c-0.2,0-0.3,0-0.3-0.2c0-0.2,0.1-0.3,0.3-0.3c0.4,0,0.9,0,1.3,0c0.2,0,0.3,0.1,0.3,0.3
	c0,0.2-0.1,0.3-0.3,0.3H12.4z"/>
<path class="st3" d="M30.2,14.9V15C30.1,14.9,30.2,14.9,30.2,14.9z"/>
</svg>
