<svg id="Capa_1" data-name="Capa 1" xmlns="http://www.w3.org/2000/svg" xmlns:xlink="http://www.w3.org/1999/xlink" viewBox="0 0 80 78.36"><defs><style>.cls-1{fill:url(#Degradado_sin_nombre_33);}.cls-2{fill:#fff;}.cls-3{fill:#3fa7de;}.cls-4{fill:url(#Degradado_sin_nombre_49);}</style><linearGradient id="Degradado_sin_nombre_33" x1="2.25" y1="46.52" x2="76.78" y2="46.52" gradientUnits="userSpaceOnUse"><stop offset="0" stop-color="#55c3e9"/><stop offset="0.16" stop-color="#43c0ed"/><stop offset="0.37" stop-color="#38beee"/><stop offset="0.54" stop-color="#29ace4"/><stop offset="0.67" stop-color="#2ca9e1"/><stop offset="0.82" stop-color="#359ad6"/><stop offset="1" stop-color="#3584c6"/></linearGradient><linearGradient id="Degradado_sin_nombre_49" x1="13.85" y1="41.31" x2="22.38" y2="41.31" gradientUnits="userSpaceOnUse"><stop offset="0" stop-color="#55c3e9"/><stop offset="0.23" stop-color="#43c0ed"/><stop offset="0.38" stop-color="#38beee"/></linearGradient></defs><path class="cls-1" d="M76.76,42a14.88,14.88,0,0,1-9.15,13.88,16.64,16.64,0,0,1-3.45,1,1.38,1.38,0,0,0-.94.51Q58.56,63,53.85,68.55a4.41,4.41,0,0,1-3.67,1.62,2,2,0,0,1-2-1.49,4.94,4.94,0,0,1,0-2.67c.49-1.62,1-3.23,1.55-4.82.21-.57,0-.69-.45-.73a14.28,14.28,0,0,1-6.83-2.59,15.42,15.42,0,0,1-2-1.65c-.28-.27-.41-.3-.71,0a13.44,13.44,0,0,1-11.1,3.49,13.14,13.14,0,0,1-8.58-4.61,1.08,1.08,0,0,0-1.23-.43,12.84,12.84,0,0,1-3.11.54A13.31,13.31,0,0,1,3,46.32a12.73,12.73,0,0,1-.49-7.14,12.46,12.46,0,0,1,5-7.71,9,9,0,0,0,1.84-2.15,15.4,15.4,0,0,1,8.94-6c6.23-1.46,11.45.31,15.75,5,.4.44.76.29,1.15.19a13.16,13.16,0,0,1,4.1-.52A19.68,19.68,0,0,1,42,28.6a11.91,11.91,0,0,1,4.76,2.26c.2.14.31.05.47,0a14.25,14.25,0,0,1,5.84-1,1.73,1.73,0,0,0,1.07-.28,14.09,14.09,0,0,1,8.1-2.15,17,17,0,0,1,4.23.77,14.36,14.36,0,0,1,5,2.79,14.19,14.19,0,0,1,4.88,8.11A9.86,9.86,0,0,1,76.76,42ZM29.65,47.25h0v2c0,1.73,0,1.72,1.78,1.77.7,0,.93-.18.89-.88,0-.89.28-1.17,1.17-1.18H45.67c.84,0,1.12.29,1.14,1.14,0,1,0,1,1.07,1h.31c1,0,1.2-.21,1.2-1.18,0-1.75,0-3.49,0-5.24a2.12,2.12,0,0,0-.16-1c-.2-.43-.67-.85-.57-1.28s.73-.64,1.14-.93c.23-.17.44-.36.33-.69s-.38-.16-.59-.18a3.84,3.84,0,0,0-.83,0,1.1,1.1,0,0,1-1.17-.59c-.61-.9-1.29-1.75-1.91-2.64a1.57,1.57,0,0,0-1.4-.73q-4.66,0-9.33,0a1.42,1.42,0,0,0-1.29.63l-2.14,2.91c-.19.26-.38.47-.74.41a3.53,3.53,0,0,0-1.17,0c-.19,0-.43-.24-.59.06s0,.51.18.76.42.26.62.38c.85.48.89.61.39,1.41a2.34,2.34,0,0,0-.52,1.3C29.66,45.48,29.65,46.36,29.65,47.25ZM72.5,45.56a1.24,1.24,0,0,0-.47-.64l-8.78-8.79c-.7-.7-.69-.69-1.39,0-2.76,2.68-5.34,5.54-8.15,8.17-.38.35-.88.64-1.05,1.28.73,0,1.41,0,2.09,0A1.6,1.6,0,0,0,56.07,45c2-2,4-4,6-6,.45-.46.7-.41,1.12,0,2,2.07,4.08,4.11,6.13,6.16a.83.83,0,0,0,.63.35C70.77,45.55,71.62,45.56,72.5,45.56ZM13.28,40.82c0,2.79,0,5.21,0,7.64A1.56,1.56,0,0,0,15,50.23c2,0,4.1,0,6.15,0,1.34,0,1.79-.52,1.79-1.87V34.53a4.57,4.57,0,0,0-.06-1,1.15,1.15,0,0,0-1.1-1.06c-2.45,0-4.91,0-7.36,0a1.5,1.5,0,0,0-1.23,1.19C13.37,36.18,13.21,38.68,13.28,40.82Zm42.64-.11,1.68-1.49a2.24,2.24,0,0,0,.61-1.88c-.31-.56-.86-.18-1.3-.27a2.24,2.24,0,0,0-.45,0c-.37,0-.55.08-.54.5C55.94,38.64,55.92,39.72,55.92,40.71ZM61.72,44c.5.1.66-.13.66-.61s-.13-.62-.6-.61-.68.12-.66.63S61.24,44.07,61.72,44Zm0-1.65c.4.06.67,0,.67-.52s-.13-.66-.64-.64-.65.08-.63.58S61.24,42.43,61.72,42.33Zm1.74-1.14c-.4,0-.68,0-.67.52s.13.67.64.65.63-.11.63-.59S63.93,41.1,63.46,41.19Zm-.19,1.6c-.41-.09-.47.2-.48.62s.2.59.64.6.61-.23.63-.69S63.73,42.8,63.27,42.79Z"/><path class="cls-2" d="M29.65,47.25c0-.89,0-1.77,0-2.66a2.34,2.34,0,0,1,.52-1.3c.5-.8.46-.93-.39-1.41-.2-.12-.47-.11-.62-.38s-.33-.46-.18-.76.4,0,.59-.06a3.53,3.53,0,0,1,1.17,0c.36.06.55-.15.74-.41l2.14-2.91a1.42,1.42,0,0,1,1.29-.63q4.66,0,9.33,0a1.57,1.57,0,0,1,1.4.73c.62.89,1.3,1.74,1.91,2.64a1.1,1.1,0,0,0,1.17.59,3.84,3.84,0,0,1,.83,0c.21,0,.49-.12.59.18s-.1.52-.33.69c-.41.29-1,.46-1.14.93s.37.85.57,1.28a2.12,2.12,0,0,1,.16,1c0,1.75,0,3.49,0,5.24,0,1-.23,1.17-1.2,1.18h-.31c-1.05,0-1.05,0-1.07-1,0-.85-.3-1.14-1.14-1.14H33.53c-.89,0-1.22.29-1.17,1.18,0,.7-.19.89-.89.88-1.76,0-1.78,0-1.78-1.77v-2ZM43,37.66h0a1.1,1.1,0,0,0-1.47.25q-1.18,1.22-2.4,2.4c-.7.68-1.42,1.33-2.23,2.08a5.43,5.43,0,0,0,2.16.11c2.44.11,4.9,0,7.35,0,.41,0,.78,0,1-.47A1,1,0,0,0,47.25,41c-.54-.79-1.12-1.55-1.66-2.34C44.76,37.43,44.37,37.27,43,37.66Zm-4.66-.15c-1.32,0-2.45,0-3.57,0A1,1,0,0,0,34,38c-.66,1-1.36,1.94-2.06,2.89-.35.48-.52,1,0,1.42a1.24,1.24,0,0,0,1.6,0C35.11,40.79,36.64,39.22,38.34,37.51Zm1.23,9.56h0c-.89,0-1.77,0-2.65,0-.46,0-.63.19-.62.63s0,.86.6.86h5.36c.53,0,.59-.36.58-.78s-.09-.73-.63-.71C41.33,47.09,40.45,47.07,39.57,47.07Zm1.56-9.44a1,1,0,0,0-1.25.19c-.65.66-1.32,1.3-2,2l-2.68,2.71c.49.06.86.15,1.15-.14ZM30.84,45.89a1,1,0,0,0,1,1.19c.31,0,.61-.1.92.16a.59.59,0,0,0,.95-.2.66.66,0,0,0-.24-1,2,2,0,0,1-.77-.66A.92.92,0,0,0,31.59,45,1,1,0,0,0,30.84,45.89Zm16.35-.67c-.23,0-.52-.08-.7.2a2.29,2.29,0,0,1-.93.81.7.7,0,0,0,.72,1.2,1,1,0,0,1,.81-.2,1,1,0,0,0,1.23-1C48.35,45.57,48,45.25,47.19,45.22Z"/><path class="cls-2" d="M72.5,45.56c-.88,0-1.73,0-2.58,0a.83.83,0,0,1-.63-.35c-2.05-2.05-4.11-4.09-6.13-6.16-.42-.43-.67-.48-1.12,0-2,2-4,4-6,6a1.6,1.6,0,0,1-1.32.55c-.68,0-1.36,0-2.09,0,.17-.64.67-.93,1.05-1.28,2.81-2.63,5.39-5.49,8.15-8.17.7-.68.69-.69,1.39,0L72,44.92A1.24,1.24,0,0,1,72.5,45.56Z"/><path class="cls-2" d="M13.28,40.82c-.07-2.14.09-4.64-.08-7.14a1.5,1.5,0,0,1,1.23-1.19c2.45,0,4.91,0,7.36,0a1.15,1.15,0,0,1,1.1,1.06,4.57,4.57,0,0,1,.06,1V48.34c0,1.35-.45,1.85-1.79,1.87-2.05,0-4.1,0-6.15,0a1.56,1.56,0,0,1-1.74-1.77C13.3,46,13.28,43.61,13.28,40.82Zm9.1.54h0c0-1.94,0-3.89,0-5.84a1.52,1.52,0,0,0-1.69-1.67H15.76c-1.37,0-1.9.49-1.9,1.84q0,5.69,0,11.37a1.53,1.53,0,0,0,1.74,1.7h5c1.24,0,1.79-.55,1.79-1.8C22.39,45.1,22.38,43.23,22.38,41.36Zm-4.29-8h1.66c.17,0,.3,0,.31-.25s0-.27-.2-.27a27,27,0,0,0-3.48.05.23.23,0,0,0-.21.26c0,.21.17.21.32.21Zm0,16.4h1c.26,0,.45-.07.44-.37S19.29,49,19,49h-1.8c-.3,0-.48.11-.47.44s.23.33.46.33Z"/><path class="cls-2" d="M55.92,40.71c0-1,0-2.07,0-3.15,0-.42.17-.54.54-.5a2.24,2.24,0,0,1,.45,0c.44.09,1-.29,1.3.27a2.24,2.24,0,0,1-.61,1.88Z"/><path class="cls-2" d="M61.72,44c-.48.09-.59-.15-.6-.59s.19-.63.66-.63.6.16.6.61S62.22,44.08,61.72,44Z"/><path class="cls-2" d="M61.72,42.33c-.48.1-.59-.14-.6-.58s.2-.57.63-.58.63.15.64.64S62.12,42.39,61.72,42.33Z"/><path class="cls-2" d="M63.46,41.19c.47-.09.6.12.6.58s-.2.57-.63.59-.64-.16-.64-.65S63.06,41.14,63.46,41.19Z"/><path class="cls-2" d="M63.27,42.79c.46,0,.81,0,.79.53s-.11.7-.63.69-.64-.12-.64-.6S62.86,42.7,63.27,42.79Z"/><path class="cls-3" d="M43,37.66c1.37-.39,1.76-.23,2.59,1,.54.79,1.12,1.55,1.66,2.34a1,1,0,0,1,.19,1.11c-.24.45-.61.47-1,.47-2.45,0-4.91.06-7.35,0a5.43,5.43,0,0,1-2.16-.11c.81-.75,1.53-1.4,2.23-2.08s1.61-1.59,2.4-2.4A1.1,1.1,0,0,1,43,37.66c0,.06-.2.09,0,.2Z"/><path class="cls-3" d="M38.34,37.51c-1.7,1.71-3.23,3.28-4.82,4.81a1.24,1.24,0,0,1-1.6,0c-.52-.38-.35-.94,0-1.42C32.62,40,33.32,39,34,38a1,1,0,0,1,.79-.52C35.89,37.5,37,37.51,38.34,37.51Z"/><path class="cls-3" d="M39.57,47.07c.88,0,1.76,0,2.64,0,.54,0,.63.28.63.71s-.05.78-.58.78H36.9c-.57,0-.59-.42-.6-.86s.16-.64.62-.63c.88,0,1.76,0,2.65,0Z"/><path class="cls-3" d="M41.13,37.63l-4.75,4.72c-.29.29-.66.2-1.15.14l2.68-2.71c.65-.66,1.32-1.3,2-2A1,1,0,0,1,41.13,37.63Z"/><path class="cls-3" d="M30.84,45.89a1,1,0,0,1,.75-.87.92.92,0,0,1,1.13.35,2,2,0,0,0,.77.66.66.66,0,0,1,.24,1,.59.59,0,0,1-.95.2c-.31-.26-.61-.15-.92-.16A1,1,0,0,1,30.84,45.89Z"/><path class="cls-3" d="M47.19,45.22c.82,0,1.16.35,1.13,1a1,1,0,0,1-1.23,1,1,1,0,0,0-.81.2.7.7,0,0,1-.72-1.2,2.29,2.29,0,0,0,.93-.81C46.67,45.14,47,45.19,47.19,45.22Z"/><path class="cls-4" d="M22.38,41.36c0,1.87,0,3.74,0,5.61,0,1.25-.55,1.8-1.79,1.8h-5a1.53,1.53,0,0,1-1.74-1.7q0-5.69,0-11.37c0-1.35.53-1.84,1.9-1.84h4.93a1.52,1.52,0,0,1,1.69,1.67c0,1.95,0,3.9,0,5.84Z"/><path class="cls-3" d="M18.05,49.8h-.83c-.23,0-.46,0-.46-.33s.17-.44.47-.44H19c.26,0,.43.11.43.4s-.18.37-.44.37Z"/><path class="cls-2" d="M43,37.66l0,.2c-.16-.11,0-.14,0-.2Z"/></svg>