<svg xmlns="http://www.w3.org/2000/svg" xmlns:xlink="http://www.w3.org/1999/xlink" viewBox="0 0 512 512"><defs><style>.cls-1,.cls-3,.cls-4,.cls-5,.cls-6,.cls-7{fill:#fff;}.cls-2{fill:url(#未命名的渐变_96);}.cls-3{opacity:0.4;}.cls-4{opacity:0.16;}.cls-5{opacity:0.3;}.cls-6{opacity:0.2;}.cls-7{opacity:0.1;}.cls-8{fill:url(#未命名的渐变_96-2);}.cls-9{fill:#fcfcfc;}</style><linearGradient id="未命名的渐变_96" y1="256" x2="512" y2="256" gradientUnits="userSpaceOnUse"><stop offset="0" stop-color="#ffcf3f"/><stop offset="1" stop-color="#ff558d"/></linearGradient><linearGradient id="未命名的渐变_96-2" x1="161.8" y1="464.42" x2="352.74" y2="464.42" xlink:href="#未命名的渐变_96"/></defs><g id="背景"><rect class="cls-1" x="-283" y="-4831.59" width="3704" height="16186.59"/></g><g id="图标"><circle class="cls-2" cx="256" cy="256" r="256"/><path class="cls-3" d="M355.09,55.77c0,13.51-43.8-9.78-97.82-9.78s-97.81,23.29-97.81,9.78,42.27-44,96.3-44S355.09,42.27,355.09,55.77Z"/><path class="cls-4" d="M37.09,181.39S23,247.77,71.81,342.59c24.74,48,62,64.16,45.59,83.13-13,15-45.95-16.63-70.69-64.66C1.62,273.53,37.09,181.39,37.09,181.39Z"/><path class="cls-5" d="M134,80.46a8.62,8.62,0,1,1-8.61-8.61A8.62,8.62,0,0,1,134,80.46Z"/><path class="cls-1" d="M96,140.77a18.46,18.46,0,1,1-18.46-18.46A18.46,18.46,0,0,1,96,140.77Z"/><path class="cls-6" d="M218.94,416.2c93.12,43.27,183.37,21.76,253.62-23.64C427.23,464.31,347.29,512,256.13,512c-94.72,0-177.35-51.5-221.62-128C87.78,379,149.25,383.82,218.94,416.2Z"/><path class="cls-7" d="M278.58,363.06c-90.41-58.67-188.3-42.84-264.11-21,35.36,99,129.86,169.9,241,169.9,94.11,0,176.29-50.82,220.76-126.48C411.6,404,340.31,403.12,278.58,363.06Z"/><path class="cls-7" d="M233.74,327.92C162.34,363.26,90.55,371.45,23.83,362c40.32,88.46,129.45,150,233,150,130,0,237.21-96.85,253.72-222.3C430.11,275.82,335.43,277.59,233.74,327.92Z"/><path class="cls-8" d="M352.74,464.42c0,6.49-42.74,11.74-95.47,11.74s-95.47-5.25-95.47-11.74,42.75-11.73,95.47-11.73S352.74,457.94,352.74,464.42Z"/><path class="cls-9" d="M145.83,271.19c-4.33-8.14-8.14-15.37-12-22.56-11.56-21.46-7.39-35,14.82-46.18-6.11-12.48-12.09-24.93-24.5-32.71-2.93-1.83-6.47-3.47-4-7.73s6.27-2.84,8.73-.63c7.61,6.83,14.76,14.17,21.38,20.62-1.33-4-3.14-9.58-5-15.1-1.55-4.6-3.13-9.19-4.8-13.75-1.23-3.37-2.33-7,2-8.57s5.83,1.82,7,5.24q5.64,16.47,11.37,32.91c.48,1.38,1,2.73,1.93,5.16.64-8.21,1.21-15.34,1.75-22.47.26-3.58,1.65-6.87,5.61-5.62,1.75.55,3.38,4.32,3.49,6.7.4,9,.16,18,.16,27.5,2-.48,3.61-.86,5.19-1.2,15.55-3.32,29.57,5.38,33.07,20.95,2,9,3.33,18.2,5.95,27.26,0-9.72.19-19.46,0-29.18a47.17,47.17,0,0,1,11.85-33.15c7.77-9.05,10.79-19,7.85-31.55-2.21-9.43-.6-19.76-.65-29.7,0-5.28,0-10.57,0-15.86,0-5.14,2.42-7.94,7.65-8,8.67,0,17.34,0,26,0,5.35,0,7.75,3,7.78,7.92.1,14.38,2.42,29.28-.57,43-3.85,17.65,2.78,29.73,14.12,42,.22-1.91.42-3.4.57-4.89.6-6.07,3.68-9.4,9.73-9.43,21.77-.15,43.56-.32,65.32.22,3.12.08,7.69,3.34,8.89,6.24,2.22,5.41,2.34,11.65-2.1,16.7A21.94,21.94,0,0,1,370.9,198c.05.44,0,.92.16,1.19C382.35,214.48,382.88,232,382,250c-.33,6.72-.05,13.47-.05,21.21,7.44,0,14.53,0,21.61,0,9.6.05,13,3.42,13.23,12.88,0,1.48,0,3,0,4.44,0,13.93-2.13,16.29-16.08,16.36-4,0-5.47,1.55-6.26,5.19-6.31,29.09-12.77,58.15-19.16,87.23-3.26,14.83-11,21.12-26.24,21.12q-85.32,0-170.64,0c-15.61,0-23.08-6.19-26.46-21.6-6.34-28.87-12.81-57.71-19-86.61-.89-4.12-2.65-5.34-6.79-5.33-13.25.05-15.7-2.68-15.62-16.19,0-2.32-.11-4.66.09-7,.59-6.79,4.26-10.35,11.09-10.49C129.42,271.07,137.15,271.19,145.83,271.19Zm-4,34.19c.27,1.88.4,3.31.7,4.71q9.13,41.43,18.27,82.87c3,13.48,5.85,15.89,19.84,15.89H348.13c12,0,15.51-2.87,18.14-14.85,3.72-16.9,7.5-33.8,11.21-50.7,2.74-12.48,5.4-25,8.2-37.92Zm264.9-24.11H120.62V295H406.78ZM242.06,271c0-12.36,0-24.14,0-35.92,0-12,2.5-14.58,14.31-14.59H287.3c1.72-14-.15-26.11-9.8-36.41-6.38-6.81-9.72-15.22-10.56-24.56-.2-2.22-.51-4.44-.77-6.62H249.31c-3.33,18.83-3.55,18.69-15.59,36.67-2.93,4.37-5.35,10-5.52,15.14-.71,21.51-.48,43-.55,64.56,0,.54.5,1.07.83,1.73Zm-68.54-.34H212.2c-3-17.81-5.81-35.08-9-52.27-2.61-14.09-12.43-19.55-26.13-15-8.39,2.81-16.66,6-25.15,8.51-14.85,4.35-20.57,19.82-7.61,33.9,9.27-3.23,18.59-6.59,28-9.69,4.81-1.58,8.92,1.15,7.44,4.87-.78,1.95-3.32,3.69-5.45,4.5-8.58,3.26-17.31,6.11-26.33,9.23,2.44,4.41,4.43,8,6.5,11.75,5.83-2,11-3.9,16.19-5.44,3.72-1.09,8.56-4.82,10.85,1.15S177.19,268,173.52,270.67Zm199,.31c0-9.21-.67-17.9.15-26.44a61.13,61.13,0,0,0-10.43-41.29,2.33,2.33,0,0,1-.31-.55c-1.23-3.86-3.93-4.75-7.8-4.69-13.09.22-26.19,0-39.29.16-1.76,0-4.52.29-5.12,1.39-4.27,7.74-10.55,15.44-11.52,23.7-1.84,15.56-.53,31.49-.53,47.51h7.19c0-9.81,0-19.26,0-28.71.06-8.35,1.86-10.17,10-10.2q19.65-.08,39.29,0c9,0,10.8,1.86,10.83,10.69,0,9.44,0,18.87,0,28.43Zm-120.67-.31h35.39v-40H251.89Zm62.7.11H355V241.89h-40.4ZM246.83,142.65h21.46V103.6H246.83Zm120.74,39.11H302.26v6.53h65.31Z"/><path class="cls-9" d="M322.72,383.91c4.28-20.27,8.1-39.05,12.4-57.71.4-1.76,3.78-2.83,5.78-4.22,1.12,2,3.49,4.21,3.16,5.91q-5.49,28.2-11.88,56.21c-.44,1.9-3.56,3.18-5.44,4.75Z"/><path class="cls-9" d="M248.3,381.75c-1.76,2.39-3.2,6.4-5.36,6.83-4.87,1-5.38-3.5-5.65-7.16Q235.4,355.2,233.62,329c-.24-3.39.11-6.74,4.39-7s5.06,3,5.29,6.4q1.81,26.22,3.57,52.46Z"/><path class="cls-9" d="M204.88,385.5c-1.23,1.19-2.83,3.93-4.42,3.93-1.79,0-4.73-2.18-5.18-3.93-2.42-9.35-4.45-18.82-6-28.34-.29-1.78,2-4,3.1-6,1.95,1.14,5.22,1.93,5.63,3.48C200.53,364.39,202.46,374.3,204.88,385.5Z"/><path class="cls-9" d="M298.16,334.28c-.47,5.44-.58,10.94-1.59,16.27-.36,1.87-2.92,3.33-4.47,5-1.55-1.85-4.41-3.7-4.42-5.56a156.62,156.62,0,0,1,1.53-22.58c.27-1.95,3.16-3.53,4.84-5.28,1.43,2,3.36,3.74,4.14,5.94.64,1.83-.07,4.13-.18,6.23Z"/><path class="cls-9" d="M285.25,378.46c.13-1.14-.14-3.92.9-6.08a7,7,0,0,1,4.94-3.55c1.3-.07,3.84,2.46,3.91,3.91a51.72,51.72,0,0,1-1.15,13.19c-.3,1.35-3,2.92-4.68,3-1.27,0-3.17-1.93-3.77-3.42S285.25,381.74,285.25,378.46Z"/><path class="cls-9" d="M196.07,332.89c-3.32,2.63-5.29,5.46-7,5.34-6.3-.43-5.23-6.23-5.67-10.22-.16-1.55,2.63-3.42,4.07-5.14C190,325.85,192.56,328.82,196.07,332.89Z"/></g></svg>