<svg width="101" height="69" viewBox="0 0 101 69" fill="none" xmlns="http://www.w3.org/2000/svg">
<path d="M49.9 0C64.5 0 79.2 0 93.8 0C99.4 0 100.2 0.8 100.2 6.5C100.2 25 100.2 43.4 100.2 61.9C100.2 66.9 99.2 68.1 94.1 68.2C87.6 68.3 81 68.4 74.5 68.2C67.1 67.9 65.6 64.7 68.4 57.7C70.6 52 71.2 51 79.5 51.4C83.9 51.6 88.3 51.4 92.7 51.5C94.9 51.5 95.6 50.6 95.6 48.5C95.5 34.8 95.5 21 95.6 7.3C95.6 4.5 94.3 4.2 92.1 4.2C78.5 4.3 65 4.4 51.5 4.4C37.2 4.4 22.9 4.4 8.6 4.1C5.3 4 4.3 5.1 4.3 8.3C4.4 21.2 4.4 34.2 4.4 47.1C4.4 51.3 4.5 51.4 8.8 51.4C14.4 51.4 20.1 51.4 25.7 51.3C27.6 51.3 28.8 51.7 29.5 53.8C30.1 55.6 31.2 57.2 32.1 58.9C34.6 63.5 32.7 67.6 27.5 67.8C19.6 68.1 11.8 67.9 3.9 67.9C1.3 67.9 0 66.5 0 63.9C0 44 0 24.1 0 4.1C0 0.8 2.2 0 4.9 0C13 0 21.2 0 29.3 0C36.1 0 43 0 49.9 0ZM86.3 62.3C87.3 61.5 88.2 60.7 89.2 59.9C88.4 59.2 87.7 57.9 86.9 57.9C84.3 57.9 85.1 59.8 86.3 62.3Z" fill="#76FF03"/>
</svg>
