<svg width="170" height="170" viewBox="0 0 170 170" fill="none" xmlns="http://www.w3.org/2000/svg">
<circle cx="85.5" cy="87.5" r="75.5" fill="#E6F9F3"/>
<path d="M84.8 128.7C73.1 128.7 61.4 128.7 49.7 128.6C48.4 128.6 47.2 127.7 46 127.2C46.5 125.9 46.7 124.1 47.6 123.5C51.8 120.6 56.2 117.8 60.6 115.3C62.8 114 65.3 113.3 67.6 112C72.3 109.5 73.7 104.7 71.1 100C68.8 95.9 66.4 91.9 64.2 87.7C63.5 86.3 63.4 84.5 63.3 82.9C63.2 80.3 63.8 77.6 63.5 75.1C62.1 61.4 70.8 51.2 84.7 50.4C87.9 50.2 91.4 49.5 93 53.6C93.2 54.1 94.3 54.3 95.1 54.6C102.2 57 106.4 62 106.8 69.4C107.1 74.9 106.8 80.4 106.6 85.8C106.6 86.9 106 88 105.4 88.9C103.5 92.2 101.3 95.3 99.6 98.7C96.6 104.6 96.7 110 104 113C108.1 114.7 112.3 116.4 116.3 118.5C118.8 119.9 120.9 122 123 124C123.7 124.7 124.5 126.6 124.1 127.1C123.4 128 121.9 128.5 120.7 128.5C108.7 128.7 96.8 128.7 84.8 128.7Z" fill="#76FF03"/>
<path d="M84.9 42C99.5 42 114.2 42 128.8 42C134.4 42 135.2 42.8 135.2 48.5C135.2 67 135.2 85.4 135.2 103.9C135.2 108.9 134.2 110.1 129.1 110.2C122.6 110.3 116 110.4 109.5 110.2C102.1 109.9 100.6 106.7 103.4 99.7C105.6 94 106.2 93 114.5 93.4C118.9 93.6 123.3 93.4 127.7 93.5C129.9 93.5 130.6 92.6 130.6 90.5C130.5 76.8 130.5 63 130.6 49.3C130.6 46.5 129.3 46.2 127.1 46.2C113.5 46.3 100 46.4 86.5 46.4C72.2 46.4 57.9 46.4 43.6 46.1C40.3 46 39.3 47.1 39.3 50.3C39.4 63.2 39.4 76.2 39.4 89.1C39.4 93.3 39.5 93.4 43.8 93.4C49.4 93.4 55.1 93.4 60.7 93.3C62.6 93.3 63.8 93.7 64.5 95.8C65.1 97.6 66.2 99.2 67.1 100.9C69.6 105.5 67.7 109.6 62.5 109.8C54.6 110.1 46.8 109.9 38.9 109.9C36.3 109.9 35 108.5 35 105.9C35 86 35 66.1 35 46.1C35 42.8 37.2 42 39.9 42C48 42 56.2 42 64.3 42C71.1 42 78 42 84.9 42ZM121.3 104.3C122.3 103.5 123.2 102.7 124.2 101.9C123.4 101.2 122.7 99.9 121.9 99.9C119.3 99.9 120.1 101.8 121.3 104.3Z" fill="#76FF03"/>
</svg>
